G04 EAGLE Gerber X2 export*
%TF.Part,Single*%
%TF.FileFunction,Copper,L1,Top,Mixed*%
%TF.FilePolarity,Positive*%
%TF.GenerationSoftware,Autodesk,EAGLE,8.6.0*%
%TF.CreationDate,2018-02-20T16:43:01Z*%
G75*
%MOIN*%
%FSLAX34Y34*%
%LPD*%
%AMOC8*
5,1,8,0,0,1.08239X$1,22.5*%
G01*
%ADD10C,0.074000*%
%ADD11C,0.066000*%
%ADD12C,0.060000*%
%ADD13C,0.078740*%
%ADD14C,0.064500*%
%ADD15C,0.052000*%
%ADD16C,0.010000*%
%ADD17C,0.006000*%

G36*
X21175Y10902D02*
X21175Y10902D01*
X21180Y10902D01*
X21181Y10902D01*
X21187Y10905D01*
X21192Y10907D01*
X21197Y10911D01*
X21202Y10914D01*
X21206Y10919D01*
X21210Y10924D01*
X21213Y10929D01*
X21215Y10935D01*
X21216Y10935D01*
X21217Y10941D01*
X21218Y10947D01*
X21217Y10953D01*
X21217Y10959D01*
X21217Y10960D01*
X21215Y10965D01*
X21213Y10971D01*
X21213Y10972D01*
X21210Y10977D01*
X21206Y10982D01*
X21202Y10986D01*
X21197Y10990D01*
X21186Y10996D01*
X21183Y10997D01*
X21181Y10998D01*
X21094Y11021D01*
X20855Y11159D01*
X20659Y11355D01*
X20521Y11594D01*
X20449Y11862D01*
X20449Y12138D01*
X20521Y12406D01*
X20659Y12645D01*
X20855Y12841D01*
X21094Y12979D01*
X21362Y13051D01*
X21638Y13051D01*
X21906Y12979D01*
X22145Y12841D01*
X22341Y12645D01*
X22377Y12582D01*
X22381Y12577D01*
X22384Y12572D01*
X22385Y12572D01*
X22390Y12568D01*
X22394Y12565D01*
X22394Y12564D01*
X22395Y12564D01*
X22400Y12562D01*
X22405Y12559D01*
X22406Y12559D01*
X22412Y12558D01*
X22417Y12557D01*
X22418Y12557D01*
X22424Y12558D01*
X22430Y12558D01*
X22431Y12558D01*
X22436Y12560D01*
X22442Y12562D01*
X22447Y12566D01*
X22452Y12569D01*
X22453Y12569D01*
X22457Y12574D01*
X22460Y12578D01*
X22461Y12579D01*
X22463Y12584D01*
X22466Y12589D01*
X22467Y12590D01*
X22469Y12602D01*
X22469Y12605D01*
X22469Y12606D01*
X22469Y28394D01*
X22469Y28399D01*
X22468Y28405D01*
X22468Y28406D01*
X22466Y28411D01*
X22464Y28417D01*
X22463Y28417D01*
X22463Y28418D01*
X22460Y28422D01*
X22456Y28427D01*
X22456Y28428D01*
X22451Y28431D01*
X22447Y28435D01*
X22446Y28435D01*
X22441Y28438D01*
X22436Y28440D01*
X22435Y28440D01*
X22435Y28441D01*
X22429Y28442D01*
X22424Y28443D01*
X22423Y28443D01*
X22417Y28442D01*
X22411Y28442D01*
X22410Y28442D01*
X22405Y28440D01*
X22399Y28438D01*
X22398Y28438D01*
X22394Y28435D01*
X22389Y28432D01*
X22389Y28431D01*
X22388Y28431D01*
X22380Y28422D01*
X22378Y28420D01*
X22377Y28418D01*
X22341Y28355D01*
X22145Y28159D01*
X21906Y28021D01*
X21638Y27949D01*
X21362Y27949D01*
X21094Y28021D01*
X20855Y28159D01*
X20659Y28355D01*
X20521Y28594D01*
X20449Y28862D01*
X20449Y29138D01*
X20521Y29406D01*
X20659Y29645D01*
X20855Y29841D01*
X21094Y29979D01*
X21167Y29998D01*
X21172Y30001D01*
X21178Y30003D01*
X21183Y30007D01*
X21188Y30010D01*
X21188Y30011D01*
X21192Y30015D01*
X21196Y30020D01*
X21198Y30026D01*
X21201Y30031D01*
X21201Y30032D01*
X21202Y30038D01*
X21203Y30043D01*
X21203Y30044D01*
X21203Y30050D01*
X21202Y30056D01*
X21200Y30062D01*
X21198Y30068D01*
X21195Y30073D01*
X21191Y30078D01*
X21187Y30082D01*
X21182Y30086D01*
X21182Y30087D01*
X21177Y30089D01*
X21171Y30092D01*
X21159Y30095D01*
X21156Y30095D01*
X21154Y30095D01*
X346Y30095D01*
X340Y30095D01*
X334Y30094D01*
X328Y30092D01*
X323Y30089D01*
X322Y30089D01*
X317Y30086D01*
X313Y30082D01*
X312Y30082D01*
X308Y30077D01*
X305Y30073D01*
X304Y30072D01*
X302Y30067D01*
X299Y30061D01*
X298Y30055D01*
X297Y30049D01*
X297Y30043D01*
X298Y30037D01*
X298Y30036D01*
X300Y30031D01*
X302Y30025D01*
X302Y30024D01*
X305Y30019D01*
X308Y30014D01*
X309Y30014D01*
X313Y30010D01*
X317Y30006D01*
X318Y30006D01*
X329Y30000D01*
X331Y30000D01*
X333Y29998D01*
X406Y29979D01*
X645Y29841D01*
X841Y29645D01*
X979Y29406D01*
X1051Y29138D01*
X1051Y28862D01*
X979Y28594D01*
X841Y28355D01*
X645Y28159D01*
X406Y28021D01*
X138Y27949D01*
X-138Y27949D01*
X-406Y28021D01*
X-645Y28159D01*
X-841Y28355D01*
X-979Y28594D01*
X-1002Y28681D01*
X-1005Y28687D01*
X-1007Y28692D01*
X-1007Y28693D01*
X-1011Y28698D01*
X-1014Y28702D01*
X-1014Y28703D01*
X-1015Y28703D01*
X-1019Y28707D01*
X-1024Y28710D01*
X-1024Y28711D01*
X-1030Y28713D01*
X-1035Y28716D01*
X-1036Y28716D01*
X-1041Y28717D01*
X-1047Y28718D01*
X-1048Y28718D01*
X-1054Y28717D01*
X-1060Y28717D01*
X-1066Y28715D01*
X-1072Y28713D01*
X-1077Y28709D01*
X-1082Y28706D01*
X-1086Y28701D01*
X-1090Y28697D01*
X-1091Y28696D01*
X-1093Y28691D01*
X-1096Y28686D01*
X-1096Y28685D01*
X-1099Y28673D01*
X-1099Y28671D01*
X-1099Y28669D01*
X-1099Y12331D01*
X-1098Y12325D01*
X-1098Y12319D01*
X-1095Y12313D01*
X-1093Y12308D01*
X-1089Y12303D01*
X-1086Y12298D01*
X-1081Y12294D01*
X-1076Y12290D01*
X-1071Y12287D01*
X-1065Y12285D01*
X-1065Y12284D01*
X-1059Y12283D01*
X-1053Y12282D01*
X-1047Y12283D01*
X-1041Y12283D01*
X-1040Y12283D01*
X-1035Y12285D01*
X-1029Y12287D01*
X-1028Y12287D01*
X-1023Y12290D01*
X-1018Y12294D01*
X-1014Y12298D01*
X-1010Y12303D01*
X-1004Y12314D01*
X-1003Y12317D01*
X-1002Y12319D01*
X-979Y12406D01*
X-841Y12645D01*
X-645Y12841D01*
X-406Y12979D01*
X-138Y13051D01*
X138Y13051D01*
X406Y12979D01*
X645Y12841D01*
X841Y12645D01*
X979Y12406D01*
X1051Y12138D01*
X1051Y11862D01*
X979Y11594D01*
X841Y11355D01*
X645Y11159D01*
X406Y11021D01*
X319Y10998D01*
X313Y10995D01*
X308Y10993D01*
X307Y10993D01*
X302Y10989D01*
X298Y10986D01*
X297Y10986D01*
X297Y10985D01*
X293Y10981D01*
X290Y10976D01*
X289Y10976D01*
X287Y10970D01*
X284Y10965D01*
X284Y10964D01*
X283Y10959D01*
X282Y10953D01*
X282Y10952D01*
X283Y10946D01*
X283Y10940D01*
X285Y10934D01*
X287Y10928D01*
X291Y10923D01*
X294Y10918D01*
X299Y10914D01*
X303Y10910D01*
X304Y10909D01*
X309Y10907D01*
X314Y10904D01*
X315Y10904D01*
X327Y10901D01*
X329Y10901D01*
X331Y10901D01*
X21169Y10901D01*
X21175Y10902D01*
G37*
%LPC*%
G36*
X12908Y12539D02*
X12908Y12539D01*
X12739Y12609D01*
X12609Y12739D01*
X12564Y12849D01*
X12563Y12851D01*
X12563Y12852D01*
X12560Y12856D01*
X12557Y12860D01*
X12557Y12861D01*
X12556Y12862D01*
X12552Y12866D01*
X12549Y12869D01*
X12548Y12870D01*
X12547Y12871D01*
X12542Y12873D01*
X12538Y12876D01*
X12537Y12876D01*
X12536Y12877D01*
X12531Y12878D01*
X12526Y12879D01*
X12525Y12879D01*
X12524Y12880D01*
X12519Y12880D01*
X12514Y12880D01*
X12513Y12879D01*
X12511Y12879D01*
X12507Y12878D01*
X12502Y12877D01*
X12501Y12876D01*
X12499Y12876D01*
X12495Y12874D01*
X12491Y12871D01*
X12490Y12871D01*
X12488Y12870D01*
X12485Y12867D01*
X12481Y12863D01*
X12481Y12862D01*
X12480Y12861D01*
X12478Y12859D01*
X12474Y12853D01*
X12473Y12849D01*
X12443Y12790D01*
X12406Y12739D01*
X12361Y12694D01*
X12310Y12657D01*
X12254Y12629D01*
X12199Y12611D01*
X12199Y12950D01*
X12199Y12955D01*
X12198Y12960D01*
X12198Y12961D01*
X12198Y12962D01*
X12196Y12967D01*
X12194Y12972D01*
X12194Y12973D01*
X12193Y12974D01*
X12190Y12978D01*
X12187Y12982D01*
X12186Y12983D01*
X12186Y12984D01*
X12182Y12987D01*
X12178Y12990D01*
X12177Y12991D01*
X12176Y12992D01*
X12172Y12994D01*
X12167Y12996D01*
X12166Y12996D01*
X12165Y12997D01*
X12153Y12999D01*
X12151Y12999D01*
X12150Y12999D01*
X12099Y12999D01*
X12099Y13050D01*
X12099Y13055D01*
X12098Y13060D01*
X12098Y13061D01*
X12098Y13062D01*
X12096Y13067D01*
X12094Y13072D01*
X12094Y13073D01*
X12093Y13074D01*
X12090Y13078D01*
X12087Y13082D01*
X12086Y13083D01*
X12086Y13084D01*
X12082Y13087D01*
X12078Y13090D01*
X12077Y13091D01*
X12076Y13092D01*
X12072Y13094D01*
X12067Y13096D01*
X12066Y13096D01*
X12065Y13097D01*
X12053Y13099D01*
X12051Y13099D01*
X12050Y13099D01*
X11711Y13099D01*
X11729Y13154D01*
X11757Y13210D01*
X11794Y13261D01*
X11828Y13295D01*
X11832Y13300D01*
X11835Y13304D01*
X11836Y13304D01*
X11836Y13305D01*
X11838Y13310D01*
X11841Y13315D01*
X11841Y13316D01*
X11842Y13322D01*
X11843Y13327D01*
X11843Y13328D01*
X11843Y13329D01*
X11842Y13334D01*
X11842Y13340D01*
X11842Y13341D01*
X11840Y13346D01*
X11838Y13352D01*
X11837Y13353D01*
X11834Y13357D01*
X11831Y13362D01*
X11830Y13363D01*
X11826Y13367D01*
X11822Y13370D01*
X11821Y13371D01*
X11816Y13374D01*
X11811Y13376D01*
X11810Y13376D01*
X11810Y13377D01*
X11797Y13379D01*
X11795Y13379D01*
X11794Y13379D01*
X10263Y13379D01*
X10258Y13379D01*
X10254Y13379D01*
X10252Y13378D01*
X10250Y13378D01*
X10246Y13376D01*
X10242Y13375D01*
X10241Y13374D01*
X10239Y13373D01*
X10229Y13366D01*
X10228Y13365D01*
X9634Y12771D01*
X9557Y12739D01*
X8008Y12739D01*
X7931Y12771D01*
X4481Y16221D01*
X4449Y16298D01*
X4449Y22532D01*
X4449Y22538D01*
X4448Y22543D01*
X4448Y22544D01*
X4448Y22545D01*
X4446Y22550D01*
X4444Y22555D01*
X4443Y22556D01*
X4440Y22561D01*
X4437Y22565D01*
X4436Y22566D01*
X4431Y22570D01*
X4427Y22573D01*
X4427Y22574D01*
X4426Y22574D01*
X4421Y22576D01*
X4416Y22579D01*
X4415Y22579D01*
X4409Y22580D01*
X4404Y22581D01*
X4403Y22581D01*
X4397Y22581D01*
X4391Y22581D01*
X4390Y22581D01*
X4385Y22579D01*
X4380Y22577D01*
X4379Y22577D01*
X4378Y22577D01*
X4368Y22570D01*
X4366Y22568D01*
X4365Y22567D01*
X4187Y22389D01*
X4184Y22385D01*
X4181Y22381D01*
X4180Y22380D01*
X4179Y22379D01*
X4177Y22374D01*
X4175Y22370D01*
X4175Y22369D01*
X4174Y22368D01*
X4174Y22363D01*
X4173Y22358D01*
X4173Y22357D01*
X4172Y22355D01*
X4173Y22350D01*
X4173Y22345D01*
X4174Y22344D01*
X4174Y22343D01*
X4175Y22338D01*
X4177Y22334D01*
X4177Y22333D01*
X4178Y22331D01*
X4185Y22321D01*
X4186Y22320D01*
X4187Y22319D01*
X4232Y22274D01*
X4306Y22096D01*
X4306Y21904D01*
X4232Y21726D01*
X4096Y21590D01*
X3919Y21517D01*
X3081Y21517D01*
X2904Y21590D01*
X2768Y21726D01*
X2694Y21904D01*
X2694Y22096D01*
X2768Y22274D01*
X2904Y22410D01*
X3081Y22483D01*
X3109Y22483D01*
X3111Y22484D01*
X3113Y22483D01*
X3117Y22484D01*
X3121Y22485D01*
X3123Y22486D01*
X3126Y22486D01*
X3129Y22488D01*
X3133Y22489D01*
X3135Y22491D01*
X3137Y22492D01*
X3140Y22494D01*
X3143Y22497D01*
X3144Y22499D01*
X3146Y22500D01*
X3148Y22503D01*
X3151Y22506D01*
X3152Y22509D01*
X3153Y22511D01*
X3154Y22514D01*
X3156Y22518D01*
X3156Y22520D01*
X3157Y22522D01*
X3157Y22526D01*
X3158Y22530D01*
X3158Y22532D01*
X3158Y22535D01*
X3157Y22538D01*
X3157Y22542D01*
X3156Y22545D01*
X3156Y22547D01*
X3154Y22550D01*
X3153Y22554D01*
X3152Y22556D01*
X3151Y22558D01*
X3148Y22561D01*
X3146Y22564D01*
X3144Y22566D01*
X3143Y22568D01*
X3140Y22570D01*
X3137Y22573D01*
X3135Y22574D01*
X3133Y22575D01*
X3131Y22576D01*
X3126Y22579D01*
X3121Y22580D01*
X3116Y22581D01*
X3078Y22587D01*
X3015Y22608D01*
X2956Y22638D01*
X2902Y22677D01*
X2855Y22724D01*
X2816Y22778D01*
X2785Y22838D01*
X2765Y22901D01*
X3450Y22901D01*
X3455Y22901D01*
X3460Y22902D01*
X3461Y22902D01*
X3462Y22902D01*
X3467Y22904D01*
X3472Y22906D01*
X3473Y22906D01*
X3474Y22907D01*
X3478Y22910D01*
X3482Y22913D01*
X3483Y22914D01*
X3484Y22914D01*
X3487Y22918D01*
X3490Y22922D01*
X3491Y22923D01*
X3492Y22924D01*
X3494Y22928D01*
X3496Y22933D01*
X3496Y22934D01*
X3497Y22935D01*
X3499Y22947D01*
X3499Y22949D01*
X3499Y22950D01*
X3499Y23001D01*
X3550Y23001D01*
X3555Y23001D01*
X3560Y23002D01*
X3561Y23002D01*
X3562Y23002D01*
X3567Y23004D01*
X3572Y23006D01*
X3573Y23006D01*
X3574Y23007D01*
X3578Y23010D01*
X3582Y23013D01*
X3583Y23014D01*
X3584Y23014D01*
X3587Y23018D01*
X3590Y23022D01*
X3591Y23023D01*
X3592Y23024D01*
X3594Y23028D01*
X3596Y23033D01*
X3596Y23034D01*
X3597Y23035D01*
X3599Y23047D01*
X3599Y23049D01*
X3599Y23050D01*
X3599Y23423D01*
X3856Y23423D01*
X3922Y23413D01*
X3985Y23392D01*
X4044Y23362D01*
X4098Y23323D01*
X4145Y23276D01*
X4184Y23222D01*
X4196Y23199D01*
X4197Y23198D01*
X4197Y23197D01*
X4200Y23193D01*
X4203Y23189D01*
X4204Y23188D01*
X4204Y23187D01*
X4208Y23184D01*
X4212Y23181D01*
X4213Y23180D01*
X4214Y23180D01*
X4219Y23177D01*
X4224Y23175D01*
X4225Y23174D01*
X4230Y23173D01*
X4236Y23172D01*
X4237Y23172D01*
X4243Y23173D01*
X4248Y23173D01*
X4249Y23173D01*
X4250Y23173D01*
X4255Y23175D01*
X4260Y23176D01*
X4261Y23177D01*
X4262Y23177D01*
X4266Y23180D01*
X4271Y23183D01*
X4272Y23184D01*
X4276Y23188D01*
X4279Y23192D01*
X4280Y23192D01*
X4280Y23193D01*
X4283Y23198D01*
X4285Y23203D01*
X4286Y23203D01*
X4286Y23204D01*
X4287Y23206D01*
X4289Y23215D01*
X4289Y23219D01*
X4289Y23221D01*
X4289Y24709D01*
X4289Y24710D01*
X4289Y24712D01*
X4288Y24716D01*
X4288Y24721D01*
X4287Y24723D01*
X4287Y24724D01*
X4285Y24728D01*
X4283Y24733D01*
X4282Y24734D01*
X4282Y24735D01*
X4279Y24739D01*
X4276Y24743D01*
X4275Y24744D01*
X4274Y24745D01*
X4271Y24746D01*
X4266Y24751D01*
X4261Y24753D01*
X4259Y24754D01*
X4226Y24768D01*
X4090Y24904D01*
X4017Y25081D01*
X4017Y25109D01*
X4016Y25111D01*
X4017Y25113D01*
X4016Y25117D01*
X4015Y25121D01*
X4014Y25123D01*
X4014Y25126D01*
X4012Y25129D01*
X4011Y25133D01*
X4009Y25135D01*
X4008Y25137D01*
X4006Y25140D01*
X4003Y25143D01*
X4001Y25144D01*
X4000Y25146D01*
X3997Y25148D01*
X3994Y25151D01*
X3991Y25152D01*
X3989Y25153D01*
X3986Y25154D01*
X3982Y25156D01*
X3980Y25156D01*
X3978Y25157D01*
X3974Y25157D01*
X3970Y25158D01*
X3968Y25158D01*
X3965Y25158D01*
X3962Y25157D01*
X3958Y25157D01*
X3955Y25156D01*
X3953Y25156D01*
X3950Y25154D01*
X3946Y25153D01*
X3944Y25152D01*
X3942Y25151D01*
X3939Y25148D01*
X3936Y25146D01*
X3934Y25144D01*
X3932Y25143D01*
X3930Y25140D01*
X3927Y25137D01*
X3926Y25135D01*
X3925Y25133D01*
X3924Y25131D01*
X3921Y25126D01*
X3920Y25121D01*
X3919Y25116D01*
X3913Y25078D01*
X3892Y25015D01*
X3862Y24956D01*
X3823Y24902D01*
X3776Y24855D01*
X3722Y24816D01*
X3662Y24785D01*
X3599Y24765D01*
X3599Y25450D01*
X3599Y25455D01*
X3598Y25460D01*
X3598Y25461D01*
X3598Y25462D01*
X3596Y25467D01*
X3594Y25472D01*
X3594Y25473D01*
X3593Y25474D01*
X3590Y25478D01*
X3587Y25482D01*
X3586Y25483D01*
X3586Y25484D01*
X3582Y25487D01*
X3578Y25490D01*
X3577Y25491D01*
X3576Y25492D01*
X3572Y25494D01*
X3567Y25496D01*
X3566Y25496D01*
X3565Y25497D01*
X3553Y25499D01*
X3551Y25499D01*
X3550Y25499D01*
X3499Y25499D01*
X3499Y25501D01*
X3550Y25501D01*
X3555Y25501D01*
X3560Y25502D01*
X3561Y25502D01*
X3562Y25502D01*
X3567Y25504D01*
X3572Y25506D01*
X3573Y25506D01*
X3574Y25507D01*
X3578Y25510D01*
X3582Y25513D01*
X3583Y25514D01*
X3584Y25514D01*
X3587Y25518D01*
X3590Y25522D01*
X3591Y25523D01*
X3592Y25524D01*
X3594Y25528D01*
X3596Y25533D01*
X3596Y25534D01*
X3597Y25535D01*
X3599Y25547D01*
X3599Y25549D01*
X3599Y25550D01*
X3599Y26235D01*
X3662Y26215D01*
X3722Y26184D01*
X3776Y26145D01*
X3823Y26098D01*
X3862Y26044D01*
X3892Y25985D01*
X3913Y25922D01*
X3919Y25884D01*
X3920Y25881D01*
X3920Y25879D01*
X3921Y25875D01*
X3922Y25872D01*
X3924Y25870D01*
X3924Y25867D01*
X3927Y25864D01*
X3929Y25861D01*
X3930Y25859D01*
X3932Y25857D01*
X3935Y25855D01*
X3938Y25852D01*
X3940Y25851D01*
X3941Y25849D01*
X3945Y25848D01*
X3948Y25846D01*
X3951Y25845D01*
X3953Y25844D01*
X3956Y25844D01*
X3960Y25843D01*
X3963Y25842D01*
X3965Y25842D01*
X3969Y25842D01*
X3973Y25842D01*
X3975Y25843D01*
X3977Y25843D01*
X3981Y25844D01*
X3985Y25845D01*
X3987Y25846D01*
X3989Y25847D01*
X3992Y25849D01*
X3996Y25851D01*
X3997Y25852D01*
X3999Y25854D01*
X4002Y25857D01*
X4005Y25859D01*
X4006Y25861D01*
X4008Y25863D01*
X4010Y25866D01*
X4012Y25870D01*
X4013Y25872D01*
X4014Y25874D01*
X4014Y25876D01*
X4016Y25881D01*
X4016Y25886D01*
X4017Y25891D01*
X4017Y25919D01*
X4090Y26096D01*
X4226Y26232D01*
X4404Y26306D01*
X4596Y26306D01*
X4774Y26232D01*
X4910Y26096D01*
X4954Y25988D01*
X4957Y25983D01*
X4960Y25978D01*
X4961Y25977D01*
X4965Y25973D01*
X4968Y25969D01*
X4969Y25969D01*
X4969Y25968D01*
X4974Y25965D01*
X4979Y25962D01*
X4980Y25962D01*
X4985Y25960D01*
X4991Y25959D01*
X4991Y25958D01*
X4992Y25958D01*
X4997Y25958D01*
X5003Y25958D01*
X5004Y25958D01*
X5010Y25959D01*
X5015Y25960D01*
X5016Y25960D01*
X5021Y25963D01*
X5026Y25965D01*
X5027Y25966D01*
X5028Y25966D01*
X5032Y25970D01*
X5036Y25973D01*
X5036Y25974D01*
X5037Y25974D01*
X5044Y25985D01*
X5045Y25987D01*
X5045Y25988D01*
X5090Y26096D01*
X5226Y26232D01*
X5404Y26306D01*
X5596Y26306D01*
X5774Y26232D01*
X5910Y26096D01*
X5983Y25919D01*
X5983Y25081D01*
X5910Y24904D01*
X5774Y24768D01*
X5596Y24694D01*
X5404Y24694D01*
X5226Y24768D01*
X5181Y24813D01*
X5177Y24816D01*
X5173Y24819D01*
X5172Y24820D01*
X5171Y24821D01*
X5167Y24823D01*
X5162Y24825D01*
X5161Y24825D01*
X5160Y24826D01*
X5155Y24826D01*
X5150Y24827D01*
X5149Y24827D01*
X5147Y24828D01*
X5142Y24827D01*
X5138Y24827D01*
X5136Y24826D01*
X5135Y24826D01*
X5130Y24825D01*
X5126Y24823D01*
X5125Y24823D01*
X5123Y24822D01*
X5113Y24815D01*
X5112Y24814D01*
X5111Y24813D01*
X4885Y24587D01*
X4883Y24584D01*
X4880Y24581D01*
X4879Y24579D01*
X4878Y24577D01*
X4876Y24573D01*
X4874Y24570D01*
X4874Y24568D01*
X4873Y24566D01*
X4871Y24554D01*
X4871Y24553D01*
X4871Y24552D01*
X4871Y22788D01*
X4871Y22782D01*
X4872Y22777D01*
X4872Y22776D01*
X4872Y22775D01*
X4874Y22770D01*
X4876Y22765D01*
X4877Y22764D01*
X4880Y22759D01*
X4883Y22755D01*
X4884Y22754D01*
X4889Y22750D01*
X4893Y22747D01*
X4893Y22746D01*
X4894Y22746D01*
X4899Y22744D01*
X4904Y22741D01*
X4905Y22741D01*
X4911Y22740D01*
X4916Y22739D01*
X4917Y22739D01*
X4923Y22739D01*
X4929Y22739D01*
X4930Y22739D01*
X4935Y22741D01*
X4940Y22743D01*
X4941Y22743D01*
X4942Y22743D01*
X4952Y22750D01*
X4954Y22752D01*
X4955Y22753D01*
X6381Y24179D01*
X6458Y24211D01*
X17042Y24211D01*
X17119Y24179D01*
X17800Y23498D01*
X17804Y23495D01*
X17807Y23492D01*
X17809Y23491D01*
X17810Y23490D01*
X17814Y23488D01*
X17818Y23486D01*
X17819Y23486D01*
X17822Y23485D01*
X17834Y23483D01*
X17835Y23483D01*
X18419Y23483D01*
X18596Y23410D01*
X18732Y23274D01*
X18806Y23096D01*
X18806Y22904D01*
X18732Y22726D01*
X18596Y22590D01*
X18488Y22545D01*
X18483Y22543D01*
X18478Y22540D01*
X18477Y22539D01*
X18473Y22535D01*
X18469Y22532D01*
X18469Y22531D01*
X18468Y22531D01*
X18465Y22526D01*
X18462Y22521D01*
X18462Y22520D01*
X18460Y22515D01*
X18459Y22509D01*
X18458Y22509D01*
X18458Y22508D01*
X18458Y22503D01*
X18458Y22497D01*
X18458Y22496D01*
X18459Y22490D01*
X18460Y22485D01*
X18460Y22484D01*
X18463Y22479D01*
X18465Y22474D01*
X18466Y22473D01*
X18466Y22472D01*
X18470Y22468D01*
X18473Y22464D01*
X18474Y22464D01*
X18474Y22463D01*
X18485Y22456D01*
X18487Y22455D01*
X18488Y22454D01*
X18596Y22410D01*
X18732Y22274D01*
X18806Y22096D01*
X18806Y21904D01*
X18732Y21726D01*
X18596Y21590D01*
X18419Y21517D01*
X17581Y21517D01*
X17404Y21590D01*
X17268Y21726D01*
X17254Y21759D01*
X17254Y21760D01*
X17253Y21762D01*
X17250Y21766D01*
X17248Y21770D01*
X17247Y21771D01*
X17246Y21772D01*
X17243Y21775D01*
X17239Y21779D01*
X17238Y21779D01*
X17237Y21780D01*
X17233Y21783D01*
X17229Y21785D01*
X17227Y21785D01*
X17226Y21786D01*
X17224Y21787D01*
X17217Y21789D01*
X17211Y21789D01*
X17209Y21789D01*
X14079Y21789D01*
X14075Y21789D01*
X14071Y21789D01*
X14069Y21788D01*
X14067Y21788D01*
X14063Y21786D01*
X14059Y21785D01*
X14058Y21784D01*
X14056Y21783D01*
X14046Y21776D01*
X14045Y21775D01*
X13597Y21327D01*
X13594Y21324D01*
X13591Y21320D01*
X13590Y21319D01*
X13590Y21318D01*
X13588Y21313D01*
X13585Y21309D01*
X13585Y21307D01*
X13585Y21306D01*
X13584Y21301D01*
X13583Y21297D01*
X13583Y21295D01*
X13583Y21294D01*
X13583Y21289D01*
X13584Y21284D01*
X13584Y21283D01*
X13584Y21282D01*
X13586Y21277D01*
X13587Y21272D01*
X13588Y21271D01*
X13588Y21270D01*
X13593Y21263D01*
X13595Y21260D01*
X13597Y21259D01*
X13597Y21258D01*
X13617Y21238D01*
X13681Y21084D01*
X13681Y20916D01*
X13617Y20762D01*
X13498Y20643D01*
X13344Y20579D01*
X12869Y20579D01*
X12865Y20579D01*
X12861Y20579D01*
X12859Y20578D01*
X12857Y20578D01*
X12853Y20576D01*
X12849Y20575D01*
X12848Y20574D01*
X12846Y20573D01*
X12836Y20566D01*
X12835Y20565D01*
X12705Y20435D01*
X12703Y20432D01*
X12700Y20429D01*
X12699Y20427D01*
X12698Y20426D01*
X12696Y20422D01*
X12694Y20418D01*
X12694Y20416D01*
X12693Y20414D01*
X12691Y20402D01*
X12691Y20401D01*
X12691Y18540D01*
X12691Y18535D01*
X12692Y18530D01*
X12692Y18529D01*
X12692Y18528D01*
X12694Y18523D01*
X12696Y18518D01*
X12696Y18517D01*
X12697Y18516D01*
X12700Y18512D01*
X12703Y18508D01*
X12704Y18507D01*
X12704Y18506D01*
X12708Y18503D01*
X12712Y18500D01*
X12713Y18499D01*
X12714Y18498D01*
X12718Y18496D01*
X12723Y18494D01*
X12724Y18494D01*
X12725Y18493D01*
X12737Y18491D01*
X12739Y18491D01*
X12740Y18491D01*
X12928Y18491D01*
X13108Y18416D01*
X13246Y18278D01*
X13321Y18098D01*
X13321Y17902D01*
X13260Y17756D01*
X13259Y17752D01*
X13257Y17747D01*
X13257Y17746D01*
X13257Y17744D01*
X13257Y17740D01*
X13257Y17735D01*
X13257Y17733D01*
X13257Y17732D01*
X13258Y17727D01*
X13259Y17722D01*
X13260Y17721D01*
X13260Y17720D01*
X13262Y17716D01*
X13264Y17711D01*
X13265Y17710D01*
X13266Y17709D01*
X13269Y17705D01*
X13272Y17702D01*
X13273Y17701D01*
X13274Y17700D01*
X13285Y17693D01*
X13286Y17693D01*
X13287Y17692D01*
X13319Y17679D01*
X13386Y17612D01*
X15535Y15463D01*
X15536Y15462D01*
X15537Y15461D01*
X15541Y15458D01*
X15545Y15456D01*
X15546Y15455D01*
X15547Y15454D01*
X15552Y15453D01*
X15556Y15451D01*
X15558Y15450D01*
X15559Y15450D01*
X15564Y15450D01*
X15568Y15449D01*
X15570Y15449D01*
X15571Y15449D01*
X15574Y15449D01*
X15581Y15450D01*
X15586Y15452D01*
X15589Y15453D01*
X15608Y15461D01*
X15792Y15461D01*
X15961Y15391D01*
X16091Y15261D01*
X16161Y15092D01*
X16161Y14908D01*
X16091Y14739D01*
X15961Y14609D01*
X15792Y14539D01*
X15608Y14539D01*
X15439Y14609D01*
X15309Y14739D01*
X15296Y14773D01*
X15293Y14777D01*
X15290Y14782D01*
X15290Y14783D01*
X15289Y14783D01*
X15285Y14787D01*
X15282Y14791D01*
X15281Y14792D01*
X15276Y14795D01*
X15271Y14798D01*
X15270Y14799D01*
X15265Y14800D01*
X15259Y14802D01*
X15258Y14802D01*
X15253Y14802D01*
X15247Y14803D01*
X15246Y14803D01*
X15240Y14802D01*
X15235Y14801D01*
X15234Y14800D01*
X15229Y14798D01*
X15224Y14795D01*
X15223Y14795D01*
X15222Y14795D01*
X15218Y14791D01*
X15214Y14787D01*
X15213Y14786D01*
X15206Y14776D01*
X15205Y14774D01*
X15204Y14773D01*
X15191Y14739D01*
X15061Y14609D01*
X14892Y14539D01*
X14708Y14539D01*
X14539Y14609D01*
X14409Y14739D01*
X14364Y14849D01*
X14363Y14851D01*
X14363Y14852D01*
X14360Y14856D01*
X14357Y14860D01*
X14357Y14861D01*
X14356Y14862D01*
X14352Y14866D01*
X14349Y14869D01*
X14348Y14870D01*
X14347Y14871D01*
X14342Y14873D01*
X14338Y14876D01*
X14337Y14876D01*
X14336Y14877D01*
X14331Y14878D01*
X14326Y14879D01*
X14325Y14879D01*
X14324Y14880D01*
X14319Y14880D01*
X14314Y14880D01*
X14313Y14879D01*
X14311Y14879D01*
X14307Y14878D01*
X14302Y14877D01*
X14301Y14876D01*
X14299Y14876D01*
X14295Y14874D01*
X14291Y14871D01*
X14290Y14871D01*
X14288Y14870D01*
X14285Y14867D01*
X14281Y14863D01*
X14281Y14862D01*
X14280Y14861D01*
X14278Y14859D01*
X14274Y14853D01*
X14273Y14849D01*
X14243Y14790D01*
X14206Y14739D01*
X14161Y14694D01*
X14110Y14657D01*
X14054Y14629D01*
X13999Y14611D01*
X13999Y14950D01*
X13999Y14955D01*
X13998Y14960D01*
X13998Y14961D01*
X13998Y14962D01*
X13996Y14967D01*
X13994Y14972D01*
X13994Y14973D01*
X13993Y14974D01*
X13990Y14978D01*
X13987Y14982D01*
X13986Y14983D01*
X13986Y14984D01*
X13982Y14987D01*
X13978Y14990D01*
X13977Y14991D01*
X13976Y14992D01*
X13972Y14994D01*
X13967Y14996D01*
X13966Y14996D01*
X13965Y14997D01*
X13953Y14999D01*
X13951Y14999D01*
X13950Y14999D01*
X13850Y14999D01*
X13845Y14999D01*
X13840Y14998D01*
X13839Y14998D01*
X13838Y14998D01*
X13833Y14996D01*
X13828Y14994D01*
X13827Y14994D01*
X13826Y14993D01*
X13822Y14990D01*
X13818Y14987D01*
X13817Y14986D01*
X13816Y14986D01*
X13813Y14982D01*
X13810Y14978D01*
X13809Y14977D01*
X13808Y14976D01*
X13806Y14972D01*
X13804Y14967D01*
X13804Y14966D01*
X13803Y14965D01*
X13801Y14953D01*
X13801Y14951D01*
X13801Y14950D01*
X13801Y14611D01*
X13746Y14629D01*
X13690Y14657D01*
X13639Y14694D01*
X13594Y14739D01*
X13557Y14790D01*
X13528Y14847D01*
X13528Y14848D01*
X13526Y14853D01*
X13523Y14857D01*
X13523Y14858D01*
X13522Y14859D01*
X13519Y14863D01*
X13515Y14867D01*
X13514Y14867D01*
X13514Y14868D01*
X13509Y14871D01*
X13505Y14874D01*
X13504Y14874D01*
X13503Y14875D01*
X13498Y14877D01*
X13494Y14878D01*
X13493Y14879D01*
X13491Y14879D01*
X13486Y14879D01*
X13481Y14880D01*
X13480Y14880D01*
X13479Y14880D01*
X13474Y14879D01*
X13469Y14878D01*
X13468Y14878D01*
X13467Y14877D01*
X13462Y14875D01*
X13458Y14874D01*
X13457Y14873D01*
X13455Y14872D01*
X13452Y14869D01*
X13448Y14866D01*
X13447Y14865D01*
X13446Y14864D01*
X13445Y14862D01*
X13440Y14856D01*
X13438Y14852D01*
X13436Y14849D01*
X13391Y14739D01*
X13261Y14609D01*
X13092Y14539D01*
X12908Y14539D01*
X12739Y14609D01*
X12609Y14739D01*
X12596Y14773D01*
X12593Y14777D01*
X12590Y14782D01*
X12590Y14783D01*
X12589Y14783D01*
X12585Y14787D01*
X12582Y14791D01*
X12581Y14792D01*
X12576Y14795D01*
X12571Y14798D01*
X12570Y14799D01*
X12565Y14800D01*
X12559Y14802D01*
X12558Y14802D01*
X12553Y14802D01*
X12547Y14803D01*
X12546Y14803D01*
X12540Y14802D01*
X12535Y14801D01*
X12534Y14800D01*
X12529Y14798D01*
X12524Y14795D01*
X12523Y14795D01*
X12522Y14795D01*
X12518Y14791D01*
X12514Y14787D01*
X12513Y14786D01*
X12506Y14776D01*
X12505Y14774D01*
X12504Y14773D01*
X12491Y14739D01*
X12361Y14609D01*
X12192Y14539D01*
X12008Y14539D01*
X11839Y14609D01*
X11709Y14739D01*
X11639Y14908D01*
X11639Y15092D01*
X11709Y15261D01*
X11839Y15391D01*
X12008Y15461D01*
X12192Y15461D01*
X12361Y15391D01*
X12491Y15261D01*
X12504Y15227D01*
X12507Y15223D01*
X12510Y15218D01*
X12510Y15217D01*
X12511Y15217D01*
X12515Y15213D01*
X12518Y15209D01*
X12519Y15208D01*
X12524Y15205D01*
X12529Y15202D01*
X12530Y15201D01*
X12535Y15200D01*
X12541Y15198D01*
X12542Y15198D01*
X12547Y15198D01*
X12553Y15197D01*
X12554Y15197D01*
X12560Y15198D01*
X12565Y15199D01*
X12566Y15200D01*
X12571Y15202D01*
X12576Y15205D01*
X12577Y15205D01*
X12578Y15205D01*
X12582Y15209D01*
X12586Y15213D01*
X12587Y15214D01*
X12594Y15224D01*
X12595Y15226D01*
X12596Y15227D01*
X12609Y15261D01*
X12739Y15391D01*
X12908Y15461D01*
X13092Y15461D01*
X13261Y15391D01*
X13391Y15261D01*
X13436Y15151D01*
X13437Y15149D01*
X13437Y15148D01*
X13440Y15144D01*
X13443Y15140D01*
X13443Y15139D01*
X13444Y15138D01*
X13448Y15134D01*
X13451Y15131D01*
X13452Y15130D01*
X13453Y15129D01*
X13458Y15127D01*
X13462Y15124D01*
X13463Y15124D01*
X13464Y15123D01*
X13469Y15122D01*
X13474Y15121D01*
X13475Y15121D01*
X13476Y15120D01*
X13481Y15120D01*
X13486Y15120D01*
X13487Y15121D01*
X13489Y15121D01*
X13493Y15122D01*
X13498Y15123D01*
X13499Y15124D01*
X13501Y15124D01*
X13505Y15126D01*
X13509Y15129D01*
X13510Y15129D01*
X13512Y15130D01*
X13515Y15133D01*
X13519Y15137D01*
X13519Y15138D01*
X13520Y15139D01*
X13522Y15141D01*
X13526Y15147D01*
X13527Y15151D01*
X13557Y15210D01*
X13594Y15261D01*
X13639Y15306D01*
X13690Y15343D01*
X13746Y15371D01*
X13801Y15389D01*
X13801Y15050D01*
X13801Y15045D01*
X13802Y15040D01*
X13802Y15039D01*
X13802Y15038D01*
X13804Y15033D01*
X13806Y15028D01*
X13806Y15027D01*
X13807Y15026D01*
X13810Y15022D01*
X13813Y15018D01*
X13814Y15017D01*
X13814Y15016D01*
X13818Y15013D01*
X13822Y15010D01*
X13823Y15009D01*
X13824Y15008D01*
X13828Y15006D01*
X13833Y15004D01*
X13834Y15004D01*
X13835Y15003D01*
X13847Y15001D01*
X13849Y15001D01*
X13850Y15001D01*
X13950Y15001D01*
X13955Y15001D01*
X13960Y15002D01*
X13961Y15002D01*
X13962Y15002D01*
X13967Y15004D01*
X13972Y15006D01*
X13973Y15006D01*
X13974Y15007D01*
X13978Y15010D01*
X13982Y15013D01*
X13983Y15014D01*
X13984Y15014D01*
X13987Y15018D01*
X13990Y15022D01*
X13991Y15023D01*
X13992Y15024D01*
X13994Y15028D01*
X13996Y15033D01*
X13996Y15034D01*
X13997Y15035D01*
X13999Y15047D01*
X13999Y15049D01*
X13999Y15050D01*
X13999Y15389D01*
X14054Y15371D01*
X14110Y15343D01*
X14161Y15306D01*
X14206Y15261D01*
X14243Y15210D01*
X14272Y15153D01*
X14272Y15152D01*
X14274Y15147D01*
X14277Y15143D01*
X14277Y15142D01*
X14278Y15141D01*
X14281Y15137D01*
X14285Y15133D01*
X14286Y15133D01*
X14286Y15132D01*
X14291Y15129D01*
X14295Y15126D01*
X14296Y15126D01*
X14297Y15125D01*
X14302Y15123D01*
X14306Y15122D01*
X14307Y15121D01*
X14309Y15121D01*
X14314Y15121D01*
X14319Y15120D01*
X14320Y15120D01*
X14321Y15120D01*
X14326Y15121D01*
X14331Y15122D01*
X14332Y15122D01*
X14333Y15123D01*
X14338Y15125D01*
X14342Y15126D01*
X14343Y15127D01*
X14345Y15128D01*
X14348Y15131D01*
X14352Y15134D01*
X14353Y15135D01*
X14354Y15136D01*
X14355Y15138D01*
X14360Y15144D01*
X14362Y15148D01*
X14364Y15151D01*
X14409Y15261D01*
X14539Y15391D01*
X14708Y15461D01*
X14822Y15461D01*
X14828Y15461D01*
X14833Y15462D01*
X14834Y15462D01*
X14835Y15462D01*
X14840Y15464D01*
X14845Y15466D01*
X14846Y15467D01*
X14851Y15470D01*
X14855Y15473D01*
X14856Y15474D01*
X14860Y15479D01*
X14863Y15483D01*
X14864Y15483D01*
X14864Y15484D01*
X14866Y15489D01*
X14869Y15494D01*
X14869Y15495D01*
X14870Y15501D01*
X14871Y15506D01*
X14871Y15507D01*
X14871Y15513D01*
X14871Y15519D01*
X14871Y15520D01*
X14869Y15525D01*
X14867Y15530D01*
X14867Y15531D01*
X14867Y15532D01*
X14860Y15542D01*
X14858Y15544D01*
X14857Y15545D01*
X13127Y17275D01*
X13124Y17277D01*
X13121Y17280D01*
X13119Y17281D01*
X13117Y17282D01*
X13113Y17284D01*
X13110Y17286D01*
X13108Y17286D01*
X13106Y17287D01*
X13094Y17289D01*
X13093Y17289D01*
X13092Y17289D01*
X9458Y17289D01*
X9381Y17321D01*
X7219Y19483D01*
X7218Y19484D01*
X7217Y19485D01*
X7213Y19488D01*
X7209Y19491D01*
X7208Y19491D01*
X7206Y19492D01*
X7202Y19494D01*
X7197Y19496D01*
X7196Y19496D01*
X7195Y19496D01*
X7190Y19497D01*
X7185Y19498D01*
X7184Y19497D01*
X7182Y19498D01*
X7180Y19497D01*
X7173Y19496D01*
X7168Y19494D01*
X7165Y19494D01*
X7106Y19469D01*
X6894Y19469D01*
X6699Y19550D01*
X6550Y19699D01*
X6469Y19894D01*
X6469Y20106D01*
X6550Y20301D01*
X6699Y20450D01*
X6894Y20531D01*
X7106Y20531D01*
X7301Y20450D01*
X7450Y20301D01*
X7531Y20106D01*
X7531Y19894D01*
X7506Y19835D01*
X7506Y19833D01*
X7505Y19832D01*
X7504Y19827D01*
X7503Y19823D01*
X7503Y19821D01*
X7503Y19820D01*
X7503Y19815D01*
X7503Y19811D01*
X7503Y19809D01*
X7503Y19808D01*
X7505Y19803D01*
X7506Y19798D01*
X7506Y19797D01*
X7507Y19796D01*
X7508Y19794D01*
X7512Y19787D01*
X7514Y19784D01*
X7515Y19783D01*
X7516Y19782D01*
X7517Y19781D01*
X9573Y17725D01*
X9576Y17723D01*
X9579Y17720D01*
X9581Y17719D01*
X9583Y17718D01*
X9587Y17716D01*
X9590Y17714D01*
X9592Y17714D01*
X9594Y17713D01*
X9606Y17711D01*
X9607Y17711D01*
X9608Y17711D01*
X11685Y17711D01*
X11687Y17711D01*
X11689Y17711D01*
X11693Y17712D01*
X11697Y17712D01*
X11699Y17713D01*
X11701Y17714D01*
X11705Y17715D01*
X11709Y17717D01*
X11711Y17718D01*
X11712Y17719D01*
X11716Y17722D01*
X11719Y17724D01*
X11720Y17726D01*
X11722Y17727D01*
X11724Y17731D01*
X11727Y17734D01*
X11728Y17736D01*
X11729Y17738D01*
X11730Y17741D01*
X11732Y17745D01*
X11732Y17747D01*
X11733Y17749D01*
X11733Y17753D01*
X11734Y17757D01*
X11734Y17760D01*
X11734Y17762D01*
X11734Y17764D01*
X11733Y17770D01*
X11731Y17776D01*
X11730Y17779D01*
X11679Y17902D01*
X11679Y18098D01*
X11754Y18278D01*
X11892Y18416D01*
X12072Y18491D01*
X12260Y18491D01*
X12265Y18491D01*
X12270Y18492D01*
X12271Y18492D01*
X12272Y18492D01*
X12277Y18494D01*
X12282Y18496D01*
X12283Y18496D01*
X12284Y18497D01*
X12288Y18500D01*
X12292Y18503D01*
X12293Y18504D01*
X12294Y18504D01*
X12297Y18508D01*
X12300Y18512D01*
X12301Y18513D01*
X12302Y18514D01*
X12304Y18518D01*
X12306Y18523D01*
X12306Y18524D01*
X12307Y18525D01*
X12309Y18537D01*
X12309Y18539D01*
X12309Y18540D01*
X12309Y20538D01*
X12338Y20608D01*
X12403Y20673D01*
X12406Y20676D01*
X12409Y20680D01*
X12410Y20681D01*
X12410Y20682D01*
X12412Y20687D01*
X12415Y20691D01*
X12415Y20693D01*
X12415Y20694D01*
X12416Y20699D01*
X12417Y20703D01*
X12417Y20705D01*
X12417Y20706D01*
X12417Y20711D01*
X12416Y20716D01*
X12416Y20717D01*
X12416Y20718D01*
X12414Y20723D01*
X12413Y20728D01*
X12412Y20729D01*
X12412Y20730D01*
X12405Y20740D01*
X12403Y20741D01*
X12403Y20742D01*
X12383Y20762D01*
X12319Y20916D01*
X12319Y20931D01*
X12319Y20936D01*
X12318Y20942D01*
X12318Y20943D01*
X12316Y20948D01*
X12314Y20953D01*
X12313Y20954D01*
X12310Y20959D01*
X12307Y20964D01*
X12306Y20964D01*
X12301Y20968D01*
X12297Y20972D01*
X12296Y20972D01*
X12291Y20975D01*
X12286Y20977D01*
X12285Y20977D01*
X12285Y20978D01*
X12279Y20979D01*
X12274Y20980D01*
X12273Y20980D01*
X12267Y20979D01*
X12261Y20979D01*
X12260Y20979D01*
X12255Y20977D01*
X12250Y20975D01*
X12249Y20975D01*
X12248Y20975D01*
X12238Y20968D01*
X12236Y20966D01*
X12235Y20965D01*
X11108Y19838D01*
X11038Y19809D01*
X10528Y19809D01*
X10527Y19809D01*
X10525Y19809D01*
X10521Y19808D01*
X10516Y19808D01*
X10515Y19807D01*
X10513Y19807D01*
X10509Y19805D01*
X10504Y19803D01*
X10503Y19802D01*
X10502Y19802D01*
X10498Y19799D01*
X10494Y19796D01*
X10494Y19795D01*
X10492Y19794D01*
X10491Y19791D01*
X10487Y19786D01*
X10484Y19781D01*
X10483Y19779D01*
X10450Y19699D01*
X10301Y19550D01*
X10106Y19469D01*
X9894Y19469D01*
X9699Y19550D01*
X9550Y19699D01*
X9469Y19894D01*
X9469Y20106D01*
X9550Y20301D01*
X9699Y20450D01*
X9759Y20475D01*
X9760Y20475D01*
X9762Y20476D01*
X9766Y20478D01*
X9770Y20481D01*
X9771Y20482D01*
X9772Y20483D01*
X9775Y20486D01*
X9779Y20489D01*
X9779Y20491D01*
X9780Y20492D01*
X9783Y20496D01*
X9785Y20500D01*
X9785Y20502D01*
X9786Y20503D01*
X9787Y20505D01*
X9789Y20512D01*
X9789Y20518D01*
X9789Y20520D01*
X9789Y21393D01*
X9789Y21397D01*
X9789Y21402D01*
X9788Y21404D01*
X9788Y21406D01*
X9786Y21410D01*
X9785Y21413D01*
X9784Y21415D01*
X9783Y21417D01*
X9776Y21427D01*
X9775Y21428D01*
X8736Y22481D01*
X8735Y22482D01*
X8734Y22484D01*
X8730Y22486D01*
X8727Y22489D01*
X8725Y22490D01*
X8724Y22491D01*
X8719Y22492D01*
X8715Y22494D01*
X8713Y22494D01*
X8712Y22495D01*
X8707Y22495D01*
X8703Y22496D01*
X8701Y22496D01*
X8700Y22496D01*
X8697Y22495D01*
X8690Y22495D01*
X8685Y22493D01*
X8682Y22492D01*
X8627Y22469D01*
X8415Y22469D01*
X8220Y22550D01*
X8071Y22699D01*
X7990Y22894D01*
X7990Y23105D01*
X8071Y23300D01*
X8220Y23450D01*
X8415Y23531D01*
X8627Y23531D01*
X8822Y23450D01*
X8971Y23300D01*
X9052Y23105D01*
X9052Y22894D01*
X9026Y22831D01*
X9025Y22830D01*
X9025Y22829D01*
X9024Y22824D01*
X9022Y22819D01*
X9022Y22818D01*
X9022Y22817D01*
X9022Y22812D01*
X9022Y22807D01*
X9022Y22805D01*
X9022Y22804D01*
X9024Y22799D01*
X9025Y22795D01*
X9026Y22793D01*
X9026Y22792D01*
X9027Y22790D01*
X9031Y22784D01*
X9035Y22780D01*
X9036Y22778D01*
X10150Y21649D01*
X10150Y21648D01*
X10179Y21619D01*
X10195Y21580D01*
X10211Y21541D01*
X10211Y21499D01*
X10211Y20520D01*
X10211Y20519D01*
X10211Y20517D01*
X10212Y20512D01*
X10212Y20508D01*
X10213Y20506D01*
X10213Y20505D01*
X10215Y20501D01*
X10217Y20496D01*
X10218Y20495D01*
X10218Y20494D01*
X10221Y20490D01*
X10224Y20486D01*
X10225Y20485D01*
X10226Y20484D01*
X10229Y20483D01*
X10234Y20478D01*
X10239Y20476D01*
X10241Y20475D01*
X10301Y20450D01*
X10450Y20301D01*
X10483Y20221D01*
X10484Y20220D01*
X10484Y20218D01*
X10487Y20214D01*
X10489Y20210D01*
X10490Y20209D01*
X10491Y20208D01*
X10494Y20205D01*
X10498Y20201D01*
X10499Y20201D01*
X10500Y20200D01*
X10504Y20197D01*
X10508Y20195D01*
X10510Y20195D01*
X10511Y20194D01*
X10514Y20193D01*
X10520Y20191D01*
X10526Y20191D01*
X10528Y20191D01*
X10901Y20191D01*
X10905Y20191D01*
X10909Y20191D01*
X10911Y20192D01*
X10913Y20192D01*
X10917Y20194D01*
X10921Y20195D01*
X10922Y20196D01*
X10924Y20197D01*
X10934Y20204D01*
X10935Y20205D01*
X12403Y21673D01*
X12406Y21676D01*
X12409Y21680D01*
X12410Y21681D01*
X12410Y21682D01*
X12412Y21687D01*
X12415Y21691D01*
X12415Y21693D01*
X12415Y21694D01*
X12416Y21699D01*
X12417Y21703D01*
X12417Y21705D01*
X12417Y21706D01*
X12417Y21711D01*
X12416Y21716D01*
X12416Y21717D01*
X12416Y21718D01*
X12414Y21723D01*
X12413Y21728D01*
X12412Y21729D01*
X12412Y21730D01*
X12405Y21740D01*
X12403Y21741D01*
X12403Y21742D01*
X12383Y21762D01*
X12319Y21916D01*
X12319Y22084D01*
X12383Y22238D01*
X12502Y22357D01*
X12656Y22421D01*
X13344Y22421D01*
X13498Y22357D01*
X13617Y22238D01*
X13681Y22084D01*
X13681Y22069D01*
X13681Y22064D01*
X13682Y22058D01*
X13682Y22057D01*
X13684Y22052D01*
X13686Y22047D01*
X13687Y22046D01*
X13690Y22041D01*
X13693Y22036D01*
X13694Y22036D01*
X13699Y22032D01*
X13703Y22028D01*
X13704Y22028D01*
X13709Y22025D01*
X13714Y22023D01*
X13715Y22023D01*
X13715Y22022D01*
X13721Y22021D01*
X13726Y22020D01*
X13727Y22020D01*
X13733Y22021D01*
X13739Y22021D01*
X13740Y22021D01*
X13745Y22023D01*
X13750Y22025D01*
X13751Y22025D01*
X13752Y22025D01*
X13762Y22032D01*
X13764Y22034D01*
X13765Y22035D01*
X13794Y22064D01*
X13795Y22065D01*
X13796Y22065D01*
X13797Y22067D01*
X13802Y22074D01*
X13804Y22078D01*
X13805Y22080D01*
X13821Y22119D01*
X13881Y22179D01*
X13958Y22211D01*
X17209Y22211D01*
X17210Y22211D01*
X17212Y22211D01*
X17216Y22212D01*
X17221Y22212D01*
X17223Y22213D01*
X17224Y22213D01*
X17228Y22215D01*
X17233Y22217D01*
X17234Y22218D01*
X17235Y22218D01*
X17239Y22221D01*
X17243Y22224D01*
X17244Y22225D01*
X17245Y22226D01*
X17246Y22229D01*
X17251Y22234D01*
X17253Y22239D01*
X17254Y22241D01*
X17268Y22274D01*
X17404Y22410D01*
X17512Y22454D01*
X17517Y22457D01*
X17522Y22460D01*
X17523Y22461D01*
X17527Y22465D01*
X17531Y22468D01*
X17531Y22469D01*
X17532Y22469D01*
X17535Y22474D01*
X17538Y22479D01*
X17538Y22480D01*
X17540Y22485D01*
X17541Y22491D01*
X17542Y22491D01*
X17542Y22492D01*
X17542Y22497D01*
X17542Y22503D01*
X17542Y22504D01*
X17541Y22510D01*
X17540Y22515D01*
X17540Y22516D01*
X17537Y22521D01*
X17535Y22526D01*
X17534Y22527D01*
X17534Y22528D01*
X17530Y22532D01*
X17527Y22536D01*
X17526Y22536D01*
X17526Y22537D01*
X17515Y22544D01*
X17513Y22545D01*
X17512Y22545D01*
X17404Y22590D01*
X17268Y22726D01*
X17194Y22904D01*
X17194Y23096D01*
X17268Y23274D01*
X17313Y23319D01*
X17316Y23323D01*
X17319Y23327D01*
X17320Y23328D01*
X17321Y23329D01*
X17323Y23333D01*
X17325Y23338D01*
X17325Y23339D01*
X17326Y23340D01*
X17326Y23345D01*
X17327Y23350D01*
X17327Y23351D01*
X17328Y23353D01*
X17327Y23358D01*
X17327Y23362D01*
X17326Y23364D01*
X17326Y23365D01*
X17325Y23370D01*
X17323Y23374D01*
X17323Y23375D01*
X17322Y23377D01*
X17315Y23387D01*
X17314Y23388D01*
X17313Y23389D01*
X16927Y23775D01*
X16924Y23777D01*
X16921Y23780D01*
X16919Y23781D01*
X16917Y23782D01*
X16913Y23784D01*
X16910Y23786D01*
X16908Y23786D01*
X16906Y23787D01*
X16894Y23789D01*
X16893Y23789D01*
X16892Y23789D01*
X6608Y23789D01*
X6603Y23789D01*
X6599Y23789D01*
X6597Y23788D01*
X6595Y23788D01*
X6591Y23786D01*
X6587Y23785D01*
X6586Y23784D01*
X6584Y23783D01*
X6574Y23776D01*
X6573Y23775D01*
X5225Y22427D01*
X5223Y22424D01*
X5220Y22421D01*
X5219Y22419D01*
X5218Y22417D01*
X5216Y22413D01*
X5214Y22410D01*
X5214Y22408D01*
X5213Y22406D01*
X5211Y22394D01*
X5211Y22393D01*
X5211Y22392D01*
X5211Y19608D01*
X5211Y19603D01*
X5211Y19599D01*
X5212Y19597D01*
X5212Y19595D01*
X5214Y19591D01*
X5215Y19587D01*
X5216Y19586D01*
X5217Y19584D01*
X5224Y19574D01*
X5225Y19573D01*
X6573Y18225D01*
X6576Y18223D01*
X6579Y18220D01*
X6581Y18219D01*
X6583Y18218D01*
X6587Y18216D01*
X6590Y18214D01*
X6592Y18214D01*
X6594Y18213D01*
X6606Y18211D01*
X6607Y18211D01*
X6608Y18211D01*
X6693Y18211D01*
X6695Y18211D01*
X6696Y18211D01*
X6701Y18212D01*
X6706Y18212D01*
X6707Y18213D01*
X6708Y18213D01*
X6713Y18215D01*
X6717Y18217D01*
X6718Y18218D01*
X6720Y18218D01*
X6723Y18221D01*
X6727Y18224D01*
X6728Y18225D01*
X6729Y18226D01*
X6731Y18229D01*
X6735Y18234D01*
X6737Y18239D01*
X6739Y18241D01*
X6754Y18278D01*
X6892Y18416D01*
X7072Y18491D01*
X7928Y18491D01*
X8108Y18416D01*
X8246Y18278D01*
X8321Y18098D01*
X8321Y17902D01*
X8246Y17722D01*
X8108Y17584D01*
X7928Y17509D01*
X7072Y17509D01*
X6892Y17584D01*
X6754Y17722D01*
X6739Y17759D01*
X6738Y17760D01*
X6737Y17762D01*
X6735Y17766D01*
X6733Y17770D01*
X6731Y17771D01*
X6731Y17772D01*
X6727Y17775D01*
X6724Y17779D01*
X6723Y17779D01*
X6721Y17780D01*
X6717Y17783D01*
X6713Y17785D01*
X6712Y17785D01*
X6710Y17786D01*
X6708Y17787D01*
X6701Y17789D01*
X6696Y17789D01*
X6693Y17789D01*
X6458Y17789D01*
X6381Y17821D01*
X4955Y19247D01*
X4950Y19251D01*
X4946Y19254D01*
X4945Y19255D01*
X4940Y19257D01*
X4935Y19259D01*
X4934Y19259D01*
X4934Y19260D01*
X4928Y19260D01*
X4923Y19261D01*
X4922Y19261D01*
X4921Y19262D01*
X4916Y19261D01*
X4910Y19261D01*
X4910Y19260D01*
X4909Y19260D01*
X4904Y19258D01*
X4898Y19257D01*
X4898Y19256D01*
X4897Y19256D01*
X4893Y19253D01*
X4888Y19250D01*
X4888Y19249D01*
X4887Y19249D01*
X4883Y19245D01*
X4880Y19241D01*
X4879Y19240D01*
X4879Y19239D01*
X4876Y19234D01*
X4874Y19230D01*
X4874Y19229D01*
X4873Y19228D01*
X4871Y19216D01*
X4871Y19214D01*
X4871Y19212D01*
X4871Y16448D01*
X4871Y16443D01*
X4871Y16439D01*
X4872Y16437D01*
X4872Y16435D01*
X4874Y16431D01*
X4875Y16427D01*
X4876Y16426D01*
X4877Y16424D01*
X4884Y16414D01*
X4885Y16413D01*
X8123Y13175D01*
X8126Y13173D01*
X8129Y13170D01*
X8131Y13169D01*
X8133Y13168D01*
X8137Y13166D01*
X8140Y13164D01*
X8142Y13164D01*
X8144Y13163D01*
X8156Y13161D01*
X8157Y13161D01*
X8158Y13161D01*
X8385Y13161D01*
X8391Y13161D01*
X8396Y13162D01*
X8397Y13162D01*
X8403Y13164D01*
X8408Y13166D01*
X8408Y13167D01*
X8409Y13167D01*
X8413Y13170D01*
X8418Y13173D01*
X8418Y13174D01*
X8419Y13174D01*
X8423Y13179D01*
X8426Y13183D01*
X8427Y13184D01*
X8429Y13189D01*
X8432Y13194D01*
X8432Y13195D01*
X8433Y13201D01*
X8434Y13206D01*
X8434Y13207D01*
X8434Y13213D01*
X8434Y13219D01*
X8433Y13219D01*
X8433Y13220D01*
X8432Y13225D01*
X8430Y13230D01*
X8430Y13231D01*
X8429Y13232D01*
X8423Y13242D01*
X8421Y13244D01*
X8420Y13245D01*
X8279Y13386D01*
X8147Y13614D01*
X8079Y13868D01*
X8079Y14132D01*
X8147Y14386D01*
X8279Y14614D01*
X8466Y14801D01*
X8694Y14933D01*
X8948Y15001D01*
X9212Y15001D01*
X9466Y14933D01*
X9694Y14801D01*
X9881Y14614D01*
X10013Y14386D01*
X10081Y14132D01*
X10081Y13868D01*
X10079Y13863D01*
X10079Y13858D01*
X10078Y13853D01*
X10078Y13852D01*
X10078Y13850D01*
X10078Y13845D01*
X10079Y13840D01*
X10079Y13839D01*
X10079Y13838D01*
X10081Y13833D01*
X10083Y13828D01*
X10084Y13827D01*
X10087Y13822D01*
X10089Y13818D01*
X10090Y13817D01*
X10091Y13816D01*
X10095Y13813D01*
X10099Y13810D01*
X10100Y13809D01*
X10100Y13808D01*
X10105Y13806D01*
X10110Y13804D01*
X10112Y13803D01*
X10124Y13801D01*
X10126Y13801D01*
X10127Y13801D01*
X12060Y13801D01*
X12062Y13801D01*
X12064Y13801D01*
X12068Y13802D01*
X12072Y13802D01*
X12074Y13803D01*
X12077Y13804D01*
X12080Y13805D01*
X12084Y13807D01*
X12086Y13808D01*
X12088Y13809D01*
X12091Y13812D01*
X12094Y13814D01*
X12095Y13816D01*
X12097Y13817D01*
X12099Y13821D01*
X12102Y13824D01*
X12103Y13826D01*
X12104Y13828D01*
X12105Y13831D01*
X12107Y13835D01*
X12107Y13837D01*
X12108Y13839D01*
X12109Y13843D01*
X12109Y13847D01*
X12109Y13850D01*
X12109Y13852D01*
X12109Y13854D01*
X12108Y13860D01*
X12106Y13866D01*
X12106Y13869D01*
X12089Y13908D01*
X12089Y14092D01*
X12159Y14261D01*
X12289Y14391D01*
X12458Y14461D01*
X12642Y14461D01*
X12811Y14391D01*
X12941Y14261D01*
X12954Y14227D01*
X12957Y14223D01*
X12960Y14218D01*
X12960Y14217D01*
X12961Y14217D01*
X12965Y14213D01*
X12968Y14209D01*
X12969Y14208D01*
X12974Y14205D01*
X12979Y14202D01*
X12980Y14201D01*
X12985Y14200D01*
X12991Y14198D01*
X12992Y14198D01*
X12997Y14198D01*
X13003Y14197D01*
X13004Y14197D01*
X13010Y14198D01*
X13015Y14199D01*
X13016Y14200D01*
X13021Y14202D01*
X13026Y14205D01*
X13027Y14205D01*
X13028Y14205D01*
X13032Y14209D01*
X13036Y14213D01*
X13037Y14214D01*
X13044Y14224D01*
X13045Y14226D01*
X13046Y14227D01*
X13059Y14261D01*
X13189Y14391D01*
X13358Y14461D01*
X13542Y14461D01*
X13711Y14391D01*
X13841Y14261D01*
X13854Y14227D01*
X13857Y14223D01*
X13860Y14218D01*
X13860Y14217D01*
X13861Y14217D01*
X13865Y14213D01*
X13868Y14209D01*
X13869Y14208D01*
X13874Y14205D01*
X13879Y14202D01*
X13880Y14201D01*
X13885Y14200D01*
X13891Y14198D01*
X13892Y14198D01*
X13897Y14198D01*
X13903Y14197D01*
X13904Y14197D01*
X13910Y14198D01*
X13915Y14199D01*
X13916Y14200D01*
X13921Y14202D01*
X13926Y14205D01*
X13927Y14205D01*
X13928Y14205D01*
X13932Y14209D01*
X13936Y14213D01*
X13937Y14214D01*
X13944Y14224D01*
X13945Y14226D01*
X13946Y14227D01*
X13959Y14261D01*
X14089Y14391D01*
X14258Y14461D01*
X14442Y14461D01*
X14611Y14391D01*
X14741Y14261D01*
X14754Y14227D01*
X14757Y14223D01*
X14760Y14218D01*
X14760Y14217D01*
X14761Y14217D01*
X14765Y14213D01*
X14768Y14209D01*
X14769Y14208D01*
X14774Y14205D01*
X14779Y14202D01*
X14780Y14201D01*
X14785Y14200D01*
X14791Y14198D01*
X14792Y14198D01*
X14797Y14198D01*
X14803Y14197D01*
X14804Y14197D01*
X14810Y14198D01*
X14815Y14199D01*
X14816Y14200D01*
X14821Y14202D01*
X14826Y14205D01*
X14827Y14205D01*
X14828Y14205D01*
X14832Y14209D01*
X14836Y14213D01*
X14837Y14214D01*
X14844Y14224D01*
X14845Y14226D01*
X14846Y14227D01*
X14859Y14261D01*
X14989Y14391D01*
X15158Y14461D01*
X15342Y14461D01*
X15511Y14391D01*
X15641Y14261D01*
X15654Y14227D01*
X15657Y14223D01*
X15660Y14218D01*
X15660Y14217D01*
X15661Y14217D01*
X15665Y14213D01*
X15668Y14209D01*
X15669Y14208D01*
X15674Y14205D01*
X15679Y14202D01*
X15680Y14201D01*
X15685Y14200D01*
X15691Y14198D01*
X15692Y14198D01*
X15697Y14198D01*
X15703Y14197D01*
X15704Y14197D01*
X15710Y14198D01*
X15715Y14199D01*
X15716Y14200D01*
X15721Y14202D01*
X15726Y14205D01*
X15727Y14205D01*
X15728Y14205D01*
X15732Y14209D01*
X15736Y14213D01*
X15737Y14214D01*
X15744Y14224D01*
X15745Y14226D01*
X15746Y14227D01*
X15759Y14261D01*
X15889Y14391D01*
X16058Y14461D01*
X16242Y14461D01*
X16411Y14391D01*
X16541Y14261D01*
X16611Y14092D01*
X16611Y13908D01*
X16541Y13739D01*
X16411Y13609D01*
X16242Y13539D01*
X16058Y13539D01*
X15889Y13609D01*
X15759Y13739D01*
X15746Y13773D01*
X15743Y13777D01*
X15740Y13782D01*
X15740Y13783D01*
X15739Y13783D01*
X15735Y13787D01*
X15732Y13791D01*
X15731Y13792D01*
X15726Y13795D01*
X15721Y13798D01*
X15720Y13799D01*
X15715Y13800D01*
X15709Y13802D01*
X15708Y13802D01*
X15703Y13802D01*
X15697Y13803D01*
X15696Y13803D01*
X15690Y13802D01*
X15685Y13801D01*
X15684Y13800D01*
X15679Y13798D01*
X15674Y13795D01*
X15673Y13795D01*
X15672Y13795D01*
X15668Y13791D01*
X15664Y13787D01*
X15663Y13786D01*
X15656Y13776D01*
X15655Y13774D01*
X15654Y13773D01*
X15641Y13739D01*
X15511Y13609D01*
X15342Y13539D01*
X15158Y13539D01*
X14989Y13609D01*
X14948Y13650D01*
X14944Y13653D01*
X14940Y13657D01*
X14939Y13657D01*
X14938Y13658D01*
X14934Y13660D01*
X14929Y13662D01*
X14928Y13662D01*
X14927Y13663D01*
X14922Y13664D01*
X14917Y13665D01*
X14916Y13665D01*
X14914Y13665D01*
X14910Y13664D01*
X14905Y13664D01*
X14903Y13664D01*
X14902Y13664D01*
X14897Y13662D01*
X14893Y13660D01*
X14892Y13660D01*
X14890Y13659D01*
X14880Y13652D01*
X14879Y13651D01*
X14878Y13650D01*
X14773Y13545D01*
X14769Y13540D01*
X14766Y13536D01*
X14765Y13536D01*
X14765Y13535D01*
X14763Y13530D01*
X14761Y13525D01*
X14760Y13524D01*
X14759Y13518D01*
X14758Y13513D01*
X14758Y13512D01*
X14758Y13511D01*
X14759Y13506D01*
X14759Y13500D01*
X14760Y13499D01*
X14761Y13494D01*
X14763Y13488D01*
X14764Y13488D01*
X14764Y13487D01*
X14767Y13483D01*
X14770Y13478D01*
X14771Y13478D01*
X14771Y13477D01*
X14775Y13473D01*
X14779Y13470D01*
X14780Y13469D01*
X14785Y13466D01*
X14790Y13464D01*
X14791Y13464D01*
X14791Y13463D01*
X14804Y13461D01*
X14806Y13461D01*
X14808Y13461D01*
X14892Y13461D01*
X15061Y13391D01*
X15191Y13261D01*
X15204Y13227D01*
X15207Y13223D01*
X15210Y13218D01*
X15210Y13217D01*
X15211Y13217D01*
X15215Y13213D01*
X15218Y13209D01*
X15219Y13208D01*
X15224Y13205D01*
X15229Y13202D01*
X15230Y13201D01*
X15235Y13200D01*
X15241Y13198D01*
X15242Y13198D01*
X15247Y13198D01*
X15253Y13197D01*
X15254Y13197D01*
X15260Y13198D01*
X15265Y13199D01*
X15266Y13200D01*
X15271Y13202D01*
X15276Y13205D01*
X15277Y13205D01*
X15278Y13205D01*
X15282Y13209D01*
X15286Y13213D01*
X15287Y13214D01*
X15294Y13224D01*
X15295Y13226D01*
X15296Y13227D01*
X15309Y13261D01*
X15439Y13391D01*
X15608Y13461D01*
X15792Y13461D01*
X15961Y13391D01*
X16091Y13261D01*
X16161Y13092D01*
X16161Y12908D01*
X16091Y12739D01*
X15961Y12609D01*
X15792Y12539D01*
X15608Y12539D01*
X15439Y12609D01*
X15309Y12739D01*
X15296Y12773D01*
X15293Y12777D01*
X15290Y12782D01*
X15290Y12783D01*
X15289Y12783D01*
X15285Y12787D01*
X15282Y12791D01*
X15281Y12792D01*
X15276Y12795D01*
X15271Y12798D01*
X15270Y12799D01*
X15265Y12800D01*
X15259Y12802D01*
X15258Y12802D01*
X15253Y12802D01*
X15247Y12803D01*
X15246Y12803D01*
X15240Y12802D01*
X15235Y12801D01*
X15234Y12800D01*
X15229Y12798D01*
X15224Y12795D01*
X15223Y12795D01*
X15222Y12795D01*
X15218Y12791D01*
X15214Y12787D01*
X15213Y12786D01*
X15206Y12776D01*
X15205Y12774D01*
X15204Y12773D01*
X15191Y12739D01*
X15061Y12609D01*
X14892Y12539D01*
X14708Y12539D01*
X14539Y12609D01*
X14409Y12739D01*
X14396Y12773D01*
X14393Y12777D01*
X14390Y12782D01*
X14390Y12783D01*
X14389Y12783D01*
X14385Y12787D01*
X14382Y12791D01*
X14381Y12792D01*
X14376Y12795D01*
X14371Y12798D01*
X14370Y12799D01*
X14365Y12800D01*
X14359Y12802D01*
X14358Y12802D01*
X14353Y12802D01*
X14347Y12803D01*
X14346Y12803D01*
X14340Y12802D01*
X14335Y12801D01*
X14334Y12800D01*
X14329Y12798D01*
X14324Y12795D01*
X14323Y12795D01*
X14322Y12795D01*
X14318Y12791D01*
X14314Y12787D01*
X14313Y12786D01*
X14306Y12776D01*
X14305Y12774D01*
X14304Y12773D01*
X14291Y12739D01*
X14161Y12609D01*
X13992Y12539D01*
X13808Y12539D01*
X13639Y12609D01*
X13509Y12739D01*
X13496Y12773D01*
X13493Y12777D01*
X13490Y12782D01*
X13490Y12783D01*
X13489Y12783D01*
X13485Y12787D01*
X13482Y12791D01*
X13481Y12792D01*
X13476Y12795D01*
X13471Y12798D01*
X13470Y12799D01*
X13465Y12800D01*
X13459Y12802D01*
X13458Y12802D01*
X13453Y12802D01*
X13447Y12803D01*
X13446Y12803D01*
X13440Y12802D01*
X13435Y12801D01*
X13434Y12800D01*
X13429Y12798D01*
X13424Y12795D01*
X13423Y12795D01*
X13422Y12795D01*
X13418Y12791D01*
X13414Y12787D01*
X13413Y12786D01*
X13406Y12776D01*
X13405Y12774D01*
X13404Y12773D01*
X13391Y12739D01*
X13261Y12609D01*
X13092Y12539D01*
X12908Y12539D01*
G37*
%LPD*%
%LPC*%
G36*
X8904Y24694D02*
X8904Y24694D01*
X8726Y24768D01*
X8590Y24904D01*
X8517Y25081D01*
X8517Y25919D01*
X8590Y26096D01*
X8726Y26232D01*
X8904Y26306D01*
X9096Y26306D01*
X9274Y26232D01*
X9410Y26096D01*
X9454Y25988D01*
X9457Y25983D01*
X9460Y25978D01*
X9461Y25977D01*
X9465Y25973D01*
X9468Y25969D01*
X9469Y25969D01*
X9469Y25968D01*
X9474Y25965D01*
X9479Y25962D01*
X9480Y25962D01*
X9485Y25960D01*
X9491Y25959D01*
X9491Y25958D01*
X9492Y25958D01*
X9497Y25958D01*
X9503Y25958D01*
X9504Y25958D01*
X9510Y25959D01*
X9515Y25960D01*
X9516Y25960D01*
X9521Y25963D01*
X9526Y25965D01*
X9527Y25966D01*
X9528Y25966D01*
X9532Y25970D01*
X9536Y25973D01*
X9536Y25974D01*
X9537Y25974D01*
X9544Y25985D01*
X9545Y25987D01*
X9546Y25988D01*
X9590Y26096D01*
X9726Y26232D01*
X9904Y26306D01*
X10096Y26306D01*
X10274Y26232D01*
X10410Y26096D01*
X10454Y25988D01*
X10457Y25983D01*
X10460Y25978D01*
X10461Y25977D01*
X10465Y25973D01*
X10468Y25969D01*
X10469Y25969D01*
X10469Y25968D01*
X10474Y25965D01*
X10479Y25962D01*
X10480Y25962D01*
X10485Y25960D01*
X10491Y25959D01*
X10491Y25958D01*
X10492Y25958D01*
X10497Y25958D01*
X10503Y25958D01*
X10504Y25958D01*
X10510Y25959D01*
X10515Y25960D01*
X10516Y25960D01*
X10521Y25963D01*
X10526Y25965D01*
X10527Y25966D01*
X10528Y25966D01*
X10532Y25970D01*
X10536Y25973D01*
X10536Y25974D01*
X10537Y25974D01*
X10544Y25985D01*
X10545Y25987D01*
X10545Y25988D01*
X10590Y26096D01*
X10726Y26232D01*
X10904Y26306D01*
X11096Y26306D01*
X11274Y26232D01*
X11410Y26096D01*
X11454Y25988D01*
X11457Y25983D01*
X11460Y25978D01*
X11461Y25977D01*
X11465Y25973D01*
X11468Y25969D01*
X11469Y25969D01*
X11469Y25968D01*
X11474Y25965D01*
X11479Y25962D01*
X11480Y25962D01*
X11485Y25960D01*
X11491Y25959D01*
X11491Y25958D01*
X11492Y25958D01*
X11497Y25958D01*
X11503Y25958D01*
X11504Y25958D01*
X11510Y25959D01*
X11515Y25960D01*
X11516Y25960D01*
X11521Y25963D01*
X11526Y25965D01*
X11527Y25966D01*
X11528Y25966D01*
X11532Y25970D01*
X11536Y25973D01*
X11536Y25974D01*
X11537Y25974D01*
X11544Y25985D01*
X11545Y25987D01*
X11545Y25988D01*
X11590Y26096D01*
X11726Y26232D01*
X11904Y26306D01*
X12096Y26306D01*
X12274Y26232D01*
X12410Y26096D01*
X12483Y25919D01*
X12483Y25891D01*
X12484Y25889D01*
X12483Y25887D01*
X12484Y25883D01*
X12485Y25879D01*
X12486Y25877D01*
X12486Y25874D01*
X12488Y25871D01*
X12489Y25867D01*
X12491Y25865D01*
X12492Y25863D01*
X12494Y25860D01*
X12497Y25857D01*
X12499Y25856D01*
X12500Y25854D01*
X12503Y25852D01*
X12506Y25849D01*
X12509Y25848D01*
X12511Y25847D01*
X12514Y25846D01*
X12518Y25844D01*
X12520Y25844D01*
X12522Y25843D01*
X12526Y25843D01*
X12530Y25842D01*
X12532Y25842D01*
X12535Y25842D01*
X12538Y25843D01*
X12542Y25843D01*
X12545Y25844D01*
X12547Y25844D01*
X12550Y25846D01*
X12554Y25847D01*
X12556Y25848D01*
X12558Y25849D01*
X12561Y25852D01*
X12564Y25854D01*
X12566Y25856D01*
X12568Y25857D01*
X12570Y25860D01*
X12573Y25863D01*
X12574Y25865D01*
X12575Y25867D01*
X12576Y25869D01*
X12579Y25874D01*
X12580Y25879D01*
X12581Y25884D01*
X12587Y25922D01*
X12608Y25985D01*
X12638Y26044D01*
X12677Y26098D01*
X12724Y26145D01*
X12778Y26184D01*
X12838Y26215D01*
X12901Y26235D01*
X12901Y25550D01*
X12901Y25545D01*
X12902Y25540D01*
X12902Y25539D01*
X12902Y25538D01*
X12904Y25533D01*
X12906Y25528D01*
X12906Y25527D01*
X12907Y25526D01*
X12910Y25522D01*
X12913Y25518D01*
X12914Y25517D01*
X12914Y25516D01*
X12918Y25513D01*
X12922Y25510D01*
X12923Y25509D01*
X12924Y25508D01*
X12928Y25506D01*
X12933Y25504D01*
X12934Y25504D01*
X12935Y25503D01*
X12947Y25501D01*
X12949Y25501D01*
X12950Y25501D01*
X13001Y25501D01*
X13001Y25499D01*
X12950Y25499D01*
X12945Y25499D01*
X12940Y25498D01*
X12939Y25498D01*
X12938Y25498D01*
X12933Y25496D01*
X12928Y25494D01*
X12927Y25494D01*
X12926Y25493D01*
X12922Y25490D01*
X12918Y25487D01*
X12917Y25486D01*
X12916Y25486D01*
X12913Y25482D01*
X12910Y25478D01*
X12909Y25477D01*
X12908Y25476D01*
X12906Y25472D01*
X12904Y25467D01*
X12904Y25466D01*
X12903Y25465D01*
X12901Y25453D01*
X12901Y25451D01*
X12901Y25450D01*
X12901Y24765D01*
X12838Y24785D01*
X12778Y24816D01*
X12724Y24855D01*
X12677Y24902D01*
X12638Y24956D01*
X12608Y25015D01*
X12587Y25078D01*
X12581Y25116D01*
X12580Y25119D01*
X12580Y25121D01*
X12579Y25125D01*
X12578Y25128D01*
X12576Y25130D01*
X12576Y25133D01*
X12573Y25136D01*
X12571Y25139D01*
X12570Y25141D01*
X12568Y25143D01*
X12565Y25145D01*
X12562Y25148D01*
X12560Y25149D01*
X12559Y25151D01*
X12555Y25152D01*
X12552Y25154D01*
X12549Y25155D01*
X12547Y25156D01*
X12544Y25156D01*
X12540Y25157D01*
X12537Y25158D01*
X12535Y25158D01*
X12531Y25158D01*
X12527Y25158D01*
X12525Y25157D01*
X12523Y25157D01*
X12519Y25156D01*
X12515Y25155D01*
X12513Y25154D01*
X12511Y25153D01*
X12508Y25151D01*
X12504Y25149D01*
X12503Y25148D01*
X12501Y25146D01*
X12498Y25143D01*
X12495Y25141D01*
X12494Y25139D01*
X12492Y25137D01*
X12490Y25134D01*
X12488Y25130D01*
X12487Y25128D01*
X12486Y25126D01*
X12486Y25124D01*
X12484Y25119D01*
X12484Y25114D01*
X12483Y25109D01*
X12483Y25081D01*
X12410Y24904D01*
X12274Y24768D01*
X12096Y24694D01*
X11904Y24694D01*
X11726Y24768D01*
X11590Y24904D01*
X11545Y25012D01*
X11543Y25017D01*
X11540Y25022D01*
X11539Y25023D01*
X11535Y25027D01*
X11532Y25031D01*
X11531Y25031D01*
X11531Y25032D01*
X11526Y25035D01*
X11521Y25038D01*
X11520Y25038D01*
X11515Y25040D01*
X11509Y25041D01*
X11509Y25042D01*
X11508Y25042D01*
X11503Y25042D01*
X11497Y25042D01*
X11496Y25042D01*
X11490Y25041D01*
X11485Y25040D01*
X11484Y25040D01*
X11479Y25037D01*
X11474Y25035D01*
X11473Y25034D01*
X11472Y25034D01*
X11468Y25030D01*
X11464Y25027D01*
X11464Y25026D01*
X11463Y25026D01*
X11456Y25015D01*
X11455Y25013D01*
X11454Y25012D01*
X11410Y24904D01*
X11274Y24768D01*
X11096Y24694D01*
X10904Y24694D01*
X10726Y24768D01*
X10590Y24904D01*
X10545Y25012D01*
X10543Y25017D01*
X10540Y25022D01*
X10539Y25023D01*
X10535Y25027D01*
X10532Y25031D01*
X10531Y25031D01*
X10531Y25032D01*
X10526Y25035D01*
X10521Y25038D01*
X10520Y25038D01*
X10515Y25040D01*
X10509Y25041D01*
X10509Y25042D01*
X10508Y25042D01*
X10503Y25042D01*
X10497Y25042D01*
X10496Y25042D01*
X10490Y25041D01*
X10485Y25040D01*
X10484Y25040D01*
X10479Y25037D01*
X10474Y25035D01*
X10473Y25034D01*
X10472Y25034D01*
X10468Y25030D01*
X10464Y25027D01*
X10464Y25026D01*
X10463Y25026D01*
X10456Y25015D01*
X10455Y25013D01*
X10454Y25012D01*
X10410Y24904D01*
X10274Y24768D01*
X10096Y24694D01*
X9904Y24694D01*
X9726Y24768D01*
X9590Y24904D01*
X9546Y25012D01*
X9543Y25017D01*
X9540Y25022D01*
X9539Y25023D01*
X9535Y25027D01*
X9532Y25031D01*
X9531Y25031D01*
X9531Y25032D01*
X9526Y25035D01*
X9521Y25038D01*
X9520Y25038D01*
X9515Y25040D01*
X9509Y25041D01*
X9509Y25042D01*
X9508Y25042D01*
X9503Y25042D01*
X9497Y25042D01*
X9496Y25042D01*
X9490Y25041D01*
X9485Y25040D01*
X9484Y25040D01*
X9479Y25037D01*
X9474Y25035D01*
X9473Y25034D01*
X9472Y25034D01*
X9468Y25030D01*
X9464Y25027D01*
X9464Y25026D01*
X9463Y25026D01*
X9456Y25015D01*
X9455Y25013D01*
X9454Y25012D01*
X9410Y24904D01*
X9274Y24768D01*
X9096Y24694D01*
X8904Y24694D01*
G37*
%LPD*%
%LPC*%
G36*
X16404Y24694D02*
X16404Y24694D01*
X16226Y24768D01*
X16090Y24904D01*
X16017Y25081D01*
X16017Y25919D01*
X16090Y26096D01*
X16226Y26232D01*
X16404Y26306D01*
X16596Y26306D01*
X16774Y26232D01*
X16910Y26096D01*
X16954Y25988D01*
X16957Y25983D01*
X16960Y25978D01*
X16961Y25977D01*
X16965Y25973D01*
X16968Y25969D01*
X16969Y25969D01*
X16969Y25968D01*
X16974Y25965D01*
X16979Y25962D01*
X16980Y25962D01*
X16985Y25960D01*
X16991Y25959D01*
X16991Y25958D01*
X16992Y25958D01*
X16997Y25958D01*
X17003Y25958D01*
X17004Y25958D01*
X17010Y25959D01*
X17015Y25960D01*
X17016Y25960D01*
X17021Y25963D01*
X17026Y25965D01*
X17027Y25966D01*
X17028Y25966D01*
X17032Y25970D01*
X17036Y25973D01*
X17036Y25974D01*
X17037Y25974D01*
X17044Y25985D01*
X17045Y25987D01*
X17046Y25988D01*
X17090Y26096D01*
X17226Y26232D01*
X17404Y26306D01*
X17596Y26306D01*
X17774Y26232D01*
X17910Y26096D01*
X17954Y25988D01*
X17957Y25983D01*
X17960Y25978D01*
X17961Y25977D01*
X17965Y25973D01*
X17968Y25969D01*
X17969Y25969D01*
X17969Y25968D01*
X17974Y25965D01*
X17979Y25962D01*
X17980Y25962D01*
X17985Y25960D01*
X17991Y25959D01*
X17991Y25958D01*
X17992Y25958D01*
X17997Y25958D01*
X18003Y25958D01*
X18004Y25958D01*
X18010Y25959D01*
X18015Y25960D01*
X18016Y25960D01*
X18021Y25963D01*
X18026Y25965D01*
X18027Y25966D01*
X18028Y25966D01*
X18032Y25970D01*
X18036Y25973D01*
X18036Y25974D01*
X18037Y25974D01*
X18044Y25985D01*
X18045Y25987D01*
X18045Y25988D01*
X18090Y26096D01*
X18226Y26232D01*
X18404Y26306D01*
X18596Y26306D01*
X18774Y26232D01*
X18910Y26096D01*
X18983Y25919D01*
X18983Y25081D01*
X18910Y24904D01*
X18774Y24768D01*
X18596Y24694D01*
X18404Y24694D01*
X18226Y24768D01*
X18090Y24904D01*
X18045Y25012D01*
X18043Y25017D01*
X18040Y25022D01*
X18039Y25023D01*
X18035Y25027D01*
X18032Y25031D01*
X18031Y25031D01*
X18031Y25032D01*
X18026Y25035D01*
X18021Y25038D01*
X18020Y25038D01*
X18015Y25040D01*
X18009Y25041D01*
X18009Y25042D01*
X18008Y25042D01*
X18003Y25042D01*
X17997Y25042D01*
X17996Y25042D01*
X17990Y25041D01*
X17985Y25040D01*
X17984Y25040D01*
X17979Y25037D01*
X17974Y25035D01*
X17973Y25034D01*
X17972Y25034D01*
X17968Y25030D01*
X17964Y25027D01*
X17964Y25026D01*
X17963Y25026D01*
X17956Y25015D01*
X17955Y25013D01*
X17954Y25012D01*
X17910Y24904D01*
X17774Y24768D01*
X17596Y24694D01*
X17404Y24694D01*
X17226Y24768D01*
X17090Y24904D01*
X17046Y25012D01*
X17043Y25017D01*
X17040Y25022D01*
X17039Y25023D01*
X17035Y25027D01*
X17032Y25031D01*
X17031Y25031D01*
X17031Y25032D01*
X17026Y25035D01*
X17021Y25038D01*
X17020Y25038D01*
X17015Y25040D01*
X17009Y25041D01*
X17009Y25042D01*
X17008Y25042D01*
X17003Y25042D01*
X16997Y25042D01*
X16996Y25042D01*
X16990Y25041D01*
X16985Y25040D01*
X16984Y25040D01*
X16979Y25037D01*
X16974Y25035D01*
X16973Y25034D01*
X16972Y25034D01*
X16968Y25030D01*
X16964Y25027D01*
X16964Y25026D01*
X16963Y25026D01*
X16956Y25015D01*
X16955Y25013D01*
X16954Y25012D01*
X16910Y24904D01*
X16774Y24768D01*
X16596Y24694D01*
X16404Y24694D01*
G37*
%LPD*%
%LPC*%
G36*
X17999Y17499D02*
X17999Y17499D01*
X17999Y17550D01*
X17999Y17555D01*
X17998Y17560D01*
X17998Y17561D01*
X17998Y17562D01*
X17996Y17567D01*
X17994Y17572D01*
X17994Y17573D01*
X17993Y17574D01*
X17990Y17578D01*
X17987Y17582D01*
X17986Y17583D01*
X17986Y17584D01*
X17982Y17587D01*
X17978Y17590D01*
X17977Y17591D01*
X17976Y17592D01*
X17972Y17594D01*
X17967Y17596D01*
X17966Y17596D01*
X17965Y17597D01*
X17953Y17599D01*
X17951Y17599D01*
X17950Y17599D01*
X17265Y17599D01*
X17285Y17662D01*
X17316Y17722D01*
X17355Y17776D01*
X17402Y17823D01*
X17456Y17862D01*
X17515Y17892D01*
X17578Y17913D01*
X17616Y17919D01*
X17619Y17920D01*
X17621Y17920D01*
X17625Y17921D01*
X17628Y17922D01*
X17630Y17924D01*
X17633Y17924D01*
X17636Y17927D01*
X17639Y17929D01*
X17641Y17930D01*
X17643Y17932D01*
X17645Y17935D01*
X17648Y17938D01*
X17649Y17940D01*
X17651Y17941D01*
X17652Y17945D01*
X17654Y17948D01*
X17655Y17951D01*
X17656Y17953D01*
X17656Y17956D01*
X17657Y17960D01*
X17658Y17963D01*
X17658Y17965D01*
X17658Y17969D01*
X17658Y17973D01*
X17657Y17975D01*
X17657Y17977D01*
X17656Y17981D01*
X17655Y17985D01*
X17654Y17987D01*
X17653Y17989D01*
X17651Y17992D01*
X17649Y17996D01*
X17648Y17997D01*
X17646Y17999D01*
X17643Y18002D01*
X17641Y18005D01*
X17639Y18006D01*
X17637Y18008D01*
X17634Y18010D01*
X17630Y18012D01*
X17628Y18013D01*
X17626Y18014D01*
X17624Y18014D01*
X17619Y18016D01*
X17614Y18016D01*
X17609Y18017D01*
X17581Y18017D01*
X17404Y18090D01*
X17268Y18226D01*
X17194Y18404D01*
X17194Y18596D01*
X17268Y18774D01*
X17313Y18819D01*
X17316Y18823D01*
X17319Y18827D01*
X17320Y18828D01*
X17321Y18829D01*
X17323Y18833D01*
X17325Y18838D01*
X17325Y18839D01*
X17326Y18840D01*
X17326Y18845D01*
X17327Y18850D01*
X17327Y18851D01*
X17328Y18853D01*
X17327Y18858D01*
X17327Y18862D01*
X17326Y18864D01*
X17326Y18865D01*
X17325Y18870D01*
X17323Y18874D01*
X17323Y18875D01*
X17322Y18877D01*
X17315Y18887D01*
X17314Y18888D01*
X17313Y18889D01*
X16927Y19275D01*
X16924Y19277D01*
X16921Y19280D01*
X16919Y19281D01*
X16917Y19282D01*
X16913Y19284D01*
X16910Y19286D01*
X16908Y19286D01*
X16906Y19287D01*
X16894Y19289D01*
X16893Y19289D01*
X16892Y19289D01*
X16520Y19289D01*
X16519Y19289D01*
X16517Y19289D01*
X16512Y19288D01*
X16508Y19288D01*
X16506Y19287D01*
X16505Y19287D01*
X16501Y19285D01*
X16496Y19283D01*
X16495Y19282D01*
X16494Y19282D01*
X16490Y19279D01*
X16486Y19276D01*
X16485Y19275D01*
X16484Y19274D01*
X16483Y19271D01*
X16478Y19266D01*
X16476Y19261D01*
X16475Y19259D01*
X16450Y19199D01*
X16301Y19050D01*
X16106Y18969D01*
X15894Y18969D01*
X15699Y19050D01*
X15550Y19199D01*
X15469Y19394D01*
X15469Y19606D01*
X15550Y19801D01*
X15699Y19950D01*
X15894Y20031D01*
X16106Y20031D01*
X16301Y19950D01*
X16450Y19801D01*
X16475Y19741D01*
X16475Y19740D01*
X16476Y19738D01*
X16478Y19734D01*
X16481Y19730D01*
X16482Y19729D01*
X16483Y19728D01*
X16486Y19725D01*
X16489Y19721D01*
X16491Y19721D01*
X16492Y19720D01*
X16496Y19717D01*
X16500Y19715D01*
X16502Y19715D01*
X16503Y19714D01*
X16505Y19713D01*
X16512Y19711D01*
X16518Y19711D01*
X16520Y19711D01*
X17042Y19711D01*
X17119Y19679D01*
X17800Y18998D01*
X17804Y18995D01*
X17807Y18992D01*
X17809Y18991D01*
X17810Y18990D01*
X17814Y18988D01*
X17818Y18986D01*
X17819Y18986D01*
X17822Y18985D01*
X17834Y18983D01*
X17835Y18983D01*
X18419Y18983D01*
X18596Y18910D01*
X18732Y18774D01*
X18806Y18596D01*
X18806Y18404D01*
X18732Y18226D01*
X18596Y18090D01*
X18419Y18017D01*
X18391Y18017D01*
X18389Y18016D01*
X18387Y18017D01*
X18383Y18016D01*
X18379Y18015D01*
X18377Y18014D01*
X18374Y18014D01*
X18371Y18012D01*
X18367Y18011D01*
X18365Y18009D01*
X18363Y18008D01*
X18360Y18006D01*
X18357Y18003D01*
X18356Y18001D01*
X18354Y18000D01*
X18352Y17997D01*
X18349Y17994D01*
X18348Y17991D01*
X18347Y17989D01*
X18346Y17986D01*
X18344Y17982D01*
X18344Y17980D01*
X18343Y17978D01*
X18343Y17974D01*
X18342Y17970D01*
X18342Y17968D01*
X18342Y17965D01*
X18343Y17962D01*
X18343Y17958D01*
X18344Y17955D01*
X18344Y17953D01*
X18346Y17950D01*
X18347Y17946D01*
X18348Y17944D01*
X18349Y17942D01*
X18352Y17939D01*
X18354Y17936D01*
X18356Y17934D01*
X18357Y17932D01*
X18360Y17930D01*
X18363Y17927D01*
X18365Y17926D01*
X18367Y17925D01*
X18369Y17924D01*
X18374Y17921D01*
X18379Y17920D01*
X18384Y17919D01*
X18422Y17913D01*
X18485Y17892D01*
X18544Y17862D01*
X18598Y17823D01*
X18645Y17776D01*
X18684Y17722D01*
X18715Y17662D01*
X18735Y17599D01*
X18050Y17599D01*
X18045Y17599D01*
X18040Y17598D01*
X18039Y17598D01*
X18038Y17598D01*
X18033Y17596D01*
X18028Y17594D01*
X18027Y17594D01*
X18026Y17593D01*
X18022Y17590D01*
X18018Y17587D01*
X18017Y17586D01*
X18016Y17586D01*
X18013Y17582D01*
X18010Y17578D01*
X18009Y17577D01*
X18008Y17576D01*
X18006Y17572D01*
X18004Y17567D01*
X18004Y17566D01*
X18003Y17565D01*
X18001Y17553D01*
X18001Y17552D01*
X18001Y17551D01*
X18001Y17550D01*
X18001Y17499D01*
X17999Y17499D01*
G37*
%LPD*%
%LPC*%
G36*
X18788Y12999D02*
X18788Y12999D01*
X18534Y13067D01*
X18306Y13199D01*
X18119Y13386D01*
X17987Y13614D01*
X17919Y13868D01*
X17919Y14132D01*
X17987Y14386D01*
X18119Y14614D01*
X18306Y14801D01*
X18534Y14933D01*
X18788Y15001D01*
X19052Y15001D01*
X19306Y14933D01*
X19534Y14801D01*
X19721Y14614D01*
X19853Y14386D01*
X19921Y14132D01*
X19921Y13868D01*
X19853Y13614D01*
X19721Y13386D01*
X19534Y13199D01*
X19306Y13067D01*
X19052Y12999D01*
X18788Y12999D01*
G37*
%LPD*%
%LPC*%
G36*
X8373Y19469D02*
X8373Y19469D01*
X8178Y19550D01*
X8029Y19700D01*
X7948Y19895D01*
X7948Y20106D01*
X8029Y20301D01*
X8178Y20450D01*
X8245Y20478D01*
X8246Y20478D01*
X8247Y20479D01*
X8252Y20481D01*
X8256Y20484D01*
X8257Y20485D01*
X8258Y20485D01*
X8261Y20489D01*
X8265Y20493D01*
X8265Y20494D01*
X8266Y20494D01*
X8269Y20499D01*
X8271Y20503D01*
X8272Y20504D01*
X8272Y20505D01*
X8273Y20508D01*
X8275Y20515D01*
X8275Y20520D01*
X8276Y20523D01*
X8288Y21393D01*
X8287Y21398D01*
X8287Y21402D01*
X8287Y21404D01*
X8286Y21405D01*
X8285Y21410D01*
X8283Y21414D01*
X8283Y21415D01*
X8282Y21417D01*
X8275Y21427D01*
X8274Y21428D01*
X8273Y21429D01*
X7219Y22483D01*
X7218Y22484D01*
X7217Y22485D01*
X7213Y22488D01*
X7209Y22491D01*
X7208Y22491D01*
X7206Y22492D01*
X7202Y22494D01*
X7197Y22496D01*
X7196Y22496D01*
X7195Y22496D01*
X7190Y22497D01*
X7185Y22498D01*
X7184Y22497D01*
X7182Y22498D01*
X7180Y22497D01*
X7173Y22496D01*
X7168Y22494D01*
X7165Y22494D01*
X7106Y22469D01*
X6894Y22469D01*
X6699Y22550D01*
X6550Y22699D01*
X6469Y22894D01*
X6469Y23106D01*
X6550Y23301D01*
X6699Y23450D01*
X6894Y23531D01*
X7106Y23531D01*
X7301Y23450D01*
X7450Y23301D01*
X7531Y23106D01*
X7531Y22894D01*
X7506Y22835D01*
X7506Y22833D01*
X7505Y22832D01*
X7504Y22827D01*
X7503Y22823D01*
X7503Y22821D01*
X7503Y22820D01*
X7503Y22815D01*
X7503Y22811D01*
X7503Y22809D01*
X7503Y22808D01*
X7505Y22803D01*
X7506Y22798D01*
X7506Y22797D01*
X7507Y22796D01*
X7508Y22794D01*
X7512Y22787D01*
X7515Y22783D01*
X7517Y22781D01*
X8614Y21684D01*
X8615Y21684D01*
X8616Y21683D01*
X8618Y21681D01*
X8650Y21648D01*
X8680Y21618D01*
X8695Y21580D01*
X8695Y21579D01*
X8711Y21541D01*
X8711Y21499D01*
X8711Y21498D01*
X8711Y21454D01*
X8711Y21453D01*
X8710Y21449D01*
X8710Y21447D01*
X8697Y20518D01*
X8697Y20516D01*
X8697Y20514D01*
X8698Y20510D01*
X8698Y20506D01*
X8699Y20504D01*
X8699Y20502D01*
X8701Y20498D01*
X8703Y20494D01*
X8704Y20492D01*
X8705Y20491D01*
X8708Y20487D01*
X8710Y20484D01*
X8712Y20483D01*
X8713Y20481D01*
X8715Y20480D01*
X8720Y20476D01*
X8725Y20473D01*
X8727Y20472D01*
X8780Y20450D01*
X8929Y20301D01*
X9010Y20106D01*
X9010Y19895D01*
X8929Y19700D01*
X8780Y19550D01*
X8585Y19469D01*
X8373Y19469D01*
G37*
%LPD*%
%LPC*%
G36*
X2996Y14166D02*
X2996Y14166D01*
X2792Y14250D01*
X2636Y14406D01*
X2552Y14610D01*
X2552Y14831D01*
X2636Y15035D01*
X2792Y15191D01*
X2996Y15275D01*
X4004Y15275D01*
X4208Y15191D01*
X4364Y15035D01*
X4448Y14831D01*
X4448Y14610D01*
X4364Y14406D01*
X4208Y14250D01*
X4004Y14166D01*
X2996Y14166D01*
G37*
%LPD*%
%LPC*%
G36*
X3081Y17017D02*
X3081Y17017D01*
X2904Y17090D01*
X2768Y17226D01*
X2694Y17404D01*
X2694Y17596D01*
X2768Y17774D01*
X2904Y17910D01*
X3081Y17983D01*
X3109Y17983D01*
X3111Y17984D01*
X3113Y17983D01*
X3117Y17984D01*
X3121Y17985D01*
X3123Y17986D01*
X3126Y17986D01*
X3129Y17988D01*
X3133Y17989D01*
X3135Y17991D01*
X3137Y17992D01*
X3140Y17994D01*
X3143Y17997D01*
X3144Y17999D01*
X3146Y18000D01*
X3148Y18003D01*
X3151Y18006D01*
X3152Y18009D01*
X3153Y18011D01*
X3154Y18014D01*
X3156Y18018D01*
X3156Y18020D01*
X3157Y18022D01*
X3157Y18026D01*
X3158Y18030D01*
X3158Y18032D01*
X3158Y18035D01*
X3157Y18038D01*
X3157Y18042D01*
X3156Y18045D01*
X3156Y18047D01*
X3154Y18050D01*
X3153Y18054D01*
X3152Y18056D01*
X3151Y18058D01*
X3148Y18061D01*
X3146Y18064D01*
X3144Y18066D01*
X3143Y18068D01*
X3140Y18070D01*
X3137Y18073D01*
X3135Y18074D01*
X3133Y18075D01*
X3131Y18076D01*
X3126Y18079D01*
X3121Y18080D01*
X3116Y18081D01*
X3078Y18087D01*
X3015Y18108D01*
X2956Y18138D01*
X2902Y18177D01*
X2855Y18224D01*
X2816Y18278D01*
X2785Y18338D01*
X2765Y18401D01*
X3450Y18401D01*
X3455Y18401D01*
X3460Y18402D01*
X3461Y18402D01*
X3462Y18402D01*
X3467Y18404D01*
X3472Y18406D01*
X3473Y18406D01*
X3474Y18407D01*
X3478Y18410D01*
X3482Y18413D01*
X3483Y18414D01*
X3484Y18414D01*
X3487Y18418D01*
X3490Y18422D01*
X3491Y18423D01*
X3492Y18424D01*
X3494Y18428D01*
X3496Y18433D01*
X3496Y18434D01*
X3497Y18435D01*
X3499Y18447D01*
X3499Y18449D01*
X3499Y18450D01*
X3499Y18501D01*
X3501Y18501D01*
X3501Y18450D01*
X3501Y18445D01*
X3502Y18440D01*
X3502Y18439D01*
X3502Y18438D01*
X3504Y18433D01*
X3506Y18428D01*
X3506Y18427D01*
X3507Y18426D01*
X3510Y18422D01*
X3513Y18418D01*
X3514Y18417D01*
X3514Y18416D01*
X3518Y18413D01*
X3522Y18410D01*
X3523Y18409D01*
X3524Y18408D01*
X3528Y18406D01*
X3533Y18404D01*
X3534Y18404D01*
X3535Y18403D01*
X3547Y18401D01*
X3549Y18401D01*
X3550Y18401D01*
X4235Y18401D01*
X4215Y18338D01*
X4184Y18278D01*
X4145Y18224D01*
X4098Y18177D01*
X4044Y18138D01*
X3985Y18108D01*
X3922Y18087D01*
X3884Y18081D01*
X3881Y18080D01*
X3879Y18080D01*
X3875Y18079D01*
X3872Y18078D01*
X3870Y18076D01*
X3867Y18076D01*
X3864Y18073D01*
X3861Y18071D01*
X3859Y18070D01*
X3857Y18068D01*
X3855Y18065D01*
X3852Y18062D01*
X3851Y18060D01*
X3849Y18059D01*
X3848Y18055D01*
X3846Y18052D01*
X3845Y18049D01*
X3844Y18047D01*
X3844Y18044D01*
X3843Y18040D01*
X3842Y18037D01*
X3842Y18035D01*
X3842Y18031D01*
X3842Y18027D01*
X3843Y18025D01*
X3843Y18023D01*
X3844Y18019D01*
X3845Y18015D01*
X3846Y18013D01*
X3847Y18011D01*
X3849Y18008D01*
X3851Y18004D01*
X3852Y18003D01*
X3854Y18001D01*
X3857Y17998D01*
X3859Y17995D01*
X3861Y17994D01*
X3863Y17992D01*
X3866Y17990D01*
X3870Y17988D01*
X3872Y17987D01*
X3874Y17986D01*
X3876Y17986D01*
X3881Y17984D01*
X3886Y17984D01*
X3891Y17983D01*
X3919Y17983D01*
X4096Y17910D01*
X4232Y17774D01*
X4306Y17596D01*
X4306Y17404D01*
X4232Y17226D01*
X4096Y17090D01*
X3919Y17017D01*
X3081Y17017D01*
G37*
%LPD*%
%LPC*%
G36*
X15894Y15969D02*
X15894Y15969D01*
X15699Y16050D01*
X15550Y16199D01*
X15469Y16394D01*
X15469Y16606D01*
X15550Y16801D01*
X15699Y16950D01*
X15894Y17031D01*
X16106Y17031D01*
X16301Y16950D01*
X16450Y16801D01*
X16531Y16606D01*
X16531Y16394D01*
X16450Y16199D01*
X16301Y16050D01*
X16106Y15969D01*
X15894Y15969D01*
G37*
%LPD*%
%LPC*%
G36*
X2621Y12417D02*
X2621Y12417D01*
X2624Y12435D01*
X2648Y12509D01*
X2683Y12578D01*
X2729Y12641D01*
X2784Y12696D01*
X2847Y12742D01*
X2916Y12777D01*
X2991Y12801D01*
X3067Y12813D01*
X3402Y12813D01*
X3402Y12417D01*
X2621Y12417D01*
G37*
%LPD*%
%LPC*%
G36*
X5487Y13598D02*
X5487Y13598D01*
X5487Y14379D01*
X5506Y14376D01*
X5580Y14352D01*
X5649Y14317D01*
X5712Y14271D01*
X5767Y14216D01*
X5813Y14153D01*
X5848Y14083D01*
X5872Y14009D01*
X5884Y13933D01*
X5884Y13598D01*
X5487Y13598D01*
G37*
%LPD*%
%LPC*%
G36*
X5487Y13402D02*
X5487Y13402D01*
X5884Y13402D01*
X5884Y13067D01*
X5872Y12991D01*
X5848Y12916D01*
X5813Y12847D01*
X5767Y12784D01*
X5712Y12729D01*
X5649Y12683D01*
X5580Y12648D01*
X5506Y12624D01*
X5487Y12621D01*
X5487Y13402D01*
G37*
%LPD*%
%LPC*%
G36*
X3598Y12417D02*
X3598Y12417D01*
X3598Y12813D01*
X3933Y12813D01*
X4009Y12801D01*
X4083Y12777D01*
X4153Y12742D01*
X4216Y12696D01*
X4271Y12641D01*
X4317Y12578D01*
X4352Y12509D01*
X4376Y12435D01*
X4379Y12417D01*
X3598Y12417D01*
G37*
%LPD*%
%LPC*%
G36*
X5274Y12624D02*
X5274Y12624D01*
X5200Y12648D01*
X5131Y12683D01*
X5068Y12729D01*
X5013Y12784D01*
X4967Y12847D01*
X4932Y12916D01*
X4907Y12991D01*
X4895Y13067D01*
X4895Y13402D01*
X5292Y13402D01*
X5292Y12621D01*
X5274Y12624D01*
G37*
%LPD*%
%LPC*%
G36*
X3067Y11824D02*
X3067Y11824D01*
X2991Y11837D01*
X2916Y11861D01*
X2847Y11896D01*
X2784Y11942D01*
X2729Y11997D01*
X2683Y12060D01*
X2648Y12129D01*
X2624Y12203D01*
X2621Y12221D01*
X3402Y12221D01*
X3402Y11824D01*
X3067Y11824D01*
G37*
%LPD*%
%LPC*%
G36*
X4895Y13598D02*
X4895Y13598D01*
X4895Y13933D01*
X4907Y14009D01*
X4932Y14083D01*
X4967Y14153D01*
X5013Y14216D01*
X5068Y14271D01*
X5131Y14317D01*
X5200Y14352D01*
X5274Y14376D01*
X5292Y14379D01*
X5292Y13598D01*
X4895Y13598D01*
G37*
%LPD*%
%LPC*%
G36*
X3598Y11824D02*
X3598Y11824D01*
X3598Y12221D01*
X4379Y12221D01*
X4376Y12203D01*
X4352Y12129D01*
X4317Y12060D01*
X4271Y11997D01*
X4216Y11942D01*
X4153Y11896D01*
X4083Y11861D01*
X4009Y11837D01*
X3933Y11824D01*
X3598Y11824D01*
G37*
%LPD*%
%LPC*%
G36*
X3077Y25599D02*
X3077Y25599D01*
X3077Y25856D01*
X3087Y25922D01*
X3108Y25985D01*
X3138Y26044D01*
X3177Y26098D01*
X3224Y26145D01*
X3278Y26184D01*
X3338Y26215D01*
X3401Y26235D01*
X3401Y25599D01*
X3077Y25599D01*
G37*
%LPD*%
%LPC*%
G36*
X17644Y17077D02*
X17644Y17077D01*
X17578Y17087D01*
X17515Y17108D01*
X17456Y17138D01*
X17402Y17177D01*
X17355Y17224D01*
X17316Y17278D01*
X17285Y17338D01*
X17265Y17401D01*
X17901Y17401D01*
X17901Y17077D01*
X17644Y17077D01*
G37*
%LPD*%
%LPC*%
G36*
X13099Y25599D02*
X13099Y25599D01*
X13099Y26235D01*
X13162Y26215D01*
X13222Y26184D01*
X13276Y26145D01*
X13323Y26098D01*
X13362Y26044D01*
X13392Y25985D01*
X13413Y25922D01*
X13423Y25856D01*
X13423Y25599D01*
X13099Y25599D01*
G37*
%LPD*%
%LPC*%
G36*
X13099Y25401D02*
X13099Y25401D01*
X13423Y25401D01*
X13423Y25144D01*
X13413Y25078D01*
X13392Y25015D01*
X13362Y24956D01*
X13323Y24902D01*
X13276Y24855D01*
X13222Y24816D01*
X13162Y24785D01*
X13099Y24765D01*
X13099Y25401D01*
G37*
%LPD*%
%LPC*%
G36*
X2765Y23099D02*
X2765Y23099D01*
X2785Y23162D01*
X2816Y23222D01*
X2855Y23276D01*
X2902Y23323D01*
X2956Y23362D01*
X3015Y23392D01*
X3078Y23413D01*
X3144Y23423D01*
X3401Y23423D01*
X3401Y23099D01*
X2765Y23099D01*
G37*
%LPD*%
%LPC*%
G36*
X3599Y18599D02*
X3599Y18599D01*
X3599Y18923D01*
X3856Y18923D01*
X3922Y18913D01*
X3985Y18892D01*
X4044Y18862D01*
X4098Y18823D01*
X4145Y18776D01*
X4184Y18722D01*
X4215Y18662D01*
X4235Y18599D01*
X3599Y18599D01*
G37*
%LPD*%
%LPC*%
G36*
X2765Y18599D02*
X2765Y18599D01*
X2785Y18662D01*
X2816Y18722D01*
X2855Y18776D01*
X2902Y18823D01*
X2956Y18862D01*
X3015Y18892D01*
X3078Y18913D01*
X3144Y18923D01*
X3401Y18923D01*
X3401Y18599D01*
X2765Y18599D01*
G37*
%LPD*%
%LPC*%
G36*
X3338Y24785D02*
X3338Y24785D01*
X3278Y24816D01*
X3224Y24855D01*
X3177Y24902D01*
X3138Y24956D01*
X3108Y25015D01*
X3087Y25078D01*
X3077Y25144D01*
X3077Y25401D01*
X3401Y25401D01*
X3401Y24765D01*
X3338Y24785D01*
G37*
%LPD*%
%LPC*%
G36*
X18099Y17077D02*
X18099Y17077D01*
X18099Y17401D01*
X18735Y17401D01*
X18715Y17338D01*
X18684Y17278D01*
X18645Y17224D01*
X18598Y17177D01*
X18544Y17138D01*
X18485Y17108D01*
X18422Y17087D01*
X18356Y17077D01*
X18099Y17077D01*
G37*
%LPD*%
%LPC*%
G36*
X12712Y22639D02*
X12712Y22639D01*
X12656Y22648D01*
X12602Y22666D01*
X12551Y22691D01*
X12505Y22725D01*
X12465Y22765D01*
X12431Y22811D01*
X12406Y22862D01*
X12388Y22916D01*
X12387Y22921D01*
X12921Y22921D01*
X12921Y22639D01*
X12712Y22639D01*
G37*
%LPD*%
%LPC*%
G36*
X12387Y23079D02*
X12387Y23079D01*
X12388Y23084D01*
X12406Y23138D01*
X12431Y23189D01*
X12465Y23235D01*
X12505Y23275D01*
X12551Y23309D01*
X12602Y23334D01*
X12656Y23352D01*
X12712Y23361D01*
X12921Y23361D01*
X12921Y23079D01*
X12387Y23079D01*
G37*
%LPD*%
%LPC*%
G36*
X13079Y23079D02*
X13079Y23079D01*
X13079Y23361D01*
X13288Y23361D01*
X13344Y23352D01*
X13398Y23334D01*
X13449Y23309D01*
X13495Y23275D01*
X13535Y23235D01*
X13569Y23189D01*
X13594Y23138D01*
X13612Y23084D01*
X13613Y23079D01*
X13079Y23079D01*
G37*
%LPD*%
%LPC*%
G36*
X13079Y22639D02*
X13079Y22639D01*
X13079Y22921D01*
X13613Y22921D01*
X13612Y22916D01*
X13594Y22862D01*
X13569Y22811D01*
X13535Y22765D01*
X13495Y22725D01*
X13449Y22691D01*
X13398Y22666D01*
X13344Y22648D01*
X13288Y22639D01*
X13079Y22639D01*
G37*
%LPD*%
%LPC*%
G36*
X10088Y23088D02*
X10088Y23088D01*
X10088Y23463D01*
X10110Y23459D01*
X10181Y23436D01*
X10247Y23403D01*
X10307Y23359D01*
X10359Y23307D01*
X10403Y23247D01*
X10436Y23181D01*
X10459Y23110D01*
X10463Y23088D01*
X10088Y23088D01*
G37*
%LPD*%
%LPC*%
G36*
X9537Y23088D02*
X9537Y23088D01*
X9541Y23110D01*
X9564Y23181D01*
X9597Y23247D01*
X9641Y23307D01*
X9693Y23359D01*
X9753Y23403D01*
X9819Y23436D01*
X9890Y23459D01*
X9912Y23463D01*
X9912Y23088D01*
X9537Y23088D01*
G37*
%LPD*%
%LPC*%
G36*
X9890Y22541D02*
X9890Y22541D01*
X9819Y22564D01*
X9753Y22597D01*
X9693Y22641D01*
X9641Y22693D01*
X9597Y22753D01*
X9564Y22819D01*
X9541Y22890D01*
X9537Y22912D01*
X9912Y22912D01*
X9912Y22537D01*
X9890Y22541D01*
G37*
%LPD*%
%LPC*%
G36*
X10088Y22912D02*
X10088Y22912D01*
X10463Y22912D01*
X10459Y22890D01*
X10436Y22819D01*
X10403Y22753D01*
X10359Y22693D01*
X10307Y22641D01*
X10247Y22597D01*
X10181Y22564D01*
X10110Y22541D01*
X10088Y22537D01*
X10088Y22912D01*
G37*
%LPD*%
%LPC*%
G36*
X11946Y12629D02*
X11946Y12629D01*
X11890Y12657D01*
X11839Y12694D01*
X11794Y12739D01*
X11757Y12790D01*
X11729Y12846D01*
X11711Y12901D01*
X12001Y12901D01*
X12001Y12611D01*
X11946Y12629D01*
G37*
%LPD*%
D10*
X7000Y20000D03*
X7000Y23000D03*
D11*
X7170Y18000D02*
X7830Y18000D01*
X12170Y18000D02*
X12830Y18000D01*
D12*
X16150Y14000D03*
X15700Y15000D03*
X15700Y13000D03*
X14800Y15000D03*
X13900Y15000D03*
X13000Y15000D03*
X12100Y15000D03*
X15250Y14000D03*
X14350Y14000D03*
X13450Y14000D03*
X12550Y14000D03*
X14800Y13000D03*
X13900Y13000D03*
X13000Y13000D03*
X12100Y13000D03*
D10*
X8521Y23000D03*
X8479Y20000D03*
X10000Y23000D03*
X10000Y20000D03*
D13*
X3894Y14720D02*
X3106Y14720D01*
X3106Y12319D02*
X3894Y12319D01*
X5390Y13106D02*
X5390Y13894D01*
D10*
X16000Y19500D03*
X16000Y16500D03*
D14*
X4500Y25178D02*
X4500Y25823D01*
X3500Y25823D02*
X3500Y25178D01*
X5500Y25178D02*
X5500Y25823D01*
X17500Y25823D02*
X17500Y25178D01*
X16500Y25178D02*
X16500Y25823D01*
X18500Y25823D02*
X18500Y25178D01*
X18323Y22000D02*
X17678Y22000D01*
X17678Y23000D02*
X18323Y23000D01*
X3823Y18500D02*
X3178Y18500D01*
X3178Y17500D02*
X3823Y17500D01*
X17678Y17500D02*
X18323Y17500D01*
X18323Y18500D02*
X17678Y18500D01*
X10000Y25178D02*
X10000Y25823D01*
X9000Y25823D02*
X9000Y25178D01*
X11000Y25178D02*
X11000Y25823D01*
X12000Y25823D02*
X12000Y25178D01*
X13000Y25178D02*
X13000Y25823D01*
X3823Y23000D02*
X3178Y23000D01*
X3178Y22000D02*
X3823Y22000D01*
D15*
X12740Y21000D02*
X13260Y21000D01*
X13260Y23000D02*
X12740Y23000D01*
X12740Y22000D02*
X13260Y22000D01*
D16*
X10000Y21500D02*
X8521Y23000D01*
X10000Y21500D02*
X10000Y20000D01*
D17*
X11000Y20000D01*
X13000Y22000D01*
D16*
X14000Y22000D02*
X18000Y22000D01*
D17*
X12500Y20500D02*
X12500Y18000D01*
X12500Y20500D02*
X13000Y21000D01*
X14000Y22000D01*
D16*
X8500Y21500D02*
X7000Y23000D01*
X8500Y21500D02*
X8479Y20000D01*
X13200Y17500D02*
X15700Y15000D01*
X9500Y17500D02*
X7000Y20000D01*
X9500Y17500D02*
X13200Y17500D01*
X7500Y18000D02*
X6500Y18000D01*
X5000Y19500D01*
X5000Y22500D02*
X6500Y24000D01*
X5000Y22500D02*
X5000Y19500D01*
X6500Y24000D02*
X17000Y24000D01*
X18000Y23000D01*
X17000Y19500D02*
X16000Y19500D01*
X17000Y19500D02*
X18000Y18500D01*
X4500Y23000D02*
X3500Y22000D01*
X4500Y23000D02*
X4500Y25500D01*
X14930Y14000D02*
X15250Y14000D01*
X14930Y14000D02*
X14520Y13590D01*
X10155Y13590D02*
X9515Y12950D01*
X8050Y12950D01*
X10155Y13590D02*
X14520Y13590D01*
X8050Y12950D02*
X4660Y16340D01*
X4660Y24660D02*
X5500Y25500D01*
X4660Y24660D02*
X4660Y16340D01*
M02*
