M48
;GenerationSoftware,Autodesk,EAGLE,8.6.0*%
;CreationDate,2018-02-20T16:43:01Z*%
FMAT,2
ICI,OFF
INCH,TZ,000.000
T8C0.032
T7C0.035
T6C0.039
T5C0.040
T4C0.043
T3C0.044
T2C0.120
T1C0.130
%
G90
M72
T1
X0Y1200
X2150Y2900
X2150Y1200
X0Y2900
T2
X908Y1400
X1892Y1400
T3
X750Y1800
X1250Y1800
T4
X1850Y2550
X1100Y2550
X550Y2550
X450Y2550
X350Y2550
X1750Y2550
X1650Y2550
X1800Y2200
X1800Y2300
X350Y1850
X350Y1750
X1800Y1750
X1800Y1850
X1000Y2550
X900Y2550
X1200Y2550
X1300Y2550
X350Y2300
X350Y2200
T5
X1210Y1300
X1390Y1500
X1615Y1400
X1570Y1500
X1570Y1300
X1480Y1500
X1300Y1500
X1210Y1500
X1525Y1400
X1435Y1400
X1480Y1300
X1345Y1400
X1255Y1400
X1390Y1300
X1300Y1300
T6
X539Y1350
X350Y1472
X350Y1232
T7
X1600Y1950
X1600Y1650
X1000Y2300
X1000Y2000
X848Y2000
X852Y2300
X700Y2300
X700Y2000
T8
X1300Y2100
X1300Y2300
X1300Y2200
M30