G04 EAGLE Gerber X2 export*
%TF.Part,Single*%
%TF.FileFunction,Profile,NP*%
%TF.FilePolarity,Positive*%
%TF.GenerationSoftware,Autodesk,EAGLE,8.6.0*%
%TF.CreationDate,2018-02-20T16:43:01Z*%
G75*
%MOIN*%
%FSLAX34Y34*%
%LPD*%
%AMOC8*
5,1,8,0,0,1.08239X$1,22.5*%
G01*
%ADD10C,0.010000*%


D10*
X-1500Y10500D02*
X22870Y10500D01*
X22870Y30496D01*
X-1500Y30496D01*
X-1500Y10500D01*
X2949Y12122D02*
X4051Y12122D01*
X4051Y12516D01*
X2949Y12516D01*
X2949Y12122D01*
X2850Y14524D02*
X4150Y14524D01*
X4150Y14917D01*
X2850Y14917D01*
X2850Y14524D01*
X5193Y12949D02*
X5587Y12949D01*
X5587Y14051D01*
X5193Y14051D01*
X5193Y12949D01*
X9680Y13979D02*
X9677Y13936D01*
X9671Y13893D01*
X9662Y13852D01*
X9650Y13810D01*
X9635Y13770D01*
X9617Y13731D01*
X9596Y13694D01*
X9573Y13658D01*
X9547Y13623D01*
X9519Y13591D01*
X9489Y13561D01*
X9457Y13533D01*
X9422Y13507D01*
X9386Y13484D01*
X9349Y13463D01*
X9310Y13445D01*
X9270Y13430D01*
X9228Y13418D01*
X9187Y13409D01*
X9144Y13403D01*
X9101Y13400D01*
X9059Y13400D01*
X9016Y13403D01*
X8973Y13409D01*
X8932Y13418D01*
X8890Y13430D01*
X8850Y13445D01*
X8811Y13463D01*
X8774Y13484D01*
X8738Y13507D01*
X8703Y13533D01*
X8671Y13561D01*
X8641Y13591D01*
X8613Y13623D01*
X8587Y13658D01*
X8564Y13694D01*
X8543Y13731D01*
X8525Y13770D01*
X8510Y13810D01*
X8498Y13852D01*
X8489Y13893D01*
X8483Y13936D01*
X8480Y13979D01*
X8480Y14021D01*
X8483Y14064D01*
X8489Y14107D01*
X8498Y14148D01*
X8510Y14190D01*
X8525Y14230D01*
X8543Y14269D01*
X8564Y14306D01*
X8587Y14342D01*
X8613Y14377D01*
X8641Y14409D01*
X8671Y14439D01*
X8703Y14467D01*
X8738Y14493D01*
X8774Y14516D01*
X8811Y14537D01*
X8850Y14555D01*
X8890Y14570D01*
X8932Y14582D01*
X8973Y14591D01*
X9016Y14597D01*
X9059Y14600D01*
X9101Y14600D01*
X9144Y14597D01*
X9187Y14591D01*
X9228Y14582D01*
X9270Y14570D01*
X9310Y14555D01*
X9349Y14537D01*
X9386Y14516D01*
X9422Y14493D01*
X9457Y14467D01*
X9489Y14439D01*
X9519Y14409D01*
X9547Y14377D01*
X9573Y14342D01*
X9596Y14306D01*
X9617Y14269D01*
X9635Y14230D01*
X9650Y14190D01*
X9662Y14148D01*
X9671Y14107D01*
X9677Y14064D01*
X9680Y14021D01*
X9680Y13979D01*
X19520Y13979D02*
X19517Y13936D01*
X19511Y13893D01*
X19502Y13852D01*
X19490Y13810D01*
X19475Y13770D01*
X19457Y13731D01*
X19436Y13694D01*
X19413Y13658D01*
X19387Y13623D01*
X19359Y13591D01*
X19329Y13561D01*
X19297Y13533D01*
X19262Y13507D01*
X19226Y13484D01*
X19189Y13463D01*
X19150Y13445D01*
X19110Y13430D01*
X19068Y13418D01*
X19027Y13409D01*
X18984Y13403D01*
X18941Y13400D01*
X18899Y13400D01*
X18856Y13403D01*
X18813Y13409D01*
X18772Y13418D01*
X18730Y13430D01*
X18690Y13445D01*
X18651Y13463D01*
X18614Y13484D01*
X18578Y13507D01*
X18543Y13533D01*
X18511Y13561D01*
X18481Y13591D01*
X18453Y13623D01*
X18427Y13658D01*
X18404Y13694D01*
X18383Y13731D01*
X18365Y13770D01*
X18350Y13810D01*
X18338Y13852D01*
X18329Y13893D01*
X18323Y13936D01*
X18320Y13979D01*
X18320Y14021D01*
X18323Y14064D01*
X18329Y14107D01*
X18338Y14148D01*
X18350Y14190D01*
X18365Y14230D01*
X18383Y14269D01*
X18404Y14306D01*
X18427Y14342D01*
X18453Y14377D01*
X18481Y14409D01*
X18511Y14439D01*
X18543Y14467D01*
X18578Y14493D01*
X18614Y14516D01*
X18651Y14537D01*
X18690Y14555D01*
X18730Y14570D01*
X18772Y14582D01*
X18813Y14591D01*
X18856Y14597D01*
X18899Y14600D01*
X18941Y14600D01*
X18984Y14597D01*
X19027Y14591D01*
X19068Y14582D01*
X19110Y14570D01*
X19150Y14555D01*
X19189Y14537D01*
X19226Y14516D01*
X19262Y14493D01*
X19297Y14467D01*
X19329Y14439D01*
X19359Y14409D01*
X19387Y14377D01*
X19413Y14342D01*
X19436Y14306D01*
X19457Y14269D01*
X19475Y14230D01*
X19490Y14190D01*
X19502Y14148D01*
X19511Y14107D01*
X19517Y14064D01*
X19520Y14021D01*
X19520Y13979D01*
X650Y11979D02*
X647Y11936D01*
X642Y11894D01*
X633Y11852D01*
X622Y11811D01*
X609Y11771D01*
X592Y11732D01*
X574Y11693D01*
X552Y11657D01*
X529Y11621D01*
X503Y11587D01*
X475Y11555D01*
X445Y11525D01*
X413Y11497D01*
X379Y11471D01*
X343Y11448D01*
X307Y11426D01*
X268Y11408D01*
X229Y11391D01*
X189Y11378D01*
X148Y11367D01*
X106Y11358D01*
X64Y11353D01*
X21Y11350D01*
X-21Y11350D01*
X-64Y11353D01*
X-106Y11358D01*
X-148Y11367D01*
X-189Y11378D01*
X-229Y11391D01*
X-268Y11408D01*
X-307Y11426D01*
X-343Y11448D01*
X-379Y11471D01*
X-413Y11497D01*
X-445Y11525D01*
X-475Y11555D01*
X-503Y11587D01*
X-529Y11621D01*
X-552Y11657D01*
X-574Y11693D01*
X-592Y11732D01*
X-609Y11771D01*
X-622Y11811D01*
X-633Y11852D01*
X-642Y11894D01*
X-647Y11936D01*
X-650Y11979D01*
X-650Y12021D01*
X-647Y12064D01*
X-642Y12106D01*
X-633Y12148D01*
X-622Y12189D01*
X-609Y12229D01*
X-592Y12268D01*
X-574Y12307D01*
X-552Y12343D01*
X-529Y12379D01*
X-503Y12413D01*
X-475Y12445D01*
X-445Y12475D01*
X-413Y12503D01*
X-379Y12529D01*
X-343Y12552D01*
X-307Y12574D01*
X-268Y12592D01*
X-229Y12609D01*
X-189Y12622D01*
X-148Y12633D01*
X-106Y12642D01*
X-64Y12647D01*
X-21Y12650D01*
X21Y12650D01*
X64Y12647D01*
X106Y12642D01*
X148Y12633D01*
X189Y12622D01*
X229Y12609D01*
X268Y12592D01*
X307Y12574D01*
X343Y12552D01*
X379Y12529D01*
X413Y12503D01*
X445Y12475D01*
X475Y12445D01*
X503Y12413D01*
X529Y12379D01*
X552Y12343D01*
X574Y12307D01*
X592Y12268D01*
X609Y12229D01*
X622Y12189D01*
X633Y12148D01*
X642Y12106D01*
X647Y12064D01*
X650Y12021D01*
X650Y11979D01*
X22150Y28979D02*
X22147Y28936D01*
X22142Y28894D01*
X22133Y28852D01*
X22122Y28811D01*
X22109Y28771D01*
X22092Y28732D01*
X22074Y28693D01*
X22052Y28657D01*
X22029Y28621D01*
X22003Y28587D01*
X21975Y28555D01*
X21945Y28525D01*
X21913Y28497D01*
X21879Y28471D01*
X21843Y28448D01*
X21807Y28426D01*
X21768Y28408D01*
X21729Y28391D01*
X21689Y28378D01*
X21648Y28367D01*
X21606Y28358D01*
X21564Y28353D01*
X21521Y28350D01*
X21479Y28350D01*
X21436Y28353D01*
X21394Y28358D01*
X21352Y28367D01*
X21311Y28378D01*
X21271Y28391D01*
X21232Y28408D01*
X21193Y28426D01*
X21157Y28448D01*
X21121Y28471D01*
X21087Y28497D01*
X21055Y28525D01*
X21025Y28555D01*
X20997Y28587D01*
X20971Y28621D01*
X20948Y28657D01*
X20926Y28693D01*
X20908Y28732D01*
X20891Y28771D01*
X20878Y28811D01*
X20867Y28852D01*
X20858Y28894D01*
X20853Y28936D01*
X20850Y28979D01*
X20850Y29021D01*
X20853Y29064D01*
X20858Y29106D01*
X20867Y29148D01*
X20878Y29189D01*
X20891Y29229D01*
X20908Y29268D01*
X20926Y29307D01*
X20948Y29343D01*
X20971Y29379D01*
X20997Y29413D01*
X21025Y29445D01*
X21055Y29475D01*
X21087Y29503D01*
X21121Y29529D01*
X21157Y29552D01*
X21193Y29574D01*
X21232Y29592D01*
X21271Y29609D01*
X21311Y29622D01*
X21352Y29633D01*
X21394Y29642D01*
X21436Y29647D01*
X21479Y29650D01*
X21521Y29650D01*
X21564Y29647D01*
X21606Y29642D01*
X21648Y29633D01*
X21689Y29622D01*
X21729Y29609D01*
X21768Y29592D01*
X21807Y29574D01*
X21843Y29552D01*
X21879Y29529D01*
X21913Y29503D01*
X21945Y29475D01*
X21975Y29445D01*
X22003Y29413D01*
X22029Y29379D01*
X22052Y29343D01*
X22074Y29307D01*
X22092Y29268D01*
X22109Y29229D01*
X22122Y29189D01*
X22133Y29148D01*
X22142Y29106D01*
X22147Y29064D01*
X22150Y29021D01*
X22150Y28979D01*
X22150Y11979D02*
X22147Y11936D01*
X22142Y11894D01*
X22133Y11852D01*
X22122Y11811D01*
X22109Y11771D01*
X22092Y11732D01*
X22074Y11693D01*
X22052Y11657D01*
X22029Y11621D01*
X22003Y11587D01*
X21975Y11555D01*
X21945Y11525D01*
X21913Y11497D01*
X21879Y11471D01*
X21843Y11448D01*
X21807Y11426D01*
X21768Y11408D01*
X21729Y11391D01*
X21689Y11378D01*
X21648Y11367D01*
X21606Y11358D01*
X21564Y11353D01*
X21521Y11350D01*
X21479Y11350D01*
X21436Y11353D01*
X21394Y11358D01*
X21352Y11367D01*
X21311Y11378D01*
X21271Y11391D01*
X21232Y11408D01*
X21193Y11426D01*
X21157Y11448D01*
X21121Y11471D01*
X21087Y11497D01*
X21055Y11525D01*
X21025Y11555D01*
X20997Y11587D01*
X20971Y11621D01*
X20948Y11657D01*
X20926Y11693D01*
X20908Y11732D01*
X20891Y11771D01*
X20878Y11811D01*
X20867Y11852D01*
X20858Y11894D01*
X20853Y11936D01*
X20850Y11979D01*
X20850Y12021D01*
X20853Y12064D01*
X20858Y12106D01*
X20867Y12148D01*
X20878Y12189D01*
X20891Y12229D01*
X20908Y12268D01*
X20926Y12307D01*
X20948Y12343D01*
X20971Y12379D01*
X20997Y12413D01*
X21025Y12445D01*
X21055Y12475D01*
X21087Y12503D01*
X21121Y12529D01*
X21157Y12552D01*
X21193Y12574D01*
X21232Y12592D01*
X21271Y12609D01*
X21311Y12622D01*
X21352Y12633D01*
X21394Y12642D01*
X21436Y12647D01*
X21479Y12650D01*
X21521Y12650D01*
X21564Y12647D01*
X21606Y12642D01*
X21648Y12633D01*
X21689Y12622D01*
X21729Y12609D01*
X21768Y12592D01*
X21807Y12574D01*
X21843Y12552D01*
X21879Y12529D01*
X21913Y12503D01*
X21945Y12475D01*
X21975Y12445D01*
X22003Y12413D01*
X22029Y12379D01*
X22052Y12343D01*
X22074Y12307D01*
X22092Y12268D01*
X22109Y12229D01*
X22122Y12189D01*
X22133Y12148D01*
X22142Y12106D01*
X22147Y12064D01*
X22150Y12021D01*
X22150Y11979D01*
X650Y28979D02*
X647Y28936D01*
X642Y28894D01*
X633Y28852D01*
X622Y28811D01*
X609Y28771D01*
X592Y28732D01*
X574Y28693D01*
X552Y28657D01*
X529Y28621D01*
X503Y28587D01*
X475Y28555D01*
X445Y28525D01*
X413Y28497D01*
X379Y28471D01*
X343Y28448D01*
X307Y28426D01*
X268Y28408D01*
X229Y28391D01*
X189Y28378D01*
X148Y28367D01*
X106Y28358D01*
X64Y28353D01*
X21Y28350D01*
X-21Y28350D01*
X-64Y28353D01*
X-106Y28358D01*
X-148Y28367D01*
X-189Y28378D01*
X-229Y28391D01*
X-268Y28408D01*
X-307Y28426D01*
X-343Y28448D01*
X-379Y28471D01*
X-413Y28497D01*
X-445Y28525D01*
X-475Y28555D01*
X-503Y28587D01*
X-529Y28621D01*
X-552Y28657D01*
X-574Y28693D01*
X-592Y28732D01*
X-609Y28771D01*
X-622Y28811D01*
X-633Y28852D01*
X-642Y28894D01*
X-647Y28936D01*
X-650Y28979D01*
X-650Y29021D01*
X-647Y29064D01*
X-642Y29106D01*
X-633Y29148D01*
X-622Y29189D01*
X-609Y29229D01*
X-592Y29268D01*
X-574Y29307D01*
X-552Y29343D01*
X-529Y29379D01*
X-503Y29413D01*
X-475Y29445D01*
X-445Y29475D01*
X-413Y29503D01*
X-379Y29529D01*
X-343Y29552D01*
X-307Y29574D01*
X-268Y29592D01*
X-229Y29609D01*
X-189Y29622D01*
X-148Y29633D01*
X-106Y29642D01*
X-64Y29647D01*
X-21Y29650D01*
X21Y29650D01*
X64Y29647D01*
X106Y29642D01*
X148Y29633D01*
X189Y29622D01*
X229Y29609D01*
X268Y29592D01*
X307Y29574D01*
X343Y29552D01*
X379Y29529D01*
X413Y29503D01*
X445Y29475D01*
X475Y29445D01*
X503Y29413D01*
X529Y29379D01*
X552Y29343D01*
X574Y29307D01*
X592Y29268D01*
X609Y29229D01*
X622Y29189D01*
X633Y29148D01*
X642Y29106D01*
X647Y29064D01*
X650Y29021D01*
X650Y28979D01*
M02*
