G04 EAGLE Gerber X2 export*
%TF.Part,Single*%
%TF.FileFunction,Soldermask,Top,1*%
%TF.FilePolarity,Negative*%
%TF.GenerationSoftware,Autodesk,EAGLE,8.6.0*%
%TF.CreationDate,2018-02-20T16:43:01Z*%
G75*
%MOIN*%
%FSLAX34Y34*%
%LPD*%
%AMOC8*
5,1,8,0,0,1.08239X$1,22.5*%
G01*
%ADD10C,0.082000*%
%ADD11C,0.074000*%
%ADD12C,0.068000*%
%ADD13C,0.128000*%
%ADD14C,0.086740*%
%ADD15C,0.072500*%
%ADD16C,0.138000*%
%ADD17C,0.060000*%


D10*
X7000Y20000D03*
X7000Y23000D03*
D11*
X7170Y18000D02*
X7830Y18000D01*
X12170Y18000D02*
X12830Y18000D01*
D12*
X16150Y14000D03*
X15700Y15000D03*
X15700Y13000D03*
X14800Y15000D03*
X13900Y15000D03*
X13000Y15000D03*
X12100Y15000D03*
X15250Y14000D03*
X14350Y14000D03*
X13450Y14000D03*
X12550Y14000D03*
X14800Y13000D03*
X13900Y13000D03*
X13000Y13000D03*
X12100Y13000D03*
D13*
X9080Y14000D03*
X18920Y14000D03*
D10*
X8521Y23000D03*
X8479Y20000D03*
X10000Y23000D03*
X10000Y20000D03*
D14*
X3894Y14720D02*
X3106Y14720D01*
X3106Y12319D02*
X3894Y12319D01*
X5390Y13106D02*
X5390Y13894D01*
D10*
X16000Y19500D03*
X16000Y16500D03*
D15*
X4500Y25178D02*
X4500Y25823D01*
X3500Y25823D02*
X3500Y25178D01*
X5500Y25178D02*
X5500Y25823D01*
X17500Y25823D02*
X17500Y25178D01*
X16500Y25178D02*
X16500Y25823D01*
X18500Y25823D02*
X18500Y25178D01*
X18323Y22000D02*
X17678Y22000D01*
X17678Y23000D02*
X18323Y23000D01*
X3823Y18500D02*
X3178Y18500D01*
X3178Y17500D02*
X3823Y17500D01*
X17678Y17500D02*
X18323Y17500D01*
X18323Y18500D02*
X17678Y18500D01*
X10000Y25178D02*
X10000Y25823D01*
X9000Y25823D02*
X9000Y25178D01*
X11000Y25178D02*
X11000Y25823D01*
X12000Y25823D02*
X12000Y25178D01*
X13000Y25178D02*
X13000Y25823D01*
X3823Y23000D02*
X3178Y23000D01*
X3178Y22000D02*
X3823Y22000D01*
D16*
X0Y12000D03*
X21500Y29000D03*
X21500Y12000D03*
X0Y29000D03*
D17*
X12740Y21000D02*
X13260Y21000D01*
X13260Y23000D02*
X12740Y23000D01*
X12740Y22000D02*
X13260Y22000D01*
M02*
