G04 EAGLE Gerber X2 export*
%TF.Part,Single*%
%TF.FileFunction,Copper,L1,Top,Mixed*%
%TF.FilePolarity,Positive*%
%TF.GenerationSoftware,Autodesk,EAGLE,8.6.0*%
%TF.CreationDate,2018-02-23T00:46:13Z*%
G75*
%MOIN*%
%FSLAX34Y34*%
%LPD*%
%AMOC8*
5,1,8,0,0,1.08239X$1,22.5*%
G01*
%ADD10C,0.060000*%
%ADD11C,0.088583*%
%ADD12C,0.041591*%
%ADD13C,0.006000*%
%ADD14C,0.037654*%
%ADD15C,0.010000*%


D10*
X53650Y4500D03*
X53200Y5500D03*
X53200Y3500D03*
X52300Y5500D03*
X51400Y5500D03*
X50500Y5500D03*
X49600Y5500D03*
X52750Y4500D03*
X51850Y4500D03*
X50950Y4500D03*
X50050Y4500D03*
X52300Y3500D03*
X51400Y3500D03*
X50500Y3500D03*
X49600Y3500D03*
X39650Y4500D03*
X39200Y5500D03*
X39200Y3500D03*
X38300Y5500D03*
X37400Y5500D03*
X36500Y5500D03*
X35600Y5500D03*
X38750Y4500D03*
X37850Y4500D03*
X36950Y4500D03*
X36050Y4500D03*
X38300Y3500D03*
X37400Y3500D03*
X36500Y3500D03*
X35600Y3500D03*
X25650Y4500D03*
X25200Y5500D03*
X25200Y3500D03*
X24300Y5500D03*
X23400Y5500D03*
X22500Y5500D03*
X21600Y5500D03*
X24750Y4500D03*
X23850Y4500D03*
X22950Y4500D03*
X22050Y4500D03*
X24300Y3500D03*
X23400Y3500D03*
X22500Y3500D03*
X21600Y3500D03*
X11650Y4500D03*
X11200Y5500D03*
X11200Y3500D03*
X10300Y5500D03*
X9400Y5500D03*
X8500Y5500D03*
X7600Y5500D03*
X10750Y4500D03*
X9850Y4500D03*
X8950Y4500D03*
X8050Y4500D03*
X10300Y3500D03*
X9400Y3500D03*
X8500Y3500D03*
X7600Y3500D03*
D11*
X50868Y21000D03*
X38132Y21000D03*
D12*
X39380Y20114D03*
X39695Y20567D03*
X40010Y20114D03*
X40325Y20567D03*
X40640Y20114D03*
X40955Y20567D03*
X41270Y20114D03*
X41585Y20567D03*
X41900Y20114D03*
X42215Y20567D03*
X42530Y20114D03*
X42844Y20567D03*
X43159Y20114D03*
X43474Y20567D03*
X43789Y20114D03*
X44104Y20567D03*
X44419Y20114D03*
X44734Y20567D03*
X45049Y20114D03*
X45364Y20567D03*
X45679Y20114D03*
X45994Y20567D03*
X46309Y20114D03*
X46624Y20567D03*
X46939Y20114D03*
X47254Y20567D03*
X47569Y20114D03*
X47884Y20567D03*
X48199Y20114D03*
X48514Y20567D03*
X48829Y20114D03*
X49144Y20567D03*
X49459Y20114D03*
X49774Y20567D03*
X39222Y21039D03*
X39537Y21531D03*
X39852Y21039D03*
X40167Y21531D03*
X40482Y21039D03*
X40797Y21531D03*
X41112Y21039D03*
X41427Y21531D03*
X41742Y21039D03*
X42057Y21531D03*
X42372Y21039D03*
X42687Y21531D03*
X43002Y21039D03*
X43317Y21531D03*
X43632Y21039D03*
X43947Y21531D03*
X44262Y21039D03*
X44577Y21531D03*
X44892Y21039D03*
X45207Y21531D03*
X45522Y21039D03*
X45837Y21531D03*
X46152Y21039D03*
X46467Y21531D03*
X46781Y21039D03*
X47096Y21531D03*
X47411Y21039D03*
X47726Y21531D03*
X48041Y21039D03*
X48356Y21531D03*
X48671Y21039D03*
X48986Y21531D03*
X49301Y21039D03*
X49616Y21531D03*
D11*
X22868Y21000D03*
X10132Y21000D03*
D12*
X11380Y20114D03*
X11695Y20567D03*
X12010Y20114D03*
X12325Y20567D03*
X12640Y20114D03*
X12955Y20567D03*
X13270Y20114D03*
X13585Y20567D03*
X13900Y20114D03*
X14215Y20567D03*
X14530Y20114D03*
X14844Y20567D03*
X15159Y20114D03*
X15474Y20567D03*
X15789Y20114D03*
X16104Y20567D03*
X16419Y20114D03*
X16734Y20567D03*
X17049Y20114D03*
X17364Y20567D03*
X17679Y20114D03*
X17994Y20567D03*
X18309Y20114D03*
X18624Y20567D03*
X18939Y20114D03*
X19254Y20567D03*
X19569Y20114D03*
X19884Y20567D03*
X20199Y20114D03*
X20514Y20567D03*
X20829Y20114D03*
X21144Y20567D03*
X21459Y20114D03*
X21774Y20567D03*
X11222Y21039D03*
X11537Y21531D03*
X11852Y21039D03*
X12167Y21531D03*
X12482Y21039D03*
X12797Y21531D03*
X13112Y21039D03*
X13427Y21531D03*
X13742Y21039D03*
X14057Y21531D03*
X14372Y21039D03*
X14687Y21531D03*
X15002Y21039D03*
X15317Y21531D03*
X15632Y21039D03*
X15947Y21531D03*
X16262Y21039D03*
X16577Y21531D03*
X16892Y21039D03*
X17207Y21531D03*
X17522Y21039D03*
X17837Y21531D03*
X18152Y21039D03*
X18467Y21531D03*
X18781Y21039D03*
X19096Y21531D03*
X19411Y21039D03*
X19726Y21531D03*
X20041Y21039D03*
X20356Y21531D03*
X20671Y21039D03*
X20986Y21531D03*
X21301Y21039D03*
X21616Y21531D03*
D13*
X45207Y21531D02*
X45415Y21531D01*
X46004Y22120D01*
X51119Y22120D01*
X53920Y4770D02*
X53650Y4500D01*
X53920Y19319D02*
X51119Y22120D01*
X53920Y19319D02*
X53920Y4770D01*
X17415Y21531D02*
X17207Y21531D01*
X17415Y21531D02*
X18004Y22120D01*
X21619Y22120D01*
X22192Y21547D01*
X22192Y18560D01*
X25590Y15162D01*
X25590Y4560D02*
X25650Y4500D01*
X25590Y4560D02*
X25590Y15162D01*
D14*
X46000Y15500D03*
D13*
X46000Y8168D01*
X48668Y5500D01*
X49600Y5500D01*
X35600Y5500D02*
X35600Y6100D01*
X46000Y16500D02*
X46000Y19793D01*
X45679Y20114D01*
X46000Y16500D02*
X35600Y6100D01*
D14*
X18000Y15000D03*
D13*
X18000Y9000D01*
X21500Y5500D01*
X21600Y5500D01*
X7600Y5500D02*
X7600Y6100D01*
X18000Y16500D01*
X18000Y19793D01*
X17679Y20114D01*
D14*
X42000Y15500D03*
D13*
X42380Y15880D01*
X43550Y15880D01*
X44419Y16750D01*
X44419Y20114D01*
D14*
X25000Y12500D03*
D13*
X24700Y6000D02*
X25200Y5500D01*
X24700Y6000D02*
X24700Y12200D01*
X25000Y12500D01*
D14*
X43000Y22500D03*
D13*
X43000Y21041D01*
X43002Y21039D01*
D14*
X43500Y15500D03*
D13*
X45049Y17049D01*
X45049Y20114D01*
D14*
X41000Y15500D03*
D13*
X42000Y16500D01*
X43500Y16500D01*
X44104Y17104D01*
X44104Y20567D01*
X43317Y21531D02*
X43500Y21715D01*
X43500Y22500D01*
D14*
X43500Y22500D03*
X54500Y15500D03*
D13*
X54280Y19511D02*
X50896Y22896D01*
X54280Y15720D02*
X54500Y15500D01*
X54280Y15720D02*
X54280Y19511D01*
X50896Y22896D02*
X50773Y23018D01*
X18064Y23018D01*
X16577Y21531D01*
X39362Y3890D02*
X39590Y3662D01*
X39590Y3338D01*
X38502Y2250D01*
X39360Y3890D02*
X38750Y4500D01*
X39360Y3890D02*
X39362Y3890D01*
X15000Y12500D02*
X14000Y11500D01*
X15000Y12500D02*
X16500Y12500D01*
D14*
X16500Y12500D03*
D13*
X14000Y11500D02*
X14000Y6500D01*
X18250Y2250D02*
X38502Y2250D01*
X18250Y2250D02*
X14000Y6500D01*
D14*
X22500Y15000D03*
D13*
X23910Y5338D02*
X24138Y5110D01*
X24140Y5110D01*
X24750Y4500D01*
X22500Y6952D02*
X22500Y15000D01*
X22500Y6952D02*
X23910Y5542D01*
X23910Y5338D01*
X51690Y4110D02*
X52300Y3500D01*
X51690Y4110D02*
X51688Y4110D01*
X50338Y5110D02*
X50110Y5338D01*
X47500Y8300D02*
X47500Y12500D01*
X47500Y8300D02*
X50110Y5690D01*
X50110Y5338D01*
X51340Y4458D02*
X51688Y4110D01*
X51340Y4458D02*
X51340Y4662D01*
X50892Y5110D01*
X50338Y5110D01*
D14*
X47500Y12500D03*
D13*
X43500Y19000D02*
X43500Y19982D01*
X43491Y19991D01*
X43491Y20550D02*
X43474Y20567D01*
X43491Y20550D02*
X43491Y19991D01*
X39000Y17500D02*
X34000Y12500D01*
X39000Y17500D02*
X42000Y17500D01*
X43500Y19000D01*
X38300Y3500D02*
X37952Y3500D01*
X37442Y2990D01*
X35340Y2990D02*
X34000Y4330D01*
X34000Y12500D01*
X35340Y2990D02*
X37442Y2990D01*
X53812Y4110D02*
X54040Y4338D01*
X53810Y4110D02*
X53200Y3500D01*
X53810Y4110D02*
X53812Y4110D01*
X42389Y22283D02*
X42885Y22778D01*
X42389Y22283D02*
X42389Y21056D01*
X42372Y21039D01*
X54040Y19368D02*
X54040Y4338D01*
X54040Y19368D02*
X50630Y22778D01*
X42885Y22778D01*
D14*
X33000Y12500D03*
D13*
X39200Y3500D02*
X38600Y2900D01*
X38570Y2870D01*
X33880Y11620D02*
X33000Y12500D01*
X35291Y2870D02*
X37491Y2870D01*
X35291Y2870D02*
X33880Y4281D01*
X33880Y11620D01*
X37521Y2900D02*
X38600Y2900D01*
X37521Y2900D02*
X37491Y2870D01*
D14*
X33500Y12500D03*
D13*
X26660Y6498D02*
X26660Y4160D01*
X26000Y3500D02*
X25200Y3500D01*
X26000Y3500D02*
X26660Y4160D01*
X32722Y12615D02*
X32885Y12778D01*
X33115Y12778D01*
X32722Y12615D02*
X32722Y12560D01*
X33394Y12500D02*
X33500Y12500D01*
X32722Y12560D02*
X26660Y6498D01*
X33115Y12778D02*
X33394Y12500D01*
X53000Y2748D02*
X54160Y3908D01*
X39852Y21039D02*
X39869Y21056D01*
X39869Y21500D01*
X51400Y3500D02*
X52152Y2748D01*
X53000Y2748D01*
X54160Y3908D02*
X54160Y19462D01*
X50723Y22898D01*
X39869Y21655D02*
X39869Y21500D01*
X39869Y21655D02*
X41113Y22898D01*
X50723Y22898D01*
D14*
X34500Y12500D03*
D13*
X37052Y3500D02*
X37400Y3500D01*
X37052Y3500D02*
X36662Y3110D01*
X35390Y3110D01*
X34500Y4000D01*
X34500Y12500D01*
X23748Y3500D02*
X23400Y3500D01*
X23748Y3500D02*
X24138Y3890D01*
X26220Y3890D01*
X26540Y4210D02*
X26540Y6500D01*
X26540Y4210D02*
X26220Y3890D01*
X40000Y17620D02*
X42494Y20114D01*
X42530Y20114D01*
X26540Y6548D02*
X26540Y6500D01*
X26540Y6548D02*
X26540Y6603D01*
X37557Y17620D01*
X40000Y17620D01*
D14*
X31500Y12500D03*
D13*
X37000Y18000D01*
X39500Y18000D01*
X40955Y19455D01*
X40955Y20567D01*
X49890Y4110D02*
X50500Y3500D01*
X49890Y4110D02*
X49888Y4110D01*
X45500Y8498D01*
X45500Y12500D01*
D14*
X45500Y12500D03*
X35000Y12500D03*
D13*
X35890Y4110D02*
X36500Y3500D01*
X35890Y4110D02*
X35888Y4110D01*
X35000Y4998D01*
X35000Y12500D01*
X42198Y20550D02*
X42215Y20567D01*
X42198Y20550D02*
X42198Y19991D01*
X39947Y17740D01*
X22848Y3500D02*
X22500Y3500D01*
X23358Y4010D02*
X26000Y4010D01*
X23358Y4010D02*
X22848Y3500D01*
X26000Y4010D02*
X26420Y4430D01*
X26420Y6500D01*
X26420Y6597D01*
X26420Y6653D01*
X37507Y17740D01*
X39947Y17740D01*
D14*
X30500Y12500D03*
D13*
X36120Y18120D01*
X39450Y18120D01*
X40640Y19309D02*
X40640Y20114D01*
X40640Y19309D02*
X39450Y18120D01*
X45522Y21217D02*
X45837Y21531D01*
X45522Y21217D02*
X45522Y21039D01*
X45837Y21531D02*
X46305Y22000D01*
X39650Y9811D02*
X39650Y4500D01*
X50072Y21668D02*
X49740Y22000D01*
X46305Y22000D01*
X50072Y20232D02*
X39650Y9811D01*
X50072Y20232D02*
X50072Y21668D01*
X12000Y4850D02*
X11650Y4500D01*
X17837Y21531D02*
X18305Y22000D01*
X17522Y21217D02*
X17522Y21039D01*
X17522Y21217D02*
X17837Y21531D01*
X22072Y21497D02*
X22072Y20072D01*
X12000Y10000D01*
X12000Y4850D01*
X22072Y21497D02*
X21569Y22000D01*
X18305Y22000D01*
D14*
X49500Y15500D03*
D13*
X49500Y6500D01*
X50500Y5500D01*
X36500Y5500D02*
X36500Y6830D01*
X48497Y20550D02*
X48514Y20567D01*
X48497Y20550D02*
X48497Y18827D01*
X36500Y6830D01*
X22500Y5500D02*
X21500Y6500D01*
X21500Y15000D01*
D14*
X21500Y15000D03*
D13*
X8500Y6830D02*
X8500Y5500D01*
X20497Y20550D02*
X20514Y20567D01*
X20497Y20550D02*
X20497Y18827D01*
X8500Y6830D01*
X10910Y4110D02*
X10300Y3500D01*
X10910Y4110D02*
X11812Y4110D01*
X13000Y5298D01*
X13000Y10000D01*
D14*
X13000Y10000D03*
D13*
X23952Y3500D02*
X24300Y3500D01*
X23952Y3500D02*
X23562Y3110D01*
X18560Y3110D01*
X15000Y6670D01*
X15000Y10000D01*
D14*
X15000Y10000D03*
D15*
X2500Y1500D02*
X58370Y1500D01*
X58370Y23496D01*
X2500Y23496D01*
X2500Y1500D01*
X47180Y4479D02*
X47177Y4436D01*
X47171Y4393D01*
X47162Y4352D01*
X47150Y4310D01*
X47135Y4270D01*
X47117Y4231D01*
X47096Y4194D01*
X47073Y4158D01*
X47047Y4123D01*
X47019Y4091D01*
X46989Y4061D01*
X46957Y4033D01*
X46922Y4007D01*
X46886Y3984D01*
X46849Y3963D01*
X46810Y3945D01*
X46770Y3930D01*
X46728Y3918D01*
X46687Y3909D01*
X46644Y3903D01*
X46601Y3900D01*
X46559Y3900D01*
X46516Y3903D01*
X46473Y3909D01*
X46432Y3918D01*
X46390Y3930D01*
X46350Y3945D01*
X46311Y3963D01*
X46274Y3984D01*
X46238Y4007D01*
X46203Y4033D01*
X46171Y4061D01*
X46141Y4091D01*
X46113Y4123D01*
X46087Y4158D01*
X46064Y4194D01*
X46043Y4231D01*
X46025Y4270D01*
X46010Y4310D01*
X45998Y4352D01*
X45989Y4393D01*
X45983Y4436D01*
X45980Y4479D01*
X45980Y4521D01*
X45983Y4564D01*
X45989Y4607D01*
X45998Y4648D01*
X46010Y4690D01*
X46025Y4730D01*
X46043Y4769D01*
X46064Y4806D01*
X46087Y4842D01*
X46113Y4877D01*
X46141Y4909D01*
X46171Y4939D01*
X46203Y4967D01*
X46238Y4993D01*
X46274Y5016D01*
X46311Y5037D01*
X46350Y5055D01*
X46390Y5070D01*
X46432Y5082D01*
X46473Y5091D01*
X46516Y5097D01*
X46559Y5100D01*
X46601Y5100D01*
X46644Y5097D01*
X46687Y5091D01*
X46728Y5082D01*
X46770Y5070D01*
X46810Y5055D01*
X46849Y5037D01*
X46886Y5016D01*
X46922Y4993D01*
X46957Y4967D01*
X46989Y4939D01*
X47019Y4909D01*
X47047Y4877D01*
X47073Y4842D01*
X47096Y4806D01*
X47117Y4769D01*
X47135Y4730D01*
X47150Y4690D01*
X47162Y4648D01*
X47171Y4607D01*
X47177Y4564D01*
X47180Y4521D01*
X47180Y4479D01*
X57020Y4479D02*
X57017Y4436D01*
X57011Y4393D01*
X57002Y4352D01*
X56990Y4310D01*
X56975Y4270D01*
X56957Y4231D01*
X56936Y4194D01*
X56913Y4158D01*
X56887Y4123D01*
X56859Y4091D01*
X56829Y4061D01*
X56797Y4033D01*
X56762Y4007D01*
X56726Y3984D01*
X56689Y3963D01*
X56650Y3945D01*
X56610Y3930D01*
X56568Y3918D01*
X56527Y3909D01*
X56484Y3903D01*
X56441Y3900D01*
X56399Y3900D01*
X56356Y3903D01*
X56313Y3909D01*
X56272Y3918D01*
X56230Y3930D01*
X56190Y3945D01*
X56151Y3963D01*
X56114Y3984D01*
X56078Y4007D01*
X56043Y4033D01*
X56011Y4061D01*
X55981Y4091D01*
X55953Y4123D01*
X55927Y4158D01*
X55904Y4194D01*
X55883Y4231D01*
X55865Y4270D01*
X55850Y4310D01*
X55838Y4352D01*
X55829Y4393D01*
X55823Y4436D01*
X55820Y4479D01*
X55820Y4521D01*
X55823Y4564D01*
X55829Y4607D01*
X55838Y4648D01*
X55850Y4690D01*
X55865Y4730D01*
X55883Y4769D01*
X55904Y4806D01*
X55927Y4842D01*
X55953Y4877D01*
X55981Y4909D01*
X56011Y4939D01*
X56043Y4967D01*
X56078Y4993D01*
X56114Y5016D01*
X56151Y5037D01*
X56190Y5055D01*
X56230Y5070D01*
X56272Y5082D01*
X56313Y5091D01*
X56356Y5097D01*
X56399Y5100D01*
X56441Y5100D01*
X56484Y5097D01*
X56527Y5091D01*
X56568Y5082D01*
X56610Y5070D01*
X56650Y5055D01*
X56689Y5037D01*
X56726Y5016D01*
X56762Y4993D01*
X56797Y4967D01*
X56829Y4939D01*
X56859Y4909D01*
X56887Y4877D01*
X56913Y4842D01*
X56936Y4806D01*
X56957Y4769D01*
X56975Y4730D01*
X56990Y4690D01*
X57002Y4648D01*
X57011Y4607D01*
X57017Y4564D01*
X57020Y4521D01*
X57020Y4479D01*
X33180Y4479D02*
X33177Y4436D01*
X33171Y4393D01*
X33162Y4352D01*
X33150Y4310D01*
X33135Y4270D01*
X33117Y4231D01*
X33096Y4194D01*
X33073Y4158D01*
X33047Y4123D01*
X33019Y4091D01*
X32989Y4061D01*
X32957Y4033D01*
X32922Y4007D01*
X32886Y3984D01*
X32849Y3963D01*
X32810Y3945D01*
X32770Y3930D01*
X32728Y3918D01*
X32687Y3909D01*
X32644Y3903D01*
X32601Y3900D01*
X32559Y3900D01*
X32516Y3903D01*
X32473Y3909D01*
X32432Y3918D01*
X32390Y3930D01*
X32350Y3945D01*
X32311Y3963D01*
X32274Y3984D01*
X32238Y4007D01*
X32203Y4033D01*
X32171Y4061D01*
X32141Y4091D01*
X32113Y4123D01*
X32087Y4158D01*
X32064Y4194D01*
X32043Y4231D01*
X32025Y4270D01*
X32010Y4310D01*
X31998Y4352D01*
X31989Y4393D01*
X31983Y4436D01*
X31980Y4479D01*
X31980Y4521D01*
X31983Y4564D01*
X31989Y4607D01*
X31998Y4648D01*
X32010Y4690D01*
X32025Y4730D01*
X32043Y4769D01*
X32064Y4806D01*
X32087Y4842D01*
X32113Y4877D01*
X32141Y4909D01*
X32171Y4939D01*
X32203Y4967D01*
X32238Y4993D01*
X32274Y5016D01*
X32311Y5037D01*
X32350Y5055D01*
X32390Y5070D01*
X32432Y5082D01*
X32473Y5091D01*
X32516Y5097D01*
X32559Y5100D01*
X32601Y5100D01*
X32644Y5097D01*
X32687Y5091D01*
X32728Y5082D01*
X32770Y5070D01*
X32810Y5055D01*
X32849Y5037D01*
X32886Y5016D01*
X32922Y4993D01*
X32957Y4967D01*
X32989Y4939D01*
X33019Y4909D01*
X33047Y4877D01*
X33073Y4842D01*
X33096Y4806D01*
X33117Y4769D01*
X33135Y4730D01*
X33150Y4690D01*
X33162Y4648D01*
X33171Y4607D01*
X33177Y4564D01*
X33180Y4521D01*
X33180Y4479D01*
X43020Y4479D02*
X43017Y4436D01*
X43011Y4393D01*
X43002Y4352D01*
X42990Y4310D01*
X42975Y4270D01*
X42957Y4231D01*
X42936Y4194D01*
X42913Y4158D01*
X42887Y4123D01*
X42859Y4091D01*
X42829Y4061D01*
X42797Y4033D01*
X42762Y4007D01*
X42726Y3984D01*
X42689Y3963D01*
X42650Y3945D01*
X42610Y3930D01*
X42568Y3918D01*
X42527Y3909D01*
X42484Y3903D01*
X42441Y3900D01*
X42399Y3900D01*
X42356Y3903D01*
X42313Y3909D01*
X42272Y3918D01*
X42230Y3930D01*
X42190Y3945D01*
X42151Y3963D01*
X42114Y3984D01*
X42078Y4007D01*
X42043Y4033D01*
X42011Y4061D01*
X41981Y4091D01*
X41953Y4123D01*
X41927Y4158D01*
X41904Y4194D01*
X41883Y4231D01*
X41865Y4270D01*
X41850Y4310D01*
X41838Y4352D01*
X41829Y4393D01*
X41823Y4436D01*
X41820Y4479D01*
X41820Y4521D01*
X41823Y4564D01*
X41829Y4607D01*
X41838Y4648D01*
X41850Y4690D01*
X41865Y4730D01*
X41883Y4769D01*
X41904Y4806D01*
X41927Y4842D01*
X41953Y4877D01*
X41981Y4909D01*
X42011Y4939D01*
X42043Y4967D01*
X42078Y4993D01*
X42114Y5016D01*
X42151Y5037D01*
X42190Y5055D01*
X42230Y5070D01*
X42272Y5082D01*
X42313Y5091D01*
X42356Y5097D01*
X42399Y5100D01*
X42441Y5100D01*
X42484Y5097D01*
X42527Y5091D01*
X42568Y5082D01*
X42610Y5070D01*
X42650Y5055D01*
X42689Y5037D01*
X42726Y5016D01*
X42762Y4993D01*
X42797Y4967D01*
X42829Y4939D01*
X42859Y4909D01*
X42887Y4877D01*
X42913Y4842D01*
X42936Y4806D01*
X42957Y4769D01*
X42975Y4730D01*
X42990Y4690D01*
X43002Y4648D01*
X43011Y4607D01*
X43017Y4564D01*
X43020Y4521D01*
X43020Y4479D01*
X19180Y4479D02*
X19177Y4436D01*
X19171Y4393D01*
X19162Y4352D01*
X19150Y4310D01*
X19135Y4270D01*
X19117Y4231D01*
X19096Y4194D01*
X19073Y4158D01*
X19047Y4123D01*
X19019Y4091D01*
X18989Y4061D01*
X18957Y4033D01*
X18922Y4007D01*
X18886Y3984D01*
X18849Y3963D01*
X18810Y3945D01*
X18770Y3930D01*
X18728Y3918D01*
X18687Y3909D01*
X18644Y3903D01*
X18601Y3900D01*
X18559Y3900D01*
X18516Y3903D01*
X18473Y3909D01*
X18432Y3918D01*
X18390Y3930D01*
X18350Y3945D01*
X18311Y3963D01*
X18274Y3984D01*
X18238Y4007D01*
X18203Y4033D01*
X18171Y4061D01*
X18141Y4091D01*
X18113Y4123D01*
X18087Y4158D01*
X18064Y4194D01*
X18043Y4231D01*
X18025Y4270D01*
X18010Y4310D01*
X17998Y4352D01*
X17989Y4393D01*
X17983Y4436D01*
X17980Y4479D01*
X17980Y4521D01*
X17983Y4564D01*
X17989Y4607D01*
X17998Y4648D01*
X18010Y4690D01*
X18025Y4730D01*
X18043Y4769D01*
X18064Y4806D01*
X18087Y4842D01*
X18113Y4877D01*
X18141Y4909D01*
X18171Y4939D01*
X18203Y4967D01*
X18238Y4993D01*
X18274Y5016D01*
X18311Y5037D01*
X18350Y5055D01*
X18390Y5070D01*
X18432Y5082D01*
X18473Y5091D01*
X18516Y5097D01*
X18559Y5100D01*
X18601Y5100D01*
X18644Y5097D01*
X18687Y5091D01*
X18728Y5082D01*
X18770Y5070D01*
X18810Y5055D01*
X18849Y5037D01*
X18886Y5016D01*
X18922Y4993D01*
X18957Y4967D01*
X18989Y4939D01*
X19019Y4909D01*
X19047Y4877D01*
X19073Y4842D01*
X19096Y4806D01*
X19117Y4769D01*
X19135Y4730D01*
X19150Y4690D01*
X19162Y4648D01*
X19171Y4607D01*
X19177Y4564D01*
X19180Y4521D01*
X19180Y4479D01*
X29020Y4479D02*
X29017Y4436D01*
X29011Y4393D01*
X29002Y4352D01*
X28990Y4310D01*
X28975Y4270D01*
X28957Y4231D01*
X28936Y4194D01*
X28913Y4158D01*
X28887Y4123D01*
X28859Y4091D01*
X28829Y4061D01*
X28797Y4033D01*
X28762Y4007D01*
X28726Y3984D01*
X28689Y3963D01*
X28650Y3945D01*
X28610Y3930D01*
X28568Y3918D01*
X28527Y3909D01*
X28484Y3903D01*
X28441Y3900D01*
X28399Y3900D01*
X28356Y3903D01*
X28313Y3909D01*
X28272Y3918D01*
X28230Y3930D01*
X28190Y3945D01*
X28151Y3963D01*
X28114Y3984D01*
X28078Y4007D01*
X28043Y4033D01*
X28011Y4061D01*
X27981Y4091D01*
X27953Y4123D01*
X27927Y4158D01*
X27904Y4194D01*
X27883Y4231D01*
X27865Y4270D01*
X27850Y4310D01*
X27838Y4352D01*
X27829Y4393D01*
X27823Y4436D01*
X27820Y4479D01*
X27820Y4521D01*
X27823Y4564D01*
X27829Y4607D01*
X27838Y4648D01*
X27850Y4690D01*
X27865Y4730D01*
X27883Y4769D01*
X27904Y4806D01*
X27927Y4842D01*
X27953Y4877D01*
X27981Y4909D01*
X28011Y4939D01*
X28043Y4967D01*
X28078Y4993D01*
X28114Y5016D01*
X28151Y5037D01*
X28190Y5055D01*
X28230Y5070D01*
X28272Y5082D01*
X28313Y5091D01*
X28356Y5097D01*
X28399Y5100D01*
X28441Y5100D01*
X28484Y5097D01*
X28527Y5091D01*
X28568Y5082D01*
X28610Y5070D01*
X28650Y5055D01*
X28689Y5037D01*
X28726Y5016D01*
X28762Y4993D01*
X28797Y4967D01*
X28829Y4939D01*
X28859Y4909D01*
X28887Y4877D01*
X28913Y4842D01*
X28936Y4806D01*
X28957Y4769D01*
X28975Y4730D01*
X28990Y4690D01*
X29002Y4648D01*
X29011Y4607D01*
X29017Y4564D01*
X29020Y4521D01*
X29020Y4479D01*
X5180Y4479D02*
X5177Y4436D01*
X5171Y4393D01*
X5162Y4352D01*
X5150Y4310D01*
X5135Y4270D01*
X5117Y4231D01*
X5096Y4194D01*
X5073Y4158D01*
X5047Y4123D01*
X5019Y4091D01*
X4989Y4061D01*
X4957Y4033D01*
X4922Y4007D01*
X4886Y3984D01*
X4849Y3963D01*
X4810Y3945D01*
X4770Y3930D01*
X4728Y3918D01*
X4687Y3909D01*
X4644Y3903D01*
X4601Y3900D01*
X4559Y3900D01*
X4516Y3903D01*
X4473Y3909D01*
X4432Y3918D01*
X4390Y3930D01*
X4350Y3945D01*
X4311Y3963D01*
X4274Y3984D01*
X4238Y4007D01*
X4203Y4033D01*
X4171Y4061D01*
X4141Y4091D01*
X4113Y4123D01*
X4087Y4158D01*
X4064Y4194D01*
X4043Y4231D01*
X4025Y4270D01*
X4010Y4310D01*
X3998Y4352D01*
X3989Y4393D01*
X3983Y4436D01*
X3980Y4479D01*
X3980Y4521D01*
X3983Y4564D01*
X3989Y4607D01*
X3998Y4648D01*
X4010Y4690D01*
X4025Y4730D01*
X4043Y4769D01*
X4064Y4806D01*
X4087Y4842D01*
X4113Y4877D01*
X4141Y4909D01*
X4171Y4939D01*
X4203Y4967D01*
X4238Y4993D01*
X4274Y5016D01*
X4311Y5037D01*
X4350Y5055D01*
X4390Y5070D01*
X4432Y5082D01*
X4473Y5091D01*
X4516Y5097D01*
X4559Y5100D01*
X4601Y5100D01*
X4644Y5097D01*
X4687Y5091D01*
X4728Y5082D01*
X4770Y5070D01*
X4810Y5055D01*
X4849Y5037D01*
X4886Y5016D01*
X4922Y4993D01*
X4957Y4967D01*
X4989Y4939D01*
X5019Y4909D01*
X5047Y4877D01*
X5073Y4842D01*
X5096Y4806D01*
X5117Y4769D01*
X5135Y4730D01*
X5150Y4690D01*
X5162Y4648D01*
X5171Y4607D01*
X5177Y4564D01*
X5180Y4521D01*
X5180Y4479D01*
X15020Y4479D02*
X15017Y4436D01*
X15011Y4393D01*
X15002Y4352D01*
X14990Y4310D01*
X14975Y4270D01*
X14957Y4231D01*
X14936Y4194D01*
X14913Y4158D01*
X14887Y4123D01*
X14859Y4091D01*
X14829Y4061D01*
X14797Y4033D01*
X14762Y4007D01*
X14726Y3984D01*
X14689Y3963D01*
X14650Y3945D01*
X14610Y3930D01*
X14568Y3918D01*
X14527Y3909D01*
X14484Y3903D01*
X14441Y3900D01*
X14399Y3900D01*
X14356Y3903D01*
X14313Y3909D01*
X14272Y3918D01*
X14230Y3930D01*
X14190Y3945D01*
X14151Y3963D01*
X14114Y3984D01*
X14078Y4007D01*
X14043Y4033D01*
X14011Y4061D01*
X13981Y4091D01*
X13953Y4123D01*
X13927Y4158D01*
X13904Y4194D01*
X13883Y4231D01*
X13865Y4270D01*
X13850Y4310D01*
X13838Y4352D01*
X13829Y4393D01*
X13823Y4436D01*
X13820Y4479D01*
X13820Y4521D01*
X13823Y4564D01*
X13829Y4607D01*
X13838Y4648D01*
X13850Y4690D01*
X13865Y4730D01*
X13883Y4769D01*
X13904Y4806D01*
X13927Y4842D01*
X13953Y4877D01*
X13981Y4909D01*
X14011Y4939D01*
X14043Y4967D01*
X14078Y4993D01*
X14114Y5016D01*
X14151Y5037D01*
X14190Y5055D01*
X14230Y5070D01*
X14272Y5082D01*
X14313Y5091D01*
X14356Y5097D01*
X14399Y5100D01*
X14441Y5100D01*
X14484Y5097D01*
X14527Y5091D01*
X14568Y5082D01*
X14610Y5070D01*
X14650Y5055D01*
X14689Y5037D01*
X14726Y5016D01*
X14762Y4993D01*
X14797Y4967D01*
X14829Y4939D01*
X14859Y4909D01*
X14887Y4877D01*
X14913Y4842D01*
X14936Y4806D01*
X14957Y4769D01*
X14975Y4730D01*
X14990Y4690D01*
X15002Y4648D01*
X15011Y4607D01*
X15017Y4564D01*
X15020Y4521D01*
X15020Y4479D01*
X57150Y21479D02*
X57147Y21436D01*
X57142Y21394D01*
X57133Y21352D01*
X57122Y21311D01*
X57109Y21271D01*
X57092Y21232D01*
X57074Y21193D01*
X57052Y21157D01*
X57029Y21121D01*
X57003Y21087D01*
X56975Y21055D01*
X56945Y21025D01*
X56913Y20997D01*
X56879Y20971D01*
X56843Y20948D01*
X56807Y20926D01*
X56768Y20908D01*
X56729Y20891D01*
X56689Y20878D01*
X56648Y20867D01*
X56606Y20858D01*
X56564Y20853D01*
X56521Y20850D01*
X56479Y20850D01*
X56436Y20853D01*
X56394Y20858D01*
X56352Y20867D01*
X56311Y20878D01*
X56271Y20891D01*
X56232Y20908D01*
X56193Y20926D01*
X56157Y20948D01*
X56121Y20971D01*
X56087Y20997D01*
X56055Y21025D01*
X56025Y21055D01*
X55997Y21087D01*
X55971Y21121D01*
X55948Y21157D01*
X55926Y21193D01*
X55908Y21232D01*
X55891Y21271D01*
X55878Y21311D01*
X55867Y21352D01*
X55858Y21394D01*
X55853Y21436D01*
X55850Y21479D01*
X55850Y21521D01*
X55853Y21564D01*
X55858Y21606D01*
X55867Y21648D01*
X55878Y21689D01*
X55891Y21729D01*
X55908Y21768D01*
X55926Y21807D01*
X55948Y21843D01*
X55971Y21879D01*
X55997Y21913D01*
X56025Y21945D01*
X56055Y21975D01*
X56087Y22003D01*
X56121Y22029D01*
X56157Y22052D01*
X56193Y22074D01*
X56232Y22092D01*
X56271Y22109D01*
X56311Y22122D01*
X56352Y22133D01*
X56394Y22142D01*
X56436Y22147D01*
X56479Y22150D01*
X56521Y22150D01*
X56564Y22147D01*
X56606Y22142D01*
X56648Y22133D01*
X56689Y22122D01*
X56729Y22109D01*
X56768Y22092D01*
X56807Y22074D01*
X56843Y22052D01*
X56879Y22029D01*
X56913Y22003D01*
X56945Y21975D01*
X56975Y21945D01*
X57003Y21913D01*
X57029Y21879D01*
X57052Y21843D01*
X57074Y21807D01*
X57092Y21768D01*
X57109Y21729D01*
X57122Y21689D01*
X57133Y21648D01*
X57142Y21606D01*
X57147Y21564D01*
X57150Y21521D01*
X57150Y21479D01*
X57150Y8479D02*
X57147Y8436D01*
X57142Y8394D01*
X57133Y8352D01*
X57122Y8311D01*
X57109Y8271D01*
X57092Y8232D01*
X57074Y8193D01*
X57052Y8157D01*
X57029Y8121D01*
X57003Y8087D01*
X56975Y8055D01*
X56945Y8025D01*
X56913Y7997D01*
X56879Y7971D01*
X56843Y7948D01*
X56807Y7926D01*
X56768Y7908D01*
X56729Y7891D01*
X56689Y7878D01*
X56648Y7867D01*
X56606Y7858D01*
X56564Y7853D01*
X56521Y7850D01*
X56479Y7850D01*
X56436Y7853D01*
X56394Y7858D01*
X56352Y7867D01*
X56311Y7878D01*
X56271Y7891D01*
X56232Y7908D01*
X56193Y7926D01*
X56157Y7948D01*
X56121Y7971D01*
X56087Y7997D01*
X56055Y8025D01*
X56025Y8055D01*
X55997Y8087D01*
X55971Y8121D01*
X55948Y8157D01*
X55926Y8193D01*
X55908Y8232D01*
X55891Y8271D01*
X55878Y8311D01*
X55867Y8352D01*
X55858Y8394D01*
X55853Y8436D01*
X55850Y8479D01*
X55850Y8521D01*
X55853Y8564D01*
X55858Y8606D01*
X55867Y8648D01*
X55878Y8689D01*
X55891Y8729D01*
X55908Y8768D01*
X55926Y8807D01*
X55948Y8843D01*
X55971Y8879D01*
X55997Y8913D01*
X56025Y8945D01*
X56055Y8975D01*
X56087Y9003D01*
X56121Y9029D01*
X56157Y9052D01*
X56193Y9074D01*
X56232Y9092D01*
X56271Y9109D01*
X56311Y9122D01*
X56352Y9133D01*
X56394Y9142D01*
X56436Y9147D01*
X56479Y9150D01*
X56521Y9150D01*
X56564Y9147D01*
X56606Y9142D01*
X56648Y9133D01*
X56689Y9122D01*
X56729Y9109D01*
X56768Y9092D01*
X56807Y9074D01*
X56843Y9052D01*
X56879Y9029D01*
X56913Y9003D01*
X56945Y8975D01*
X56975Y8945D01*
X57003Y8913D01*
X57029Y8879D01*
X57052Y8843D01*
X57074Y8807D01*
X57092Y8768D01*
X57109Y8729D01*
X57122Y8689D01*
X57133Y8648D01*
X57142Y8606D01*
X57147Y8564D01*
X57150Y8521D01*
X57150Y8479D01*
X5150Y8479D02*
X5147Y8436D01*
X5142Y8394D01*
X5133Y8352D01*
X5122Y8311D01*
X5109Y8271D01*
X5092Y8232D01*
X5074Y8193D01*
X5052Y8157D01*
X5029Y8121D01*
X5003Y8087D01*
X4975Y8055D01*
X4945Y8025D01*
X4913Y7997D01*
X4879Y7971D01*
X4843Y7948D01*
X4807Y7926D01*
X4768Y7908D01*
X4729Y7891D01*
X4689Y7878D01*
X4648Y7867D01*
X4606Y7858D01*
X4564Y7853D01*
X4521Y7850D01*
X4479Y7850D01*
X4436Y7853D01*
X4394Y7858D01*
X4352Y7867D01*
X4311Y7878D01*
X4271Y7891D01*
X4232Y7908D01*
X4193Y7926D01*
X4157Y7948D01*
X4121Y7971D01*
X4087Y7997D01*
X4055Y8025D01*
X4025Y8055D01*
X3997Y8087D01*
X3971Y8121D01*
X3948Y8157D01*
X3926Y8193D01*
X3908Y8232D01*
X3891Y8271D01*
X3878Y8311D01*
X3867Y8352D01*
X3858Y8394D01*
X3853Y8436D01*
X3850Y8479D01*
X3850Y8521D01*
X3853Y8564D01*
X3858Y8606D01*
X3867Y8648D01*
X3878Y8689D01*
X3891Y8729D01*
X3908Y8768D01*
X3926Y8807D01*
X3948Y8843D01*
X3971Y8879D01*
X3997Y8913D01*
X4025Y8945D01*
X4055Y8975D01*
X4087Y9003D01*
X4121Y9029D01*
X4157Y9052D01*
X4193Y9074D01*
X4232Y9092D01*
X4271Y9109D01*
X4311Y9122D01*
X4352Y9133D01*
X4394Y9142D01*
X4436Y9147D01*
X4479Y9150D01*
X4521Y9150D01*
X4564Y9147D01*
X4606Y9142D01*
X4648Y9133D01*
X4689Y9122D01*
X4729Y9109D01*
X4768Y9092D01*
X4807Y9074D01*
X4843Y9052D01*
X4879Y9029D01*
X4913Y9003D01*
X4945Y8975D01*
X4975Y8945D01*
X5003Y8913D01*
X5029Y8879D01*
X5052Y8843D01*
X5074Y8807D01*
X5092Y8768D01*
X5109Y8729D01*
X5122Y8689D01*
X5133Y8648D01*
X5142Y8606D01*
X5147Y8564D01*
X5150Y8521D01*
X5150Y8479D01*
X5150Y21479D02*
X5147Y21436D01*
X5142Y21394D01*
X5133Y21352D01*
X5122Y21311D01*
X5109Y21271D01*
X5092Y21232D01*
X5074Y21193D01*
X5052Y21157D01*
X5029Y21121D01*
X5003Y21087D01*
X4975Y21055D01*
X4945Y21025D01*
X4913Y20997D01*
X4879Y20971D01*
X4843Y20948D01*
X4807Y20926D01*
X4768Y20908D01*
X4729Y20891D01*
X4689Y20878D01*
X4648Y20867D01*
X4606Y20858D01*
X4564Y20853D01*
X4521Y20850D01*
X4479Y20850D01*
X4436Y20853D01*
X4394Y20858D01*
X4352Y20867D01*
X4311Y20878D01*
X4271Y20891D01*
X4232Y20908D01*
X4193Y20926D01*
X4157Y20948D01*
X4121Y20971D01*
X4087Y20997D01*
X4055Y21025D01*
X4025Y21055D01*
X3997Y21087D01*
X3971Y21121D01*
X3948Y21157D01*
X3926Y21193D01*
X3908Y21232D01*
X3891Y21271D01*
X3878Y21311D01*
X3867Y21352D01*
X3858Y21394D01*
X3853Y21436D01*
X3850Y21479D01*
X3850Y21521D01*
X3853Y21564D01*
X3858Y21606D01*
X3867Y21648D01*
X3878Y21689D01*
X3891Y21729D01*
X3908Y21768D01*
X3926Y21807D01*
X3948Y21843D01*
X3971Y21879D01*
X3997Y21913D01*
X4025Y21945D01*
X4055Y21975D01*
X4087Y22003D01*
X4121Y22029D01*
X4157Y22052D01*
X4193Y22074D01*
X4232Y22092D01*
X4271Y22109D01*
X4311Y22122D01*
X4352Y22133D01*
X4394Y22142D01*
X4436Y22147D01*
X4479Y22150D01*
X4521Y22150D01*
X4564Y22147D01*
X4606Y22142D01*
X4648Y22133D01*
X4689Y22122D01*
X4729Y22109D01*
X4768Y22092D01*
X4807Y22074D01*
X4843Y22052D01*
X4879Y22029D01*
X4913Y22003D01*
X4945Y21975D01*
X4975Y21945D01*
X5003Y21913D01*
X5029Y21879D01*
X5052Y21843D01*
X5074Y21807D01*
X5092Y21768D01*
X5109Y21729D01*
X5122Y21689D01*
X5133Y21648D01*
X5142Y21606D01*
X5147Y21564D01*
X5150Y21521D01*
X5150Y21479D01*
X35907Y22050D02*
X35910Y22080D01*
X35915Y22110D01*
X35923Y22139D01*
X35933Y22167D01*
X35946Y22195D01*
X35961Y22221D01*
X35978Y22245D01*
X35998Y22268D01*
X36019Y22290D01*
X36042Y22309D01*
X36067Y22326D01*
X36093Y22341D01*
X36120Y22354D01*
X36148Y22364D01*
X36177Y22372D01*
X36207Y22377D01*
X36237Y22380D01*
X36267Y22380D01*
X36297Y22377D01*
X36327Y22372D01*
X36356Y22364D01*
X36384Y22354D01*
X36411Y22341D01*
X36437Y22326D01*
X36462Y22309D01*
X36485Y22290D01*
X36506Y22268D01*
X36526Y22245D01*
X36543Y22221D01*
X36558Y22195D01*
X36571Y22167D01*
X36581Y22139D01*
X36589Y22110D01*
X36594Y22080D01*
X36596Y22050D01*
X36596Y22020D01*
X36594Y21990D01*
X36589Y21961D01*
X36581Y21932D01*
X36571Y21903D01*
X36558Y21876D01*
X36543Y21850D01*
X36526Y21826D01*
X36506Y21802D01*
X36485Y21781D01*
X36462Y21762D01*
X36437Y21745D01*
X36411Y21730D01*
X36384Y21717D01*
X36356Y21707D01*
X36327Y21699D01*
X36297Y21694D01*
X36267Y21691D01*
X36237Y21691D01*
X36207Y21694D01*
X36177Y21699D01*
X36148Y21707D01*
X36120Y21717D01*
X36093Y21730D01*
X36067Y21745D01*
X36042Y21762D01*
X36019Y21781D01*
X35998Y21802D01*
X35978Y21826D01*
X35961Y21850D01*
X35946Y21876D01*
X35933Y21903D01*
X35923Y21932D01*
X35915Y21961D01*
X35910Y21990D01*
X35907Y22020D01*
X35907Y22050D01*
X52404Y22050D02*
X52406Y22080D01*
X52411Y22110D01*
X52419Y22139D01*
X52429Y22167D01*
X52442Y22195D01*
X52457Y22221D01*
X52474Y22245D01*
X52494Y22268D01*
X52515Y22290D01*
X52538Y22309D01*
X52563Y22326D01*
X52589Y22341D01*
X52616Y22354D01*
X52644Y22364D01*
X52673Y22372D01*
X52703Y22377D01*
X52733Y22380D01*
X52763Y22380D01*
X52793Y22377D01*
X52823Y22372D01*
X52852Y22364D01*
X52880Y22354D01*
X52907Y22341D01*
X52933Y22326D01*
X52958Y22309D01*
X52981Y22290D01*
X53002Y22268D01*
X53022Y22245D01*
X53039Y22221D01*
X53054Y22195D01*
X53067Y22167D01*
X53077Y22139D01*
X53085Y22110D01*
X53090Y22080D01*
X53093Y22050D01*
X53093Y22020D01*
X53090Y21990D01*
X53085Y21961D01*
X53077Y21932D01*
X53067Y21903D01*
X53054Y21876D01*
X53039Y21850D01*
X53022Y21826D01*
X53002Y21802D01*
X52981Y21781D01*
X52958Y21762D01*
X52933Y21745D01*
X52907Y21730D01*
X52880Y21717D01*
X52852Y21707D01*
X52823Y21699D01*
X52793Y21694D01*
X52763Y21691D01*
X52733Y21691D01*
X52703Y21694D01*
X52673Y21699D01*
X52644Y21707D01*
X52616Y21717D01*
X52589Y21730D01*
X52563Y21745D01*
X52538Y21762D01*
X52515Y21781D01*
X52494Y21802D01*
X52474Y21826D01*
X52457Y21850D01*
X52442Y21876D01*
X52429Y21903D01*
X52419Y21932D01*
X52411Y21961D01*
X52406Y21990D01*
X52404Y22020D01*
X52404Y22050D01*
X7907Y22050D02*
X7910Y22080D01*
X7915Y22110D01*
X7923Y22139D01*
X7933Y22167D01*
X7946Y22195D01*
X7961Y22221D01*
X7978Y22245D01*
X7998Y22268D01*
X8019Y22290D01*
X8042Y22309D01*
X8067Y22326D01*
X8093Y22341D01*
X8120Y22354D01*
X8148Y22364D01*
X8177Y22372D01*
X8207Y22377D01*
X8237Y22380D01*
X8267Y22380D01*
X8297Y22377D01*
X8327Y22372D01*
X8356Y22364D01*
X8384Y22354D01*
X8411Y22341D01*
X8437Y22326D01*
X8462Y22309D01*
X8485Y22290D01*
X8506Y22268D01*
X8526Y22245D01*
X8543Y22221D01*
X8558Y22195D01*
X8571Y22167D01*
X8581Y22139D01*
X8589Y22110D01*
X8594Y22080D01*
X8596Y22050D01*
X8596Y22020D01*
X8594Y21990D01*
X8589Y21961D01*
X8581Y21932D01*
X8571Y21903D01*
X8558Y21876D01*
X8543Y21850D01*
X8526Y21826D01*
X8506Y21802D01*
X8485Y21781D01*
X8462Y21762D01*
X8437Y21745D01*
X8411Y21730D01*
X8384Y21717D01*
X8356Y21707D01*
X8327Y21699D01*
X8297Y21694D01*
X8267Y21691D01*
X8237Y21691D01*
X8207Y21694D01*
X8177Y21699D01*
X8148Y21707D01*
X8120Y21717D01*
X8093Y21730D01*
X8067Y21745D01*
X8042Y21762D01*
X8019Y21781D01*
X7998Y21802D01*
X7978Y21826D01*
X7961Y21850D01*
X7946Y21876D01*
X7933Y21903D01*
X7923Y21932D01*
X7915Y21961D01*
X7910Y21990D01*
X7907Y22020D01*
X7907Y22050D01*
X24404Y22050D02*
X24406Y22080D01*
X24411Y22110D01*
X24419Y22139D01*
X24429Y22167D01*
X24442Y22195D01*
X24457Y22221D01*
X24474Y22245D01*
X24494Y22268D01*
X24515Y22290D01*
X24538Y22309D01*
X24563Y22326D01*
X24589Y22341D01*
X24616Y22354D01*
X24644Y22364D01*
X24673Y22372D01*
X24703Y22377D01*
X24733Y22380D01*
X24763Y22380D01*
X24793Y22377D01*
X24823Y22372D01*
X24852Y22364D01*
X24880Y22354D01*
X24907Y22341D01*
X24933Y22326D01*
X24958Y22309D01*
X24981Y22290D01*
X25002Y22268D01*
X25022Y22245D01*
X25039Y22221D01*
X25054Y22195D01*
X25067Y22167D01*
X25077Y22139D01*
X25085Y22110D01*
X25090Y22080D01*
X25093Y22050D01*
X25093Y22020D01*
X25090Y21990D01*
X25085Y21961D01*
X25077Y21932D01*
X25067Y21903D01*
X25054Y21876D01*
X25039Y21850D01*
X25022Y21826D01*
X25002Y21802D01*
X24981Y21781D01*
X24958Y21762D01*
X24933Y21745D01*
X24907Y21730D01*
X24880Y21717D01*
X24852Y21707D01*
X24823Y21699D01*
X24793Y21694D01*
X24763Y21691D01*
X24733Y21691D01*
X24703Y21694D01*
X24673Y21699D01*
X24644Y21707D01*
X24616Y21717D01*
X24589Y21730D01*
X24563Y21745D01*
X24538Y21762D01*
X24515Y21781D01*
X24494Y21802D01*
X24474Y21826D01*
X24457Y21850D01*
X24442Y21876D01*
X24429Y21903D01*
X24419Y21932D01*
X24411Y21961D01*
X24406Y21990D01*
X24404Y22020D01*
X24404Y22050D01*
M02*
