M48
;GenerationSoftware,Autodesk,EAGLE,8.6.0*%
;CreationDate,2018-02-23T00:46:13Z*%
FMAT,2
ICI,OFF
INCH,TZ,000.000
T7C0.022
T6C0.026
T5C0.040
T4C0.047
T3C0.069
T2C0.120
T1C0.130
%
G90
M72
T1
X5650Y2150
X5650Y850
X450Y850
X450Y2150
T2
X458Y450
X4658Y450
X5642Y450
X3258Y450
X4242Y450
X1858Y450
X2842Y450
X1442Y450
T3
X5275Y2204
X825Y2204
X2475Y2204
X3625Y2204
T4
X3813Y2100
X1013Y2100
X5087Y2100
X2287Y2100
T5
X2340Y350
X2250Y350
X2160Y350
X1165Y450
X1120Y550
X1120Y350
X1030Y550
X940Y550
X760Y550
X1075Y450
X985Y450
X895Y450
X805Y450
X1030Y350
X940Y350
X850Y350
X760Y350
X850Y550
X3740Y550
X5365Y450
X5320Y550
X5320Y350
X5230Y550
X5140Y550
X5050Y550
X4960Y550
X5275Y450
X5185Y450
X5095Y450
X5005Y450
X5230Y350
X5140Y350
X5050Y350
X4960Y350
X3965Y450
X3920Y550
X3920Y350
X3830Y550
X2430Y350
X3650Y550
X3560Y550
X3875Y450
X3785Y450
X3695Y450
X3605Y450
X3830Y350
X3740Y350
X3650Y350
X3560Y350
X2565Y450
X2520Y550
X2520Y350
X2430Y550
X2340Y550
X2250Y550
X2160Y550
X2475Y450
X2385Y450
X2295Y450
X2205Y450
T6
X1532Y2153
X1563Y2104
X1595Y2153
X1626Y2104
X1658Y2153
X1689Y2104
X1721Y2153
X1752Y2104
X1784Y2153
X1815Y2104
X1847Y2153
X1878Y2104
X1910Y2153
X1941Y2104
X1973Y2153
X2004Y2104
X2036Y2153
X2067Y2104
X2099Y2153
X2130Y2104
X2162Y2153
X3938Y2011
X3969Y2057
X4001Y2011
X4032Y2057
X4064Y2011
X4095Y2057
X4127Y2011
X4158Y2057
X4190Y2011
X4221Y2057
X4253Y2011
X4284Y2057
X4316Y2011
X4347Y2057
X4379Y2011
X4410Y2057
X4442Y2011
X4473Y2057
X4505Y2011
X4536Y2057
X4568Y2011
X4599Y2057
X4631Y2011
X4662Y2057
X4694Y2011
X4725Y2057
X4757Y2011
X4788Y2057
X4820Y2011
X4851Y2057
X4883Y2011
X4914Y2057
X4946Y2011
X4977Y2057
X3922Y2104
X3954Y2153
X3985Y2104
X4017Y2153
X4048Y2104
X4080Y2153
X4111Y2104
X4143Y2153
X4174Y2104
X4206Y2153
X4237Y2104
X4269Y2153
X4300Y2104
X4332Y2153
X4363Y2104
X4395Y2153
X4426Y2104
X4458Y2153
X4489Y2104
X4521Y2153
X4552Y2104
X4584Y2153
X4615Y2104
X4647Y2153
X4678Y2104
X4710Y2153
X4741Y2104
X4773Y2153
X4804Y2104
X4836Y2153
X4867Y2104
X4899Y2153
X4930Y2104
X4962Y2153
X1138Y2011
X1169Y2057
X1201Y2011
X1232Y2057
X1264Y2011
X1295Y2057
X1327Y2011
X1358Y2057
X1390Y2011
X1421Y2057
X1453Y2011
X1484Y2057
X1516Y2011
X1547Y2057
X1579Y2011
X1610Y2057
X1642Y2011
X1673Y2057
X1705Y2011
X1736Y2057
X1768Y2011
X1799Y2057
X1831Y2011
X1862Y2057
X1894Y2011
X1925Y2057
X1957Y2011
X1988Y2057
X2020Y2011
X2051Y2057
X2083Y2011
X2114Y2057
X2146Y2011
X2177Y2057
X1122Y2104
X1154Y2153
X1185Y2104
X1217Y2153
X1248Y2104
X1280Y2153
X1311Y2104
X1343Y2153
X1374Y2104
X1406Y2153
X1437Y2104
X1469Y2153
X1500Y2104
T7
X1800Y1500
X4200Y1550
X2500Y1250
X4300Y2250
X4350Y1550
X4100Y1550
X4350Y2250
X5450Y1550
X1650Y1250
X2250Y1500
X4750Y1250
X3300Y1250
X3350Y1250
X3450Y1250
X3150Y1250
X4550Y1250
X3500Y1250
X3050Y1250
X4950Y1550
X2150Y1500
X1300Y1000
X4600Y1550
X1500Y1000
M30