G04 EAGLE Gerber X2 export*
%TF.Part,Single*%
%TF.FileFunction,Soldermask,Top,1*%
%TF.FilePolarity,Negative*%
%TF.GenerationSoftware,Autodesk,EAGLE,8.6.0*%
%TF.CreationDate,2018-02-23T00:46:13Z*%
G75*
%MOIN*%
%FSLAX34Y34*%
%LPD*%
%AMOC8*
5,1,8,0,0,1.08239X$1,22.5*%
G01*
%ADD10C,0.066000*%
%ADD11C,0.126000*%
%ADD12C,0.136000*%
%ADD13C,0.094583*%
%ADD14C,0.047591*%
%ADD15C,0.074898*%
%ADD16C,0.043654*%


D10*
X53650Y4500D03*
X53200Y5500D03*
X53200Y3500D03*
X52300Y5500D03*
X51400Y5500D03*
X50500Y5500D03*
X49600Y5500D03*
X52750Y4500D03*
X51850Y4500D03*
X50950Y4500D03*
X50050Y4500D03*
X52300Y3500D03*
X51400Y3500D03*
X50500Y3500D03*
X49600Y3500D03*
D11*
X46580Y4500D03*
X56420Y4500D03*
D10*
X39650Y4500D03*
X39200Y5500D03*
X39200Y3500D03*
X38300Y5500D03*
X37400Y5500D03*
X36500Y5500D03*
X35600Y5500D03*
X38750Y4500D03*
X37850Y4500D03*
X36950Y4500D03*
X36050Y4500D03*
X38300Y3500D03*
X37400Y3500D03*
X36500Y3500D03*
X35600Y3500D03*
D11*
X32580Y4500D03*
X42420Y4500D03*
D10*
X25650Y4500D03*
X25200Y5500D03*
X25200Y3500D03*
X24300Y5500D03*
X23400Y5500D03*
X22500Y5500D03*
X21600Y5500D03*
X24750Y4500D03*
X23850Y4500D03*
X22950Y4500D03*
X22050Y4500D03*
X24300Y3500D03*
X23400Y3500D03*
X22500Y3500D03*
X21600Y3500D03*
D11*
X18580Y4500D03*
X28420Y4500D03*
D10*
X11650Y4500D03*
X11200Y5500D03*
X11200Y3500D03*
X10300Y5500D03*
X9400Y5500D03*
X8500Y5500D03*
X7600Y5500D03*
X10750Y4500D03*
X9850Y4500D03*
X8950Y4500D03*
X8050Y4500D03*
X10300Y3500D03*
X9400Y3500D03*
X8500Y3500D03*
X7600Y3500D03*
D11*
X4580Y4500D03*
X14420Y4500D03*
D12*
X56500Y21500D03*
X56500Y8500D03*
X4500Y8500D03*
X4500Y21500D03*
D13*
X50868Y21000D03*
X38132Y21000D03*
D14*
X39380Y20114D03*
X39695Y20567D03*
X40010Y20114D03*
X40325Y20567D03*
X40640Y20114D03*
X40955Y20567D03*
X41270Y20114D03*
X41585Y20567D03*
X41900Y20114D03*
X42215Y20567D03*
X42530Y20114D03*
X42844Y20567D03*
X43159Y20114D03*
X43474Y20567D03*
X43789Y20114D03*
X44104Y20567D03*
X44419Y20114D03*
X44734Y20567D03*
X45049Y20114D03*
X45364Y20567D03*
X45679Y20114D03*
X45994Y20567D03*
X46309Y20114D03*
X46624Y20567D03*
X46939Y20114D03*
X47254Y20567D03*
X47569Y20114D03*
X47884Y20567D03*
X48199Y20114D03*
X48514Y20567D03*
X48829Y20114D03*
X49144Y20567D03*
X49459Y20114D03*
X49774Y20567D03*
X39222Y21039D03*
X39537Y21531D03*
X39852Y21039D03*
X40167Y21531D03*
X40482Y21039D03*
X40797Y21531D03*
X41112Y21039D03*
X41427Y21531D03*
X41742Y21039D03*
X42057Y21531D03*
X42372Y21039D03*
X42687Y21531D03*
X43002Y21039D03*
X43317Y21531D03*
X43632Y21039D03*
X43947Y21531D03*
X44262Y21039D03*
X44577Y21531D03*
X44892Y21039D03*
X45207Y21531D03*
X45522Y21039D03*
X45837Y21531D03*
X46152Y21039D03*
X46467Y21531D03*
X46781Y21039D03*
X47096Y21531D03*
X47411Y21039D03*
X47726Y21531D03*
X48041Y21039D03*
X48356Y21531D03*
X48671Y21039D03*
X48986Y21531D03*
X49301Y21039D03*
X49616Y21531D03*
D15*
X36252Y22035D03*
X52748Y22035D03*
D13*
X22868Y21000D03*
X10132Y21000D03*
D14*
X11380Y20114D03*
X11695Y20567D03*
X12010Y20114D03*
X12325Y20567D03*
X12640Y20114D03*
X12955Y20567D03*
X13270Y20114D03*
X13585Y20567D03*
X13900Y20114D03*
X14215Y20567D03*
X14530Y20114D03*
X14844Y20567D03*
X15159Y20114D03*
X15474Y20567D03*
X15789Y20114D03*
X16104Y20567D03*
X16419Y20114D03*
X16734Y20567D03*
X17049Y20114D03*
X17364Y20567D03*
X17679Y20114D03*
X17994Y20567D03*
X18309Y20114D03*
X18624Y20567D03*
X18939Y20114D03*
X19254Y20567D03*
X19569Y20114D03*
X19884Y20567D03*
X20199Y20114D03*
X20514Y20567D03*
X20829Y20114D03*
X21144Y20567D03*
X21459Y20114D03*
X21774Y20567D03*
X11222Y21039D03*
X11537Y21531D03*
X11852Y21039D03*
X12167Y21531D03*
X12482Y21039D03*
X12797Y21531D03*
X13112Y21039D03*
X13427Y21531D03*
X13742Y21039D03*
X14057Y21531D03*
X14372Y21039D03*
X14687Y21531D03*
X15002Y21039D03*
X15317Y21531D03*
X15632Y21039D03*
X15947Y21531D03*
X16262Y21039D03*
X16577Y21531D03*
X16892Y21039D03*
X17207Y21531D03*
X17522Y21039D03*
X17837Y21531D03*
X18152Y21039D03*
X18467Y21531D03*
X18781Y21039D03*
X19096Y21531D03*
X19411Y21039D03*
X19726Y21531D03*
X20041Y21039D03*
X20356Y21531D03*
X20671Y21039D03*
X20986Y21531D03*
X21301Y21039D03*
X21616Y21531D03*
D15*
X8252Y22035D03*
X24748Y22035D03*
D16*
X46000Y15500D03*
X18000Y15000D03*
X42000Y15500D03*
X25000Y12500D03*
X43000Y22500D03*
X43500Y15500D03*
X41000Y15500D03*
X43500Y22500D03*
X54500Y15500D03*
X16500Y12500D03*
X22500Y15000D03*
X47500Y12500D03*
X33000Y12500D03*
X33500Y12500D03*
X34500Y12500D03*
X31500Y12500D03*
X45500Y12500D03*
X35000Y12500D03*
X30500Y12500D03*
X49500Y15500D03*
X21500Y15000D03*
X13000Y10000D03*
X15000Y10000D03*
M02*
